<svg xmlns="http://www.w3.org/2000/svg" width="770.157" height="723.173" viewBox="0 0 770.157 723.173">
  <g id="react-group-235" transform="translate(-126.843 -22)">
    <g id="react-group-236">
      <path id="react-path-238" d="M583.541,621.216c-1.909,7.753-3.225,15.707-5.488,23.369-.952,3.223-2.872,6.051-3.635,9.34-.807,3.469,1.619,4.613,4.176,6.466-1.416-1.923-3.092-3.143-3.025-5.655,4.24.967,8.266,5.326,11.506,8,4.244,3.5,8.4,7.1,12.582,10.688q11.573,9.929,23.012,20.008c7.173,6.284,14.857,11.927,22.466,17.664a121.3,121.3,0,0,1,18.56,16.689c1.14,1.3,4.72,7.022,6.862,6.068,1.051-.468,1.384-2.2,1.751-3.154.659-1.708,1.342-3.4,1.953-5.124,1.387-3.919,2.688-7.869,4.1-11.778,1.176-3.244,3.113-5.738.033-8.515-5.771-5.2-11.067-10.837-16.944-15.962-6.734-5.873-13.712-11.449-20.518-17.235-6.537-5.557-12.735-11.505-19.371-16.946-6.542-5.364-13-10.658-19.294-16.322C595.9,633.088,590.038,626.808,583.541,621.216ZM162.206,565.434a17.6,17.6,0,0,0,4.252,4.39,57.445,57.445,0,0,1,5.423,5.6c3.385,3.562,7.075,6.838,10.773,10.07,7.8,6.815,16.461,12.5,24.3,19.212,3.755,3.214,6.383,7.473,10.1,10.683,3.434,2.962,7.932,4.224,11.663,6.737,1.889,1.273,3.4,3.158,5.462,4.154,2.021.978,4.414,1.323,6.525,2.093a38.631,38.631,0,0,0,7.959,1.891c2.378.349,4.412,1.014,6.838.617a22.124,22.124,0,0,0-3.64-2.157,10.006,10.006,0,0,0-3.373-.22c-2.444-.052-4.523-1.358-6.966-1.481,2.219-1.838,5.608-.5,7.993.222,3.086.933,6.226,1.688,9.32,2.6,14.424,4.255,28.969,7.8,43.625,11.159,14.524,3.328,29.013,7.018,43.641,9.816,14.119,2.7,28.426,4.476,42.591,7.138,14.976,2.814,29.994,5.749,44.861,9.088,7.034,1.58,14.074,2.878,21.027,4.8,6.69,1.849,13.432,3.6,20.138,5.391,1.82.486,3.7.871,5.464,1.532,1.655.62,3.075,1.539,4.848,1.819,3.058.481,5.9,1.264,8.93,1.944,6.919,1.554,13.6,3.948,20.443,5.779q11.051,2.957,21.949,6.357c6.78,2.111,13.784,3.565,20.489,5.9a25.685,25.685,0,0,0,4.771,1.566,24.412,24.412,0,0,1,4.106.505c1.415.451,2.581,1.349,4.07,1.571a8.923,8.923,0,0,1,3.651,1.187c3.008,1.582,6.626,1.743,9.892,2.5,3.2.743,6.3,1.791,9.427,2.773,6.8,2.131,13.655,4.05,20.5,6.025,3.59,1.036,7.077,2.387,10.619,3.568.884.294,5.834,2.282,4.829.319-.414-.809-2.617-1.959-3.253-2.438-1.341-1.013-2.691-2.013-4.04-3.016-2.7-2.006-5.4-4.013-8.021-6.113-5.807-4.646-11.084-9.9-16.756-14.705-5.272-4.464-10.811-8.56-15.65-13.519-4.923-5.048-9.26-10.806-13.793-16.208-1.9-2.272-2.819-4.81-4.387-7.239-1.53-2.372-3.7-2.26-6.18-2.251h-.485c-7.288-.043-14.844-2.6-21.767-4.658-6.6-1.961-13.273-4-20-5.48-3.41-.75-6.795-1.163-10.167-2.138-3.334-.965-6.731-1.622-10.133-2.306-7.2-1.448-14.138-3.628-21.148-5.77-6.841-2.091-13.81-3.637-20.722-5.462-3.794-1-7.562-2.091-11.359-3.088-3.146-.826-6.505-2.038-9.761-2.271a94.419,94.419,0,0,1-20.367-3.44c-3.518-1.037-7.114-1.619-10.664-2.516-3.327-.839-6.349-2.649-9.7-3.339-6.924-1.425-13.719-2.843-20.581-4.615a401.571,401.571,0,0,0-41.646-8.674c-3.578-.53-7.034-1.609-10.578-2.3-3.391-.666-6.851-.976-10.268-1.484-7.416-1.1-14.68-3-22.039-4.409-7.182-1.371-14.446-2.281-21.622-3.7-3.654-.722-7.378-1.3-10.985-2.235-3.279-.848-6.1-2.333-9.5-2.655a51.766,51.766,0,0,1-10.318-2.478,84.319,84.319,0,0,0-9.547-2.077c-1.857-.347-3.249-1.517-5.012-2.045-1.443-.432-2.99-.168-4.469-.335-3.433-.386-6.742-1.7-10.123-2.37-6.966-1.391-13.971-2.6-20.888-4.225S169.063,567.315,162.206,565.434Zm145.007,37.645c2.774.075,5.537.19,8.3.442,6,.546,11.966,1.359,17.908,2.317,12.162,1.963,24.284,5.189,36.242,8.138,21.485,5.3,42.779,10.815,63.76,17.916,10.5,3.552,20.967,7.18,31.477,10.695,8.635,2.888,18.086,5.671,25.6,10.994,1.854,1.313,5.606,4.193,3.419,6.709-1.32,1.519-3.729,1.459-5.539,1.76a24.916,24.916,0,0,1-6.839.289c-5.351-.47-10.729.135-16.076-.548a134.444,134.444,0,0,1-15.263-2.677c-2.476-.613-4.9-1.428-7.4-1.959-2.643-.562-5.369-.5-8.005-1.084-2.349-.52-4.675-1.141-7.021-1.659a19.222,19.222,0,0,1-4.919-1.693c-1.791-.94-3.872-.505-5.856-.872-2.347-.435-4.681-.955-7.019-1.44q-4.4-.912-8.791-1.847c-1.985-.421-3.943-.788-5.516-2.17,2.651-2.146,5.093-.845,8.172-.108,3.513.841,7.039,1.62,10.555,2.436,6.627,1.537,13.226,3.2,19.926,4.388,6.586,1.169,13.131,2.656,19.785,3.393,6.713.744,13.479,1.016,20.169,1.988a24.263,24.263,0,0,0,8.711.2c1.887-.354,4.484-.258,2.267-2.424-1.444-1.411-3.7-1.7-4.653-3.525-.523-1-.359-1.631-1.581-1.989a15.96,15.96,0,0,0-2.653-.308c-1.005-.07-1.795.331-2.774.124a16.921,16.921,0,0,1-2.841-1.267c-2.242-.972-4.719-1.012-6.943-1.949-.9-.38-1.966-1.731-2.9-1.869-.607-.091-1.287.411-1.956.362-1.929-.141-3.964-1.625-5.643-2.485a4.032,4.032,0,0,0-3.021-.568,2.8,2.8,0,0,1-2.469-.468c-2.356-1.307-4.229-1.506-6.875-1.873a30.711,30.711,0,0,1-8.044-2.374c-1.081-.475-2.047-1.176-3.12-1.65-.768-.34-1.633-.289-2.349-.6-1.283-.56-.159-.746-.713-1.253-.6-.546-1.045-.024-1.724.063-1.04.135-.852-.142-1.652-.406a4.473,4.473,0,0,0-2.249-.163c-2.711.127-5.277-1.594-7.732-2.525a15.148,15.148,0,0,1-2.977-1.073c-.64-.423-1.054-1.4-1.943-1.276-.953.133-1.159,1.312-2.416,1.188-.88-.087-1.565-.883-2.284-1.3-2.005-1.173-4.466-.713-6.672-1.519a23.985,23.985,0,0,0-3.265-1.135c-.787-.171-1.279-.493-2.029-.719-2.2-.665-3.94.045-6.117-1.36a5.606,5.606,0,0,0-2.612-1.346c-.878-.08-1.7.255-2.594.15-2.313-.27-4.867-1.514-7.023-2.335a29.6,29.6,0,0,0-7.927-2.2c-2.672-.241-5.193-.241-7.779-1.1-2.6-.863-5.172-1.724-7.732-2.681-2.388-.892-4.919-.777-7.406-1.185s-5.763-.549-8.029-1.572c-1.734-.783-3.6-.821-5.323-1.614-1.258-.58-2.023-1.34-3.479-1.347a15.7,15.7,0,0,1-3.156.008,10.066,10.066,0,0,0-3.04-.423,3.411,3.411,0,0,1-2.627-.473c-2.273-1.032-5.13-.794-7.549-1.181-2.68-.428-5.243-1.334-7.873-1.973a4.255,4.255,0,0,1-1.239-.817C302.266,602.855,304.906,603.017,307.213,603.079ZM157.925,528.836c-1.581,3.646-2.315,8.05-3.456,11.866q-1.664,5.575-3.331,11.151c-.82,2.765,1.342,2.985,3.448,3.238a57.854,57.854,0,0,1,10.185,2.368,206.857,206.857,0,0,0,22.542,5.177c7.8,1.488,15.505,3.405,23.372,4.562,7.346,1.081,14.461,3.342,21.776,4.618a57.4,57.4,0,0,1,11.128,2.809,15.809,15.809,0,0,0,4.737,1.412,34.037,34.037,0,0,1,5.177.462c7.257,1.658,14.839,2.664,22.237,3.632,7.794,1.019,15.482,2.673,23.221,4.018,3.81.662,7.623,1.3,11.428,1.979,3.315.593,6.765,2.069,10.109,2.194,2.218.082,4.218-.215,6.447.167,1.724.3,3.446.651,5.164.99,3.759.743,7.438,1.8,11.183,2.6,15.174,3.22,30.414,6.271,45.472,10.045,3.755.94,7.479,2.035,11.285,2.759,3.5.665,6.675,1.924,10.107,2.765,7.193,1.764,14.62,2.284,21.7,4.3,7.136,2.032,14.542,1.988,21.714,3.81,7.737,1.966,15.388,4.216,23.013,6.575,14.987,4.635,30.331,7.572,45.505,11.5,7.475,1.933,14.794,4.294,22.19,6.5,3.841,1.144,7.719,2.163,11.641,2.988,2.651.559,6.16,1.816,8.88,1.537,2.457-.253,4.048-4.657,5.073-6.645,1.521-2.949,1.84-5.685,2.163-8.922a14.614,14.614,0,0,1,.991-4.472c.394-.9,2.057-2.156,2.2-2.948.292-1.63-5.272-1.618-6.482-1.869-3.5-.726-6.837-2.442-10.346-3.3a78.211,78.211,0,0,1-10.233-3.431c-6.959-2.741-14.081-5.033-21.233-7.206-3.762-1.143-7.371-2.651-11.1-3.861-3.042-.986-6.17-.981-9.24-1.964-7.25-2.323-14.8-3.791-22.149-5.773-4.018-1.083-8.163-1.474-12.228-2.342-3.633-.776-7.227-1.684-10.909-2.2a71.025,71.025,0,0,1-9.742-2.326c-3.451-.987-7.086-1.168-10.6-1.849-3.877-.752-7.735-1.583-11.635-2.213-3.363-.544-6.745-.907-9.923-2.216-3.156-1.3-6.249-1.343-9.552-2.056-3.508-.757-6.973-1.246-10.512-1.832-4.149-.686-8.23-1.729-12.373-2.459-3.271-.575-6.748-.614-9.927-1.609-1.773-.553-3.117-1.424-5.01-1.605-1.589-.152-3.076-.267-4.652-.565-3.713-.7-7.486-.992-11.216-1.638-7.567-1.309-15.234-2.188-22.744-3.8-4.081-.875-8.087-1.975-12.211-2.647a93.56,93.56,0,0,1-10.75-1.951,84.345,84.345,0,0,0-11.571-2.774c-3.348-.47-6.659-1.005-9.971-1.692-7.976-1.657-16.1-2.079-24.143-3.337-7.256-1.135-14.7-2.429-21.588-5.035-3.581-1.355-7.454-1.914-11.147-2.97q-5.378-1.537-10.745-3.107c-14.973-4.36-30.224-7.986-45.489-11.187-3.7-.775-7.393-1.575-11.089-2.37-1.544-.332-3.189-.957-4.745-1.153C158.573,527.351,158.488,527.538,157.925,528.836ZM375.87,630.745q7.461.856,14.9,1.861c4.692.629,9.635,1.032,13.877,3.321-7.583-.508-15.2-.737-22.739-1.786-6.841-.953-13.924-3.089-20.808-1.252,3.12,2.44,7.058,3.263,10.738,4.48,4.6,1.52,9.156,3.162,13.744,4.712-1.424,1.838-3.669.538-5.362-.069-2.094-.751-4.278-1.249-6.4-1.932-4.926-1.589-9.643-3.747-14.4-5.757-1.348-.569-3.424-2.076-1.9-3.646.9-.929,2.721-.708,3.865-.742A100.372,100.372,0,0,1,375.87,630.745Zm266.2-482.867c-2.4,2.989.03,5.286-.184,8.457-.2,3.009-3.321,1.512-5.254,1.115l-.124-.024,1.81,8.856c.656-.774-.054-1.475,1.218-1.413.157.008,1.123.731,1.348.83.7.312,1.471.426,2.192.679-.593.394-1.652,1.688-2.2,1.874-1.188.4-1.405-.774-2.35-1.326,1.233,16.242,4.272,34.458-2.2,50.018-.79,1.9-1.88,3.764-2.564,5.7-.539,1.524-.262,1.369.747,2.307.391.363,1.1,1.016.953,1.655-.284,1.231-1.187.6-1.9,1.14-1.068.818-.924,2.2-1.108,3.47a33.2,33.2,0,0,1-1.042,3.455c-.17.683.52.551-.253,1.146-.58.447-1.324-.117-1.952-.041-1.124.135-.4-.207-.9.635a6.246,6.246,0,0,0-.6,2.315c.258,1.4,1.578,1.233,2.784,1.627a26.483,26.483,0,0,0-2.429,2.233c-.213.263-.211,1-.585,1.123-.707.227-2.125-.692-2.7-1.039-.82-.494-1.671-1.678-2.632-1.787-1.455-.164-1.914,1.337-2.99,1.892-1.352.7-2.969.04-4.449.163a22.8,22.8,0,0,0-4.966,1.272,30.026,30.026,0,0,1-11.707,1.256c-6.532-.528-13.226-3.208-19.1-6.034-5.719-2.75-9.45-7.942-13.023-12.982-3.924-5.535-7.835-10.877-10.659-17.092a79.139,79.139,0,0,1-5.976-20.663,81.549,81.549,0,0,1-1.016-11.109,5.4,5.4,0,0,0-4.925-5.467c-1.754-.073-2.982,1.154-4.638,1.309-1.141.106-2.331-1.089-3.242-.941s-1.914,2.337-2.414,3.04c-.954,1.342-1.925,2.671-2.881,4.012-2.025,2.84-3.986,5.761-5.811,8.734-.857,1.4-.794,2.815-1.456,4.214-.605,1.276-1.656,1.653-2,3.125-.357,1.512-.207,2.262-1.458,3.271-1.1.886-1.645.8-2.02,2.36a24.434,24.434,0,0,0-.48,4.189c-.078,1.436.837,3.688.041,4.959-.549-1.076-1.02-3.087-2.547-3.047-.791.021-1.211,1-2.038,1.086-.792.088-1.415-.82-2.211-.444-1.847.874-.526,2.722.276,3.5,1.558,1.508,2.063,3.169.978,5.188-1.834-2.159-3.613-.672-5.028,1.068,1.442.44,3.137.561,1.77,2.291-.294.372-2.209,2.054-2.585,2-.682-.1-.338-.947-1.182-1.125-.526-.111-1.34.56-1.559.965-.657,1.217,1.139,3.763,1.627,4.957-1.259-.64-2.166-2.545-3.672-2.651a3.259,3.259,0,0,0-3.045,3.154c.071,1.161,1.262,2.034,0,2.878-1.618,1.084-4.1-.725-5.78-.3-1.728.436-1.909,2.865-3.213,4.094-1.252,1.18-1.611,2.641-3.124,3.5-3.806,2.155-3.831,7.131-6.563,10.354-1.374-1.268-1.525-1.666-3.283-1.741-.789-.034-2.023-.337-2.749.075-1.126.638-.706,1.832-1.323,2.743-.681,1.006-1.738,1.015-2.813,1.2l-.19.036.908,4.934c-.961-.668-1.582-2.856-2.613-.9-1.224-1.312-.635-3.484-3.254-2.578-1.66.573-2.906,2.233-4.237,3.306-3.964,3.195-9.114,4.788-14.037,5.787-1.115.226-3.117,0-4.128.43-.834.357-.6.483-1,1.18-.283.487.045,1.269-.763,1.187-.619-.064-.663-1.356-.9-1.756-1.1-1.835-2.892-1.2-4.69-.745-2.265.575-2.49,2.394-3.4,4.456-1.111-1.178-2-2.52-3.551-3.155-1.736-.712-3.844-.781-5.655-1.252a46.183,46.183,0,0,1-5.565-2.1c-1.582-.635-3.375-.916-4.882-1.707-1.586-.832-2.741-2.135-4.417-2.851-1.841-.785-3.69-1.535-5.5-2.385a48.063,48.063,0,0,1-10.442-6.338,74.168,74.168,0,0,1-8.889-9.25c-1.3-1.527-4.478-6.448-1.169-7.9,1.429-.63,2.641.927,3.487,1.838a52.123,52.123,0,0,0,4.62,4.554,33.552,33.552,0,0,0,10.158,5.917c-1.97-3.38-5.256-5.907-7.774-8.865-2.608-3.061-5.415-6.337-8.806-8.554-2.48-1.622-5.61-2.277-7.586-4.616-1.476-1.747-4.316-6.725-6.9-6-1.981.557-3.56,1.73-5.745,1.638-1.394-.058-2.514-.641-3.895-.169a26.3,26.3,0,0,0-3.878,2.239,19.431,19.431,0,0,0-4.6,3.031,56.523,56.523,0,0,0-12.1,18.586c-1.405,3.611.87,6.485,2.6,9.544a86.4,86.4,0,0,0,5.57,8.946c4.7,6.374,9.351,12.7,13.816,19.235a188.051,188.051,0,0,0,13.521,18,114.092,114.092,0,0,0,8.086,8.558,74.369,74.369,0,0,0,7.827,5.713q10.3,7.323,20.641,14.605c6.052,4.247,12.844,7.057,19.843,9.34.186-1.253.973-.508,1.9-.628,1.147-.147,2.358-1.313,3.3-1.975a26.412,26.412,0,0,1,2.418-1.908c.88-.466,1.255-.014,2.041-.188,1.969-.438,3.767-4.815,4.8-6.361q2.75-4.094,5.445-8.221c7.067-10.766,15.2-22.245,25.925-29.69,9.562-6.634,21.915-7.333,32.95-4.522,4.222,1.076,11.547,5.141,15.036,1.195.818-.926,2.484-2.552,2.912-3.659.336-.87-.558-2.208-.824-3.29a19.663,19.663,0,0,1-.164-7.358c.727-5.287,2.568-10.436,3.989-15.564,1.709-6.166,3.406-12.347,4.578-18.643,1.119-6.013,2.666-12.812,2.3-18.95-.109-1.809-1.95-5.146.491-6.052,2.32-.861,3.735,1.632,4.077,3.489.95,5.161.2,11.268-.4,16.417a153.338,153.338,0,0,1-3.36,17.76c-1.4,5.883-2.934,11.725-4.47,17.571-.681,2.588-1.123,5.1-.125,7.657.931,2.389,2.593,4.463,3.658,6.8,1.177,2.583,2.149,5.473,3.927,7.725,1.064,1.348,2.8,2.3,3.027,4.147.248,2.026-1.79,2.977.07,4.43a54.922,54.922,0,0,0,5.879,3.767c4.989,2.962,10.382,5.5,15.2,8.711,1.164.774,6.347,5.415,7.679,3.58-.292,1.686,6.6,4.689,7.763,5.406q6.724,4.147,13.4,8.377c8.981,5.7,18.09,11.273,26.724,17.489a110.243,110.243,0,0,0,13.027,7.569c2.4,1.283,4.707,2.738,7.07,4.09a9.365,9.365,0,0,0,5.936,1.662c1.9-.053,2.933.925,4.311,2.113,1.935,1.669,3.981,3.217,6.034,4.737,4.281,3.171,8.716,6.129,13.168,9.054,3.278,2.154,6.532,4.351,9.631,6.76,2.616,2.036,5.16,4.279,8.29,5.5q.656-1.951,1.317-3.9a8.919,8.919,0,0,1,1.058,3.1c.051.6-.428,1.634-.363,2.089.161,1.129,2.406,2.661,3.3,3.371,3.292,2.623,6.618,5.213,9.889,7.863,3.294,2.669,5.969,5.967,9.2,8.694a24.16,24.16,0,0,0,4.947,3.6c1.629.751,2.076.151,3.064-1.208,1.036,2.071.942,2.79,3.245,3.259,1.834.374,2.878.978,3.305-1.241a105.374,105.374,0,0,0,1.694-14.508,140.04,140.04,0,0,0-.2-14.9,37.96,37.96,0,0,0-.891-6.989,5.032,5.032,0,0,1,.3-4.06c.8-2.15-.8-1.856-1.246-3.591-.374-1.451,1.613-2.48,1.006-4.154-.247-.681-1-.95-1.172-1.7-.18-.768.361-1.394.5-2.108.167-.836.335-1.047-.123-1.8-.337-.553-1.009-.078-1.013-.842-.006-1.3,1.91-1.934,1.392-3.7-.2-.684-.919-1.111-1.062-1.608-.133-.461.272-1.105.005-1.718-.417-.96-.969-1.265-1.139-2.338a11.467,11.467,0,0,0-.455-2.349,15.336,15.336,0,0,1-1.23-5.207c-.056-2.208.408-4.42-.284-6.57-.452-1.4-1.456-2.742-1.461-4.264-.005-1.861,1.9-2.937,2.436-4.711a9.383,9.383,0,0,0-.366-6.245q-.505,1.664-1.012,3.327c-.275-.964-.836-2.092-.624-3.124.161-.787.694-.926,1-1.56.677-1.4-.1-.806-.638-2.06-.281-.648.064-1.51.022-2.2a12.51,12.51,0,0,0-.559-2.307c-.4-1.593-.047-2.627-1.228-3.874-2.457-2.6-5.689-4.779-8.374-7.167-1.5-1.338-3.049-2.638-4.543-3.983-1.406-1.266-1.369-1.983-1.294-3.862,4.383,1.61,7.534,5.4,11.011,8.336,3.736,3.15,7.935,5.81,11.818,8.782a222.1,222.1,0,0,0,24.014,15.9c4.074,2.348,8.213,4.583,12.3,6.9,3.8,2.148,7.514,4.259,11.768,5.362,3.618.938,8.174,1.937,11.062-1.223,1.386-1.518.877-3.275,1.786-4.934.466-.85.995-.621,1.549-1.161.782-.762.539-.209.254-1.325-.249-.976-.728-.834-.423-2.056.2-.821.727-1.661,1.021-2.472.624-1.723,1.048-3.41,2.4-4.684.95-.9.654-.442.918-1.5.142-.565-.019-.792.341-1.391.7-1.159,2.449-1.813,3.491-2.6l-.834.463c.1-1.515.96-2.841,1.052-4.354.088-1.458-.237-2.051.6-3.375.693-1.1,1.77-1.9,2.432-3.039a40.956,40.956,0,0,0,1.63-4.113c1.032-2.325,3.116-3.986,3.473-6.551.108-.774-.051-1.392.445-2.064.191-.259.724-.279.886-.517.6-.887.33-1.971,1.036-2.807.637-.753,1.98-.7,2.557-1.519.7-.984.1-1.748-.33-2.734-1.209-2.789.988-3.237,2.209-5.444,1.243-2.249,1.628-4.936,2.457-7.349a8,8,0,0,1,1.857-2.915c.769-.939.724-.483.289-1.824,2.612.131,2.446-5.366,2.969-7.106.189-.624.548-2.021,1.116-2.427.315-.224,1.389-.036,1.518-.009l.013,0,.281-.249a4.855,4.855,0,0,0,1.074-2.828c-.05-.487-.539-.581-.48-1.223.051-.563.817-1.2,1.174-1.586,1.862-1.99,5.149-5.978,3.981-9.013-5.479,5.651-10.521,11.844-16.333,17.159-4.874,4.455-10.57,6.6-17.063,7.33a67.462,67.462,0,0,1-11.706.458,89.8,89.8,0,0,0-9.763-.574c-1.361.064-2.165.139-2.712,1.376-.486,1.1.226,1.732-1.3,1.752-2.037.025-3.423-2.1-4.5.4l-.078.188-.078-.274c-.838-2.717-3.486-3.991-5.991-4.9l-.25-.089a85.851,85.851,0,0,1-10.618-4.615,61.028,61.028,0,0,1-17.481-13.249c-8.817-9.77-14.616-21.785-20.413-33.472a280.944,280.944,0,0,0-21.17-36.008,60.993,60.993,0,0,0-13.221-13.839c-5.061-3.841-10.809-8.378-17.17-9.575-3.239-.609-6.535-1.109-9.789-1.636C647.429,145.829,644.244,145.164,642.065,147.878ZM837.121,246.75l-2.19-4.3L794.912,331.7a31.512,31.512,0,0,0,6.69-2.073c1.11-.54,3.387-2.446,4.69-1.971.359.13.26.753.554.843a2.857,2.857,0,0,0,1.72.063c1.941-.351,3.719-1.466,5.556-2.128-1.1-1.816-.2-3.368.963-4.809.548-.677,1.418-2.05,2.436-1.8,1.2.3.915,2.1,2.522,1.264.406-.213.328-.929.847-1.126.566-.216.865.419,1.42.31,1.284-.25,1.575-2.266,2.88-2.287.894-.015,1.2,1.2,2.186,1.3,1.467.159,1.582-.916,1.675-1.972l.022-.243c.16-1.7.145-2.638,1.784-3.632.431,1.539.109,3.672,2.1,3.28,1.458-.287,3.146-1.833,3.789.566a108.489,108.489,0,0,0,24.108-16.8c6.859-6.125,11.833-13.5,16.823-21.163,2.272-3.488,5.041-6.995,6.911-10.712,1-2,.452-3.337-.141-5.372a6.983,6.983,0,0,1-.387-2.522c.028-.393.475-1.208.295-1.585-.624-1.3-3.194-.574-4.308-.545a66.26,66.26,0,0,1-18.792-2.826c-8.495-3.029-15.31-7.931-22.627-13.012l-.756,2h0l-.755,2-2.19-4.3ZM831.3,312.657q.75.429-.367.676C831.057,313.108,831.18,312.883,831.3,312.657Zm-256.347-6.371c-.181,2.152-1.911,1.645-3.207,1.883A3.131,3.131,0,0,1,574.955,306.286Zm1.587.942a.4.4,0,0,1,.019.178C576.555,307.347,576.549,307.288,576.542,307.228Zm-208.524-37.6a8.256,8.256,0,0,0,2.413,3.842c1.237,1.08,2.609,1.1,3.98,1.848,2.375,1.293,2.634,4.294,3.633,6.537a2.808,2.808,0,0,1-.249,1.258c-1.4-.555-1.869-2.079-3.375-2.507-.661-.188-1.106.023-1.733-.355-.565-.341-.916-1.173-1.394-1.645-1.235-1.217-2.75-1.893-3.782-3.338a29.9,29.9,0,0,1-2.327-4.7c.757-.284,1.04.749,1.715.682C367.844,271.151,367.725,270.32,368.018,269.624Zm199.84-3.475c.292.06,1.284-.032,1.4.347.478,1.541.743,3.137,1.084,4.711C568.182,270.246,568.1,268.22,567.858,266.149Zm304.169-4.973c.264.975.57,1.839-.491,2.442a3.035,3.035,0,0,1-1.1.018ZM503.159,246.511l.776,2.965C501.041,248.278,501.028,248.217,503.159,246.511Zm.788-7.515q.9.07,1.782.225a7.06,7.06,0,0,0-1.81,2.321c-.137.416.231,1.449-.051,1.794-.868,1.06-2.584-.063-3.55-.4a7.2,7.2,0,0,0,2.61-2.085C503.108,240.579,503.535,238.977,503.947,239Zm-2.968-5.537.059.207c.411,1.315,1.476,2.649,1.02,4.085-.36,1.131-1.042,1.51-1.958,1.037a1.945,1.945,0,0,1-.79-3.036c.179-.225.621-.114.828-.37a6.247,6.247,0,0,0,.741-1.707ZM368.9,230.54c-.263.448-.823.846-.892,1.4-.051.4.463.742.405,1.169-.122.907-.295,1.156-1.3,1.273-2.12.247-3.678-2.435-1.317-3.42A11.222,11.222,0,0,1,368.9,230.54Zm137.547-1.091c.413.625,2.948,4.176.952,3.586a6.318,6.318,0,0,1-2.029-2.149c-.094-.182-.535-.52-.506-.778C504.923,229.588,506.059,228.858,506.448,229.449Zm8.324-.722.046.006a2.616,2.616,0,0,1,.247.717c1.626,1.14-2.3,3.132-2.976,3.619-.607-1.739-.213-1.688.977-2.7a16.219,16.219,0,0,1,1.643-1.624ZM349.861,223.86l.61.613c-.8.137-.309,1.134-.854,1.408-.945.476-1.325.051-1.91-.744ZM529.27,190.767c.037.094.073.188.109.282C529.29,190.956,529.091,191.106,529.27,190.767Zm-.658-4.57.516.093.515.094-.536,2.82C527.8,188.783,528.5,187.135,528.612,186.2Z" transform="translate(-16.107 1)" fill="#ffc8bd" fill-rule="evenodd"/>
      <g id="react-group-235-2" data-name="react-group-235" transform="translate(126.843 22)">
        <path id="react-path-239" d="M73.281,89.428,72.936,90q.3-1.629.345-.577" transform="translate(623.939 0)" fill-rule="evenodd"/>
        <path id="react-path-240" d="M510.351,218.83a.037.037,0,0,1-.026-.018Z" transform="translate(-250.519 0)" fill-rule="evenodd"/>
        <path id="react-path-241" d="M14.058,532.921c7.5.462,14.462,3.746,21.71,5.438,7.691,1.8,15.534,2.9,23.266,4.51,3.717.775,7.471,1.556,11.238,2.061,3.739.5,7.238,1.444,10.918,2.242,7.308,1.584,15.085,2.736,22.181,5.079,6.958,2.3,14.407,2.758,21.629,3.985,7.807,1.327,15.669,2.25,23.461,3.656,7.686,1.387,15.362,2.832,23.046,4.222,3.679.666,7.29,2.015,11.03,2.181a80.484,80.484,0,0,1,12.255,1.477c15.8,3.12,31.528,6.865,47.213,10.549q5.736,1.347,11.455,2.764c3.9.965,7.952,1.526,11.794,2.67,7.055,2.1,14.157,4.223,21.5,4.707,3.674.242,7.05,1.842,10.615,2.614,3.747.81,7.614.958,11.41,1.42,7.638.931,15.361,3.7,22.736,5.849,7.354,2.145,14.655,4.752,22.089,6.58,7.788,1.915,15.679,3.375,23.462,5.322,15.112,3.781,29.758,9.345,45.091,12.083,1.176.21,3.086.82,4.273.373,1.245-.468,1.815-2.053,2.468-3.1,1.912-3.082,3.624-6,4.032-9.686.369-3.321.31-6.527,2.532-9.245.648-.792,1.489-.94.342-1.825-.744-.573-3.2-.433-4.135-.592-3.339-.57-6.164-2.152-9.442-2.95a104.045,104.045,0,0,1-10.767-3.135c-7.154-2.58-14.308-4.937-21.558-7.231-3.553-1.124-7.08-2.325-10.536-3.721a22.976,22.976,0,0,0-5.075-1.726,32.386,32.386,0,0,1-5.548-.861c-7.487-2.427-15.245-4.16-22.9-5.96a222.136,222.136,0,0,0-22.168-4.517,71.976,71.976,0,0,1-10.652-2.376c-3.787-1.077-7.739-1.369-11.587-2.156-6.77-1.385-14.358-1.663-20.773-4.3-3.03-1.246-5.884-1.269-9.076-1.847-3.927-.713-7.841-1.457-11.778-2.146-3.77-.66-7.5-1.528-11.259-2.247-3.79-.724-8.007-.759-11.645-2.074-6.426-2.325-13.616-2.265-20.327-3.613-7.888-1.585-15.887-2.506-23.774-4.112-7.617-1.55-15.455-2.625-22.976-4.567a75.864,75.864,0,0,0-10.415-2.374c-3.969-.459-7.857-1.342-11.779-2.086-7.29-1.384-14.7-1.717-22.012-2.979C110.733,528.7,96.31,524.219,81.8,520.1c-7.453-2.116-14.842-4.18-22.446-5.676-3.574-.7-6.925-1.977-10.434-2.912-3.9-1.04-7.884-1.76-11.852-2.508-3.593-.677-7.181-1.39-10.744-2.2-1.718-.392-4.661-1.973-6.328-1.563-1.551.382-1.5,2.943-1.806,4.31-.782,3.476-1.9,6.889-2.943,10.292q-1.346,4.377-2.745,8.737c-.589,1.829-1.083,4.183,1.558,4.346Zm11.051,13.172c3.9,2.329,6.593,6.213,9.778,9.366,3.564,3.526,7.379,6.829,11.192,10.082Q52,570.592,58.23,575.263c3.863,2.887,7.95,5.579,11.443,8.926,3.282,3.146,5.749,7.136,9.369,9.928,3.553,2.74,7.906,4.046,11.534,6.7,1.692,1.241,3.23,2.707,5.2,3.5,2.267.91,4.677,1.594,6.98,2.426a35.439,35.439,0,0,0,6.806,1.439c2.555.4,4.368,1.124,7,.694a22.459,22.459,0,0,0-3.713-2.14,9.924,9.924,0,0,0-3.3-.237c-2.449-.072-4.518-1.357-6.966-1.481,2.156-1.785,5.444-.594,7.79.131,3.659,1.132,7.377,2.07,11.048,3.163,7.325,2.182,14.675,4.206,22.1,6.011,15.539,3.776,31.132,7.34,46.723,10.9,7.656,1.748,15.449,2.83,23.1,4.569,7.254,1.649,14.8,2.253,22.155,3.651,15.513,2.947,31.04,5.824,46.526,8.913,15.262,3.043,30.725,6.133,45.678,10.48,7,2.035,13.945,4.516,21,6.056,7.289,1.591,14.281,4.032,21.449,6.038,7.447,2.084,14.972,3.677,22.341,6.059,7.44,2.406,14.892,4.68,22.435,6.743a47.2,47.2,0,0,1,4.538,1.55,22.049,22.049,0,0,0,5.477.987,18.05,18.05,0,0,1,4.072,1.4c1.638.618,3.276.3,4.8,1.177,3.045,1.761,6.1,2.171,9.565,2.871a108.19,108.19,0,0,1,11.911,3.327c7.237,2.338,14.589,4.191,21.841,6.443,1.087.338,12.712,5.038,12.921,3.646.127-.893-2.97-2.581-3.67-3.092q-4.838-3.534-9.588-7.205c-5.731-4.417-10.9-9.409-16.308-14.2-5.6-4.966-11.751-9.236-17.1-14.5-5.11-5.022-9.233-10.906-13.975-16.258a31.367,31.367,0,0,1-4.942-7.263c-1.452-2.978-3.211-3.636-6.482-3.6-7.205.085-14.856-2.172-21.7-4.3-6.945-2.156-14.157-4.69-21.364-5.737-7.3-1.061-14.313-3.3-21.535-4.831-7.637-1.616-14.97-4.031-22.436-6.263-7.431-2.222-15.026-3.941-22.517-5.955C304.953,605,301.5,604,298.047,603c-3.815-1.1-7.382-1.005-11.277-1.472-7.251-.87-14-3.086-21.1-4.576a53.486,53.486,0,0,1-9.932-3.012c-3.385-1.407-6.974-1.718-10.538-2.472-7.719-1.633-15.314-3.977-22.978-5.863-7.32-1.8-14.8-3.261-22.192-4.758-3.532-.715-7.088-.99-10.647-1.493-3.959-.56-7.792-1.789-11.731-2.477-15.232-2.666-30.42-5.588-45.674-8.138a156.851,156.851,0,0,1-23.178-5.233c-3.265-1.071-6.689-1.107-10.012-2.033-3.477-.969-6.867-2.4-10.44-2.988a34.679,34.679,0,0,1-5.626-.885c-1.224-.417-2.277-1.227-3.518-1.594-3.6-1.065-7.673-1.126-11.363-2.03-7.544-1.849-15.23-2.958-22.8-4.68-7.336-1.668-14.533-3.875-21.784-5.864.583.868.9,2.09,1.852,2.659Zm472.048,136.23c5.681,4.334,11.538,8.456,17.043,13.016a120.643,120.643,0,0,1,13.522,13.818c1.436,1.642,3.139,4.091,4.841,1.4,1.666-2.634,2.467-6.144,3.483-9.07,1.138-3.271,2.214-6.571,3.42-9.816.9-2.43,2.584-4.929.815-7.364-1.644-2.26-4.3-4.208-6.285-6.182-2.574-2.557-5.142-5.123-7.844-7.547-5.178-4.647-10.657-8.959-15.99-13.425-5.72-4.789-11.322-9.721-16.933-14.636-4.886-4.279-9.582-8.8-14.84-12.63-12.332-8.983-22.27-20.748-33.8-30.67-1.909,7.756-3.234,15.7-5.487,23.37-.913,3.108-2.72,5.845-3.551,8.984-.977,3.7,1.359,4.842,4.091,6.822-1.435-1.95-3.092-3.118-3.024-5.656,2.891.66,5.134,2.9,7.381,4.685q3.612,2.874,7.143,5.839c5.232,4.408,10.412,8.879,15.592,13.348,10.053,8.671,19.857,17.658,30.421,25.716Zm23.266-50.876c4.951.334,9.724,1.819,14.688,2.124,2.371.145,4.72.641,7.093.715,2.705.084,5.354-.346,8.07-.2a141.463,141.463,0,0,0,15.826-.459c5.26-.3,10.477-.425,15.7-1.219,2.121-.323,4.231-.654,6.361-.917,1.734-.215,4.45-.272,5.172-2.151.674-1.757.09-4.678.063-6.534-.025-1.679-.117-3.36-.122-5.038-.008-2.344.15-6.056,3.158-6.411,1.756-.208,3.534,1.016,5.025,1.77,2.49,1.259,4.937,2.565,7.313,4.032,2.333,1.439,4.654,2.941,6.851,4.582,1.742,1.3,3.534,3.064,5.885,2.763,2.016-.257,3.77-1.66,5.606-2.423a23.566,23.566,0,0,1,8.4-1.662q-.534-6.344-1.069-12.685-.2-2.324-.392-4.649c-.138-1.636.109-3.79-.3-5.374-.659-2.551-5.53-.993-7.657-.826-4.12.325-8.244.622-12.359,1-1.952.18-6.012,1.39-7.709.023-2.109-1.7-1.53-8.019-1.678-10.411-.112-1.826.531-6.89-1.157-8.1-1.1-.788-3.417-.173-4.633-.107-1.971.108-3.945.166-5.92.124-15.561-.325-31.056-3.789-46.2-7.161-3.364-.749-6.188-1.891-7.881,1.817s-3.234,7.529-4.863,11.282c-1.262,2.909-3.583,5.7-2.042,8.882,1.7,3.51,3.807,6.913,5.78,10.276,1.287,2.193,5.331,7.648.278,8.106-3.583.325-7.9-1.015-11.42-1.622-1.522-.262-3.02-.6-4.181.585-1.292,1.322-1.9,3.9-2.655,5.561-1.933,4.256-4.009,8.441-5.767,12.776a35.216,35.216,0,0,0,6.739,1.532Zm76.491-1.26,13.051-2.14c1.1-.181,7.534-.329,6.572-2.205-.375-.731-2.667-1.563-3.333-1.983-1.879-1.187-3.761-2.372-5.681-3.492a56.764,56.764,0,0,0-11.2-5.21q.293,7.515.586,15.03Zm36.406-40.871c-.152-2.824.031-6.334-.679-9.07-.659-2.541-2.869-3.019-5.237-2.776-2.942.3-5.812,1.243-8.766,1.583a68.209,68.209,0,0,1-11.033.3c0,4.2-.6,8.872.427,12.993.839,3.386,4.214,2.136,6.839,1.962,4.383-.29,8.762-.423,13.132-.908,2.634-.292,5.494-.772,5.317-4.088Zm-94.353-32.6a3.046,3.046,0,0,0,.214-.5,3.046,3.046,0,0,1-.214.5Zm6.8-19c.428-1.251,1.171-2.389,1.54-3.66a21.9,21.9,0,0,1,.777-3.3c1.109-2.415,2.905-4.429,3.884-6.96,1.1-2.851,1.41-6.267,3.171-8.833a10.732,10.732,0,0,0,1.816-2.991,31.191,31.191,0,0,1,1.666-3.76c.989-2.089,1.481-4.043,2.658-6.108,1.448-2.542,2.824-5.214,4.026-7.881.547-1.211.764-4.516,2.1-5.249,1.067-.585,1.05.518,1.9-.7.685-.983.647-1.564-.594-2.035.495-.7,1.464-.362,2.052-.972.57-.591.441-1.605.651-2.334-.789.25-1.579.495-2.371.741,2.3-4.959,4.38-10.019,6.867-14.891,2.146-4.208,3.586-8.789,6.6-12.414,1.5-1.811.381-3.678,1.407-5.611.39-.738,1.078-1.261,1.418-2.04.35-.8.207-1.955.7-2.679.686-1.016,1.259-.368,2.117-.942a4.953,4.953,0,0,0,1.286-1.771c.185-.317.926-1.367.846-1.748-.249-1.2-1.017-.058-1.589-.655,1.258-3.187,2.64-6.319,4.021-9.454.634-1.443,1.743-6.616,4.018-5.036,1.25-3.029.973-5.539,2.308-8.558,1.887-4.269,3.618-8.606,5.419-12.912.875-2.092,1.66-4.243,2.6-6.308.786-1.732,2.147-2.581,3.162-4.087.937-1.388.952-3.783,1.518-5.538,2.3-7.128,6.2-13.317,9.413-20.021,2.009-4.187,3.823-8.452,5.742-12.68.934-2.058,2-4.043,2.984-6.075a8.976,8.976,0,0,0,.88-2.437c.088-.513-.126-1.554.1-1.974.32-.588,1.2-2.089,1.658-3.025.672-1.37,2.086-2.177,2.418-3.592.21-.895-.141-1.308.413-2.177.678-1.061,1.073-1.169,1.273-2.547a9.886,9.886,0,0,1,2.232-5.041,21.772,21.772,0,0,0,2.665-4.993c.59-1.387,2.284-3.417,1.7-4.985-.492-1.321-2.022-1.5-3.218-1.8-2.068-.508-4.086-1.081-6.1-1.775a49.834,49.834,0,0,1-11.694-6.114c-3.4-2.291-6.926-5.207-10.634-6.948-3.29-1.543-6.713-4.841-9.877-7.193-3.716-2.763-7.575-6.472-11.954-8.128,4.476,10.111,6.1,20.8,7.086,31.759A300.367,300.367,0,0,1,597.6,353.3c-.256,11.1.112,22.184-1.717,33.205-.879,5.291-2.217,10.453-2.908,15.78-.321,2.477-1.267,9.339-4.574,9.766-2.079.268-3.4-1.772-5.147.334-1.264,1.523-1.439,3.586-2.041,5.375-.652,1.944-2.718,2.939-2.368,5.094.174,1.069.716,1.382-.069,2.355-.452.559-1.6,1.307-2.181,1.963-.005-.349.217-1.223.005-1.505-.286-.381-.864-.031-1.222-.365.362.337.844.136,1.094.488.569.8-.243,2.342-.532,3.088a20.186,20.186,0,0,1-2.858,4.984c-1.131,1.492-2.113,3.428-3.433,4.747s-2.936,1.794-4.112,3.357c-1.016,1.35-1.7,2.878-3.159,3.821a12.861,12.861,0,0,0-3.688,3.546c-2.587,3.425-7.383,5.448-11.015,7.618-3.889,2.325-8.324,4.268-12.944,3.948a8.5,8.5,0,0,0-2.147-.088c-1.2.229-1.012.713-1.766,1.287-1.122.854-2.4.775-3.848.884-4.727.355-9.647.434-14.33,1.1-2.309.327-9.129,2.5-10.036-.765-3.187,2.29-6.211,1.021-9.718.23-3.471-.783-7.715.2-10.818-1.845-1.607-1.06-1.813-1.429-3.849-1.522a13.246,13.246,0,0,1-5.033-.763,13.517,13.517,0,0,0-4.038-1.565,23.569,23.569,0,0,1-5.532-2.02c-3.706,12.166-9.926,23.115-11.265,35.951a68.323,68.323,0,0,0,.871,19.027c.474,2.767.851,5.359,2.38,7.77a34.29,34.29,0,0,0,5.939,6.667A75.257,75.257,0,0,0,475.61,535a151.025,151.025,0,0,0,16.123,8.232c5.67,2.349,11.242,4.771,16.815,7.342a68.194,68.194,0,0,0,18.171,5.139,42.086,42.086,0,0,1,4.793,1.042c1.252.359,3.223,1.287,4.5.493,1.544-.956,2.2-4.505,2.875-6.138,1.176-2.825,2.064-6.03,3.808-8.57a9.065,9.065,0,0,0,1.255-2.369c.382-1.064.5-2.078,1.813-2.464.228,1.027.876,2.876-.577,3.344,1.121-.361,1.08-1.073.577-3.344Zm9.46-16.17a2.8,2.8,0,0,1-.132.36,2.8,2.8,0,0,0,.132-.36Zm20.64-49.1c.151-.23.3-.461.452-.692-.556-.224-.646-.055-.979.387l.527.3Zm37.786-85.287c.552-.656.507-.486.144-1q-.975.42-.144,1Zm-.4,1.3q.384-.238-.005-.472-.412.24.005.472Zm.524,3.324a1.416,1.416,0,0,1-.654,1.009,1.414,1.414,0,0,0,.654-1.009Zm3.762-9.816c.068.424.135.847.2,1.27a7.915,7.915,0,0,1-.149-2.493c-.148.978.127,1.022-.6,1.827.182-.2.366-.4.548-.6Zm-33.213,12.7c-.074-.168-.152-.335-.225-.5.073.168.151.335.225.5Zm-48.272,61.045-.117-.6Zm-23.563,4.747c0,.4-.04.805-.06,1.2l.06-1.2Zm7.569,1.467a1.213,1.213,0,0,0-.123-.111,1.213,1.213,0,0,1,.123.111Zm-19.172.19a9.209,9.209,0,0,1,1.723,1.189c-.1-.336-1.4-1.064-1.723-1.189ZM293.109,518.866c1.134-.509,2.516-1.614,1.592-2.972,1.343-.208,1.33-1.547,1.7-2.57a31.048,31.048,0,0,1,2.6-4.7c-3.342-1.5-7.052-1.813-10.615-2.477Zm2.832,4.172c-.991-1.359-1.9-2.775-2.832-4.172.317,1.269,2.076,3.135,2.832,4.172Zm36.7-78.179-.343-.293q.484.036.339.293Zm7.679-17.122a.686.686,0,0,0,.454-.51.686.686,0,0,1-.454.51Zm3.033-6.6a9.638,9.638,0,0,0,2.989-3.449,9.654,9.654,0,0,1-2.989,3.449Zm3.258-3.98c.171-.361.328-.735.472-1.119-.144.384-.3.758-.472,1.119Zm-1.3-2.655a3.29,3.29,0,0,1,1.668.1,3.563,3.563,0,0,0-1.668-.1Zm-8.273,13.687c.351-.146.348-.589.593-.789.3-.242.753-.213.952-.383.713-.609.527-.264.62-1.451.118-1.49,1.017-2.328,1.333-3.533.4-1.511-.173-2.274,1.047-3.5,1.47-1.478,3.371-2.763,3.877-4.946a11.629,11.629,0,0,0-.1-2.84c0-.717.713-2.159.4-2.8-.545-1.131-3.9-1.261-5.066-1.531q-8.264-1.912-16.532-3.806c3.5,8.876,7.275,17.793,12.873,25.583Zm-2.047,12.955c-.075.1-.143.191-.209.275q.309-.4.61-.814c-.151.2-.283.379-.4.539Zm10.357,102.181c-.221-2.8-1.255-5.459-1.857-8.188a42.745,42.745,0,0,1-.916-9.337c.012-5.973.633-11.961.979-17.923.714-12.307,2.713-24.515,4.549-36.692,1.753-11.622,4.054-23.082,9.357-33.668,2.4-4.786,5.487-9.6,6.8-14.837.293-1.169.25-2.484.642-3.614.43-1.244,1.289-1.844,2.055-2.836,1.793-2.319,2.842-5.44,4.125-8.068,1.185-2.424,2.161-5,3.541-7.325a10.17,10.17,0,0,1,1.956-2.47c.575-.515,1.789-1,2.134-1.7.7-1.426-1.2-2.534-2.15-3.592-2.285-2.536-4.356-5.309-6.523-7.949-1.618,8.441-3.258,16.7-6.536,24.677-3.171,7.72-6.566,15.31-10.275,22.787q-10.838,21.84-21.159,43.931c-1.6,3.45-3.494,6.582-5.336,9.9-2.059,3.7-3.779,7.606-5.764,11.354-3.783,7.143-6.931,14.612-10.8,21.7-3.841,7.034-8.545,13.464-12.815,20.226-1.1,1.744-5.127,6.311-4.481,8.51.292.991,1.217.979,2.076,1.139,2.262.425,4.585.561,6.853.969,4.421.8,8.7,2.117,13.156,2.835,3.858.622,7.775.886,11.494,2.16a37.047,37.047,0,0,0,6.471,1.18c2.122.345,4.182,1.05,6.264,1.571,4.6,1.152,9.311,1.817,13.966,2.729-3.339-5.427-7.287-10.9-7.8-17.461Zm9.72-72.928q-1.5,9.045-2.992,18.088c5.2-2,10.736-3.463,15.367-6.673-3.5-4.433-8.111-7.777-12.375-11.415Zm17.33-48.508c-2.053.737-1.539,1.615-.619,3.427a56.374,56.374,0,0,1,2.528,5.566c1.932,5.079,3.59,10.27,5.306,15.425,1.617,4.859,3.257,9.716,4.787,14.6.186.6.615,3.132,1.527,3.071,1.032-.068,1.991-4.543,2.293-5.379a124.444,124.444,0,0,1,6.389-14.683c.748-1.452,2.5-3.541,2.314-5.3-.176-1.683-1.952-2.5-3.212-3.287-4.48-2.8-8.969-5.591-13.423-8.435a52.582,52.582,0,0,1-4.424-3.116c-.722-.574-2.4-2.279-3.466-1.9Zm72.16,85.425a6.681,6.681,0,0,0,.027-.69,6.681,6.681,0,0,1-.027.69Zm.027-.707a3.635,3.635,0,0,0-.072-.685,3.635,3.635,0,0,1,.072.685ZM530.7,576.67a1.228,1.228,0,0,1,.277-.03,1.228,1.228,0,0,0-.277.03ZM529.2,595.861c-1,2.155-1.949,4.35-3.029,6.465-.608,1.192-2.127,3.139-1.3,4.516.753,1.26,2.823,1.035,4.064,1.153,2.34.223,4.676.565,7.008.857L529.2,595.861Zm1.132-18.958c-.239.361-.036,1.006-.227,1.365.192-.358-.012-1,.227-1.365Zm-12.66,27.7c.547-.547-.066-1.941-.028-2.582.088-1.51.451-1.036,1.439-1.774,1.919-1.434-1.064-2.513.081-4.485.2-.352.815-.416.971-.777.135-.309.048-.671.159-.965.322-.846.595-1.832.928-2.722.527-1.406,1.262-4.574,3.373-4.148q-2.889-6.013-5.777-12.025c-4.345,11.107-9.12,22.21-16.273,31.84,5.006,0,10.036.261,15.02-.333-.955-.655.111-1.252.107-2.029ZM506,628.75a1.02,1.02,0,0,0,1.135-.268,1.02,1.02,0,0,1-1.135.268Zm-54.906-34.081q8.677,6.282,16.908,13.152c2.364-6.661,2.57-13.8,2.869-20.785-6.248,3.389-13.351,4.66-19.777,7.633ZM403.73,573.06c1.73.194,3.145-.765,4.669-1.386a25.464,25.464,0,0,1,5.569-1.279c4.017-.663,8.026-1.375,12.041-2.043l-17.616-22.477c.017,9.274-2.953,18.158-4.663,27.185Zm-23.871-26.542q-1.687,3.235-3.389,6.464c-.733,1.39-1.439,3.92-2.562,5.017-1.37,1.339-2.9.156-2.56-1.54.372-1.837,2.006-3.957,2.9-5.562.941-1.693,2.321-2.592.5-3.7a21.272,21.272,0,0,0-5.222-1.92c-4.923-1.348-10.078-1.325-15.139-1.141a81.526,81.526,0,0,0,6.666,11.961,26.058,26.058,0,0,0,3.678,4.443c1.1,1.057,1.493,2.449,2.542,3.486,1.2,1.19,3.017,1.532,4.6,1.917a48.947,48.947,0,0,1,5.337,1.8c1.928.706,4.185.448,5.966,1.272a22.975,22.975,0,0,0,4.9,1.818c3.678.827,6.951,2.973,10.62,3.65,1.775.327,1.756-.025,2.293-1.764a36.975,36.975,0,0,0,.914-4.548c1.634-9.333,3.006-18.707,4.628-28.042,4.206,4.838,7.957,10.054,12.17,14.881,2.113,2.419,4.388,4.686,6.55,7.057,1.321,1.447,4.079,3.683,4.085,5.843.009,3.109-5.056,3.891-7.33,4.263-5.9.968-11.962,1.164-17.406,3.935,1.664,1.852,4.293,2.244,6.526,3.036,3.026,1.073,5.989,2.349,8.977,3.521,1.51.593,3.014,1.323,4.566,1.788,1.643.492,3.352.336,4.986.783,1.274.348,2.31,1.188,3.53,1.652a17.33,17.33,0,0,0,4.207.713,35.3,35.3,0,0,1,8.819,2.748c2.864,1.16,5.261.867,8.121-.138,6.128-2.154,12.464-3.85,18.436-6.422.813,6.116,1.112,13.035-.566,19.041-.606,2.173-2.495,4.993-1.023,7.157,1.19,1.75,4.081,3.024,5.749,4.277,5.076,3.814,10.091,7.921,15.788,10.789a28.335,28.335,0,0,0,8.753,2.775c1.04.153,3.258.783,4.093.293.182-.107.091-.681.293-.8a3.6,3.6,0,0,1,1.782-.571c-1.621-2.109.923-2.1,1.878-3.465-3.581-2.87,2.427-5.847,3.318-8.3-2.156.224-1.469-1.315-.709-2.583,1.109-1.845,2.827-1.8,4.861-2.257a24.436,24.436,0,0,1-4.575.94,30.821,30.821,0,0,1-4.555-.5c-1.768-.214-6.751.315-7.728-1.441-1-1.8,1.615-4.8,2.505-6.239,1.852-3,3.934-5.831,5.592-8.95a187.311,187.311,0,0,0,8.327-18.438c1.195-3,2.711-4.373,4.762-1.03,1.511,2.463,1.994,5.494,3.933,7.706,1.32-1.465,1.473-2.656,2.1-4.471.7-2.015,1.993-3.7,2.853-5.624,1.868-4.179-3.21-3.158-5.8-3.448-4.282-.48-8.119-2.337-12.138-3.749-4.3-1.507-8.493-3.128-12.649-4.991-8.257-3.7-16.7-7.072-24.386-11.9-7.056-4.434-14.618-8.467-20.375-14.615a32.21,32.21,0,0,1-6.993-11.473c-.816-2.337-1.373-4.73-2.038-7.11-.578-2.064-1.551-4.232-1.373-6.418-.007.12-.015.239-.023.359-2.6-1.855-1.767-4.975-1.715-7.674.009-.48.21-1.137-.045-1.591-.324-.576-.945-.011-1.219-.783s.879-2.157,1.091-2.9q-.547.28-1.1.555a36.585,36.585,0,0,1-.942-7.123,41.332,41.332,0,0,1,1.153-7.2c.466-2.189.967-4.393,1.565-6.551.122-.439-.022-1.092.409-1.4.721-.513,1.636.217,1.793.941-.153-.707-.495-.933-.493-1.707a15.552,15.552,0,0,1,.46-2.438c.36-2.1.742-4.19,1.16-6.277.368-1.836.689-3.707,1.171-5.516a10.125,10.125,0,0,0,.541-1.894c.054-.94-.187-.8-.487-1.488-.075-.175-.467-.386-.574-.619-.19-.411.178-1.048-.029-1.472a1.793,1.793,0,0,0-1.2-.888c-1.708-.624-2.329-.16-3.7-1.6-1.12-1.173-2.609-1.6-4-2.46a26.743,26.743,0,0,1-4.532-3.019,60.463,60.463,0,0,1-4.772-4.312c-.966-1.1-1.262-3.045-2.51-3.835-.758-.482-1.751-.455-2.55-.962s-1.533-1.284-2.311-1.851c-1.934-1.408-3.98-2.661-5.948-4.021a156.429,156.429,0,0,1-22.3-18.292c-3.4-3.438-6.6-7.084-9.831-10.681-.34-.378-2.337-3.236-3.1-3.09-.839.161-1.532,3.772-1.906,4.542a115.516,115.516,0,0,0-5.041,11.7c-.562,1.575-1.252,2.507-.035,3.649,1.492,1.4,3.947,2.307,5.724,3.347,4.252,2.49,8.513,4.97,12.741,7.506,2.253,1.352,7.717,3.394,8.5,6.188,1,3.577-3.105,8.56-4.6,11.527a105.752,105.752,0,0,0-5.144,12.787c-.643,1.826-2.721,9.674-5.651,8.967-1.5-.362-2.077-2.217-2.559-3.471q-1.213-3.154-2.354-6.337c-3.718-10.374-7.051-20.882-11.156-31.114-3.36,6.028-6.053,12.424-8.889,18.708a38.631,38.631,0,0,0-2.744,8.394c-.572,2.844-1.651,6.373-1.5,9.293.3,5.809,23.974,14.481,13.183,21.486-4.716,3.06-10.855,3.566-15.63,6.452-2.527,1.527-2.445,4.079-2.36,6.718.106,3.3-.148,6.618-.33,9.911-.4,7.15-1.627,14.823-.126,21.882.495,2.329.636,5.353,1.468,7.558,1.118,2.962,5.621,1.874,8.156,1.815,2.507-.058,22.452,1.134,19.7,6.41ZM288.788,536.8c-.924-.573-.959-.351-.255.5.085-.167.171-.334.255-.5Zm-6.591,9.5a1.874,1.874,0,0,0,1.922.578,1.876,1.876,0,0,1-1.922-.578ZM559.43,384.628c-6.609-5.991-14.716-10.315-21.7-15.883-7.572-6.033-15.472-11.625-23.372-17.216-15.733-11.129-31.14-22.634-47.1-33.441-15.794-10.694-32.225-20.327-48.887-29.6-7.668-4.266-14.8-9.516-22.74-13.256-4.161-1.962-8.284-4-12.493-5.862-2.038-.9-3.225-1.238-4.761.6-1.09,1.3-1.843,2.884-2.805,4.281a82.156,82.156,0,0,1-9.284,11.686c-1.547,1.55-6.757,6.849-9.18,4.59-.967-.9-1.106-2.756-1.48-3.97-.776-2.522-1.669-5.023-2.54-7.514-1.774-5.075-3.826-10.045-5.784-15.051-4.1,2.061-8.353,3.75-11.915,6.713a112.37,112.37,0,0,0-9.608,9.083c-1.206,1.269-1.53,1.306-.887,2.851.295.708.763,1.012.369,1.851-.318.68-1.346.743-1.33,1.7.016.936,1.648,2.378,2.349,2.858,1.9,1.3,4.356,2.109,6.431,3.108,2.3,1.11,8.429,2.787,9.145,5.656.517,2.069-1.454,3.346-2.88,4.441-1.913,1.469-3.864,2.893-5.734,4.419a59.721,59.721,0,0,0-10,10.445c-2.672,3.566-4.476,7.646-7.025,11.261-.844,1.2-2.748,3.859-4.377,2.421-1.335-1.178-1.418-4.775-1.773-6.4a124.262,124.262,0,0,0-4.39-16.105c-4.927,8-8.426,16.473-12.172,25.061-3.9,8.939-8.055,17.757-11.842,26.746-.94,2.229-4.163,6.515-2.341,8.785.877,1.093,2.469,1.7,3.617,2.459,1.908,1.271,3.731,2.7,5.567,4.069,3.574,2.662,8.234,5.3,11.063,8.782,2.6,3.2-1,6.165-3.582,7.841-3.91,2.534-8.558,3.52-12.917,4.99-4.778,1.611-9.416,3.936-14.464,4.6.158-2.152.155-4.124,2.244-5.284,2.4-1.33,5.354-1.814,7.95-2.634,5.929-1.873,11.763-4.115,17.55-6.38a245.485,245.485,0,0,0-19.3-15.94c-6.348,14.241-8.573,29.824-14.862,44.038s-12.462,28.71-15.5,44.052l2.016-1.549c5.8,8.016,7.275,18.435,13.787,26.012,1.025-4.87,3.82-8.865,6.214-13.123,1.115-1.983,3.626-6.149,1.968-8.386-1.043-1.408-4-1.532-5.57-1.915a52.974,52.974,0,0,1-7.669-2.751c-1.744-.724-3.856-1.176-5.478-2.134-1.283-.756-2.537-2.607-.27-2.6,1.952,0,4.273,1.332,6.108,1.922,2.672.859,5.364,1.657,8.081,2.361,1.753.454,3.674.494,5.384,1.052,2.261.737,2.485,2.442,2.285,4.627-.442,4.81-2.635,8.908-5.1,12.964a29.682,29.682,0,0,0-3.255,6.515c-.483,1.548-.727,3.625-2.251,4.562-3.556,2.186-6.76-6.863-7.812-8.983-2.977-5.992-5.775-12.073-8.647-18.115-1.436,1.21-1.773,3.2-2.318,4.895-.606,1.88-1.265,3.745-1.9,5.617-.734,2.18-1.382,4.416-2.231,6.556-.553,1.393-1.618,2.923-1.423,4.48.234,1.862,2.134,3.479,3.237,4.884,1.2,1.529,2.291,3.144,3.417,4.727,2.574,3.62,5.239,7.182,7.693,10.886,2.469,3.723,4.512,7.7,6.929,11.455,2.307,3.581,4.838,7.018,7.308,10.487,2.357,3.31,4.145,6.834,6.334,10.226,2.561,3.966,5.6,7.648,8.408,11.44,0-.34,1.1-1,1.334-1.313.5-.664.108-1.093,1.071-1.263.934-.165,1,.984,1.991.038a2.1,2.1,0,0,0,.3-2.171c-.308-.728-.894-.49-.821-1.46.026-.339.6-.626.723-.933a11.47,11.47,0,0,0,.162-1.624c.467-1.988,2.471-3.259,3.694-1.237q.209-.7.416-1.4l-1.165.1c.284-1.7-.061-3.382.55-4.871.549-1.337,1.138-2.168.734-3.592-.434-1.531-1.513-3.613-2.2-5.3-.886-2.194-1.666-4.432-2.433-6.668-1.077-3.135-3.36-7.854-1.219-11,1.058-1.555,2.354-1.454,4.03-1.056,2.362.561,4.734,1.22,7.058,1.922,1.526.461,3.4,1.239,4.948.43,1.621-.848,2.332-3.416,2.975-4.962a65.092,65.092,0,0,1,3.19-7.007c1.067-1.9,1.792-4.071,3.211-5.719a9.609,9.609,0,0,0,2.573-4.474c.108-.6-.148-1.362.17-1.926.358-.634,1.142-.743,1.53-1.507.913-1.793.185-3.712,2.32-4.968.821-.483,3.966-1.361,1.269-2.146,1.2-3.154,2.644-6.2,4.073-9.255.715-1.524,1.432-3.048,2.109-4.59a19.332,19.332,0,0,1,.974-2.411c.328-.522.8-.7,1.1-1.129.718-1.027.5-1.651.8-2.83a11.134,11.134,0,0,1,2.067-3.348c1.986-2.844,2.71-6.189,3.7-9.463a28.448,28.448,0,0,0,1.385-4.559c.158-1.363-.26-1.63-1.06-2.919-1.926-3.1-3.757-6.257-5.414-9.508-1.4-2.738-2.523-5.59-3.857-8.354-1.141-2.363-2.6-4.618-3.3-7.172-.6-2.2-.5-4.623,1.246-6.3,2.323-2.227,5.737-.727,8.39-.014q5.06,1.357,10.116,2.725c1.638.443,6.08,2.72,7.543,1.173.6-.631.445-1.688.53-2.477a9.146,9.146,0,0,1,.965-3.149,22.7,22.7,0,0,0,1.664-3.523c.326-1.14.145-2.189.977-3.086.785-.848.916-.4.982-1.706.063-1.209-.2-1.95.421-3.162.561-1.1,1.417-2.038,1.9-3.187a9.381,9.381,0,0,0,.4-2.529c.379-2.491,3.116-5.036,2.636-7.569-.437-2.309-3.1-3.467-3.411-5.995-.778-6.389,6.717-2.1,9.02-.361.73.551,1.556,1.635,2.585,1.373.8-.2,1.02-1.375,1.753-1.609,2.027-.647,1.08,3.376,1.618,4.589,1.229,2.773,4.195,4.928,6.169,7.168,2.429,2.756,4.609,5.725,6.965,8.543.748.893,3.037,4.514,4.454,4.74,2.307.368-.764-3.363-1.143-3.944a50.615,50.615,0,0,1-3.912-8.542c-1.334-3.255-2.863-6.406-4.435-9.552-1.505-3.01-3.029-6.015-4.335-9.119-.823-1.955-2.812-5.135-2.425-7.336.428-2.43,3.013-2.27,4.966-2.039,3.24.385,6.477.924,9.7,1.433,8.1,1.278,16.324,1.885,24.342,3.57,1.444.3,8.772,1.284,7.882,3.288-.673,1.514-6.578-.3-7.646-.449-3.926-.56-7.855-1.044-11.8-1.426-4.181-.4-8.35-.8-12.488-1.542-4.07-.729-8.09-2.134-12.234-2.374,2.192,7.232,6.458,13.908,9.435,20.848,1.469,3.426,3.035,6.793,4.6,10.177.726,1.57,1.522,4.773,3.442,5.274,2.155.563,4.23-2.5,5.373-3.917a69.971,69.971,0,0,0,5.9-8.918c1.008-1.741,9.576-17.874,11.372-16.756.665.414-11.815,21.461-13.164,23.4-2.018,2.911-5.023,7.979-8.645,9.07-.705.213-2.716-.058-2.827.826-.107.859,2.321,1.714,2.856,2.043,3.577,2.2,6.489,5.561,9.525,8.416a111.9,111.9,0,0,0,11.109,8.812c1.445,1.049,2.9,2.08,4.237,3.262,1.07.946,2.345,2.482,3.772,2.864,1.332.357,1.645-.273,2.3-1.352,1.255-2.061,2.554-4.1,3.824-6.148,4.981-8.04,10.381-15.476,17.319-21.969.847-.791,2.124-1.962,2.857-.564.96,1.829-1.018,2.464-2.1,3.2-3.571,2.413-6.455,6.752-9.011,10.154-2.967,3.951-5.636,8.092-8.272,12.267-1.261,2-4.792,5.175-1.5,6.758,3.524,1.694,8.07,1.751,11.817,2.919,4.477,1.4,8.717,3.438,13.2,4.837,3.839,1.2,7.76,1.961,11.634,2.991.969.257,3.057.688,3.422,1.839.423,1.338-.869,1.521-1.856,1.555-3.4.12-7.48-.929-10.722-1.757-2.609-.667-5.2-1.478-7.752-2.33-1.671-.558-2.959-1.7-3.914.167,2.826,1.239,5.386,2.669,8.269,3.718a13.937,13.937,0,0,1,2.5,1.737,25.242,25.242,0,0,0,4.26,1.615c2.987,1.159,5.77,2.748,8.827,3.743,3.235,1.055,6.591,1.689,9.844,2.686,2.524.773,4.5,2.271,7.211,2.386a39.021,39.021,0,0,1,4.326.1c1.3.2,2.384.965,3.652,1.155a15.573,15.573,0,0,0,3.122-.1c.41-.034.7.064,1.137.02.319-.032.689-.528,1.062-.586,1.278-.2,2.926.492,4.253.485,1.411-.007,2.831-.164,4.236-.288,2.644-.232,5.559-.394,7.854-1.828,2.159-1.35,4.346-.715,6.725-1.7,2.57-1.066,4.977-.187,7.495-1,1.04-.337,1.474.025,2.53-.043,1.287-.083,2.763-1.687,3.93-2.249,5.65-2.715,10.8-5.688,15.256-10.184,1.876-1.893,3.273-4.191,5.714-5.343,2.318-1.1,2.928-3.4,4.628-5.268,1.577-1.737,8.061-7.124,6.018-9.567-.684-.819-2.4-1.111-3.354-1.485-1.542-.6-3.052-1.3-4.579-1.938q-5.217-2.186-10.6-3.875c1.251,3.7,2.356,7.476,3.826,11.092.435,1.066,1.374,2.438,1.274,3.648-.124,1.487-1.5,1.9-2.229,3.042-1.17-3.065-2.261-6.164-3.47-9.212-1-2.517-2.5-5.353-2.32-8.144.438-6.885,7.853-2.372,11.258-.9,2.694,1.167,5.4,2.32,8.091,3.485,1.543.667,3.813,2.024,5.526,1.233,2.174-1,2.115-4.13,1.566-6.048-.893-3.119-.515-4.067,2.09-6.04-4.348-3.742-8.774-7.4-13.026-11.25ZM387.454,253.835c-.585,1.528-3.062,5.7-1.97,7.07.6.751,3.153,1.367,4.047,1.764l5.122,2.274q-3.6-5.553-7.2-11.108Zm-36.708,9.709c1.912,4.981,3.62,10.026,5.213,15.116.565,1.8,1.587,9.069,4.295,8.686,1.438-.2,2.887-2.122,3.89-3.053a53.3,53.3,0,0,0,4.636-4.89c3.09-3.692,6.413-7.373,8.615-11.691-8.409-3.54-17.661-3.855-26.649-4.168Zm-30.7,22.287.6-.609-.6.609Zm-2.585,4.945c-1.871,2.943-3.685,5.937-5.57,8.878,1.22-1.9,2.4-3.834,3.627-5.731,1.172-1.812,1.054-2.105,3.154-1.4-.959,2.464-1.387,4.945-3.846,6.361-2.859,1.647-5.431,2.237-6.233,5.955-.734,3.409,1.013,6.874,1.926,10.068,1.176,4.114,1.959,8.348,2.975,12.5,2.362-.993,3.278-3.83,4.3-5.948a47.268,47.268,0,0,1,5.255-8.391c4.342-5.584,10.039-9.911,15.487-14.343q-6.235-3.2-12.473-6.406c-2.561-1.321-6.513-4.827-8.6-1.546Zm-87.428,242.91c-4.992-8.315-9.736-16.806-15.042-24.927-2.568-3.929-5.42-7.663-8.232-11.419-2.319-3.1-4.358-6.714-7.136-9.409-2.99-2.9-5.65-6.172-8.446-9.264-1.3-1.441-2.347-3.093-3.754-4.438-1.582-1.511-3.374-2.793-4.994-4.265-3.255-2.956-6.135-6.319-9.474-9.181s-6.988-5.532-10.593-8.054c-2.786-1.95-6.5-5.191-10.063-5.193-3.791,0-3.29,4.51-3.349,7.28a92.9,92.9,0,0,0,1.179,13.633,94,94,0,0,0,2.57,13.757,256.354,256.354,0,0,0,8.353,25.85c1.673,4.157,3.819,8.084,5.644,12.17,1.213,2.718,2.072,6.2,4.767,7.876,1.83,1.134,4.33,1.243,6.409,1.612,2.69.478,5.388.909,8.076,1.4,4.974.905,10.017,1.337,14.987,2.253,5.227.964,10.346,1.673,15.634,2.247,2.77.3,5.426.949,8.158,1.467,2.5.475,5.125.359,7.568,1.126-.748-1.509-1.394-3.073-2.262-4.519Zm38.46,9.746c-.972-.628-1.019-1.711-1.388-2.684a20.035,20.035,0,0,0-1.665-2.832c-1.108-1.935-1.2-3.811-2.683-5.514-3.366-3.862-4.52-9.458-7.09-13.84-6.226-10.62-12.376-21.265-18.352-32.036-1.934,3.916-3.809,7.868-5.825,11.743-1.633,3.138-4.555,6.7-5.242,10.209-.578,2.955,2.935,6.611,4.289,9.042a107.715,107.715,0,0,1,5.615,11.057c1.313,3.165,2.013,6.841,4.043,9.661s5.356,2.354,8.425,2.746c4.008.513,7.952,1.439,11.92,2.178a33.416,33.416,0,0,1,5.258,1.332c.85.3,4.161,1.245,2.7-1.062Zm22.048-225.881c-9.584.612-16.921-3.509-25.02-7.946-4.111-2.251-7.89-4.97-11.829-7.5-3.905-2.5-7.952-4.9-11.641-7.721-1.621-1.24-2.9-2.826-4.455-4.136-1.468-1.236-3.23-2.062-4.6-3.418a51.479,51.479,0,0,1-7.57-8.906c-4.8-7.754-10.652-14.808-16.269-21.964-3.142-4-5.724-8.394-8.481-12.659-2.86-4.425-5.768-8.822-8.312-13.44-17.437,37.077-35.219,73.988-52.8,111q-13.476,28.373-26.93,56.752c-4.3,9.065-8.865,17.986-13.392,26.936-4.419,8.736-8.2,17.894-12.25,26.813-2.222,4.9-5.158,9.4-7.267,14.359a152.268,152.268,0,0,1-7.069,14.3c-2.542,4.574-4.623,9.375-7.18,13.923-2.5,4.452-3.883,9.487-6.739,13.747,8.25,1.7,16.54,3.191,24.731,5.157,4.066.977,8.2,1.614,12.263,2.6,4,.974,7.814,2.629,11.892,3.279,8.435,1.342,16.889,2.777,25.354,3.906,4.247.567,8.528.694,12.786,1.132,4.418.456,8.725,1.529,13.092,2.295-.24-2.945-1.884-5.594-3.024-8.254-1.325-3.1-2.571-6.249-3.593-9.459-2.034-6.389-3.694-13.023-5.394-19.512-3.294-12.568-6.56-26.851-3.639-39.824.974-4.325,3.309-8.94,7.517-10.893,5.481-2.544,10.752,1.514,15.219,4.368a126.6,126.6,0,0,1,15.937,12.543,69.211,69.211,0,0,1,6.9,6.833c2.036,2.408,4.48,4.081,6.607,6.346a213.734,213.734,0,0,1,26.746,35.618c1.37-3.508,2.454-7.012,4.482-10.222,1.548-2.452,3.263-4.785,5.008-7.1,1.175-1.556,2.919-3.568,1.981-5.593-.971-2.093-4.094-3.091-3.493-5.847q1.892,1.107,3.786,2.213c3.708-11.829,8.185-23.366,11.889-35.19,1.833-5.852,3.591-11.732,5.543-17.546,1.81-5.394,4.5-10.4,6.838-15.568,4.82-10.633,6.42-22.31,10.513-33.2.83-2.2,2.07-4.229,2.883-6.431.363-.986.672-1.714.182-2.641-.3-.564-1.344-.865-1.469-1.505-.3-1.559,2.435-.919,3.334-1.758.723-.675,1.016-2.083,1.4-2.979.7-1.632,1.362-3.279,2.043-4.919,5.391-12.984,11.185-25.8,17.225-38.5-1.243.171-2.478.422-3.732.5Zm-92.482-123.5c.559-.842.53-2.13,1.282-2.852s1.629-.535,2.3-1.363a16.808,16.808,0,0,0,1.3-2.387,8.277,8.277,0,0,1,.007-1.278c.228-.746.919-1.094,1.293-1.722,1.613-2.708-1.1-3.537-1.71-6.05-.356-1.463-.191-2.389-1.367-3.5a22.065,22.065,0,0,0-3.405-2.446,4.585,4.585,0,0,0-1.585-.578c-.355-.112-.536.1-.97-.069-.831-.333-1.619-1.488-2.216-2.106-1.758-1.822-2.742-3.208-2.126-5.794.3-1.251.8-3.455,2.436-3.177.9.152,2.045,1.768,2.68,2.376a31.074,31.074,0,0,0,3.846,3.535c.988.665,2.2.591,3.145,1.174,1.188.734,1.057,1.937,1.617,3.085,1.162,2.382,4.4,4.289,6.406,5.925a36.6,36.6,0,0,0,6.479,4.486c2.109,1.07,5.74,2.617,8.153,1.853,4.122-1.307-2.652-10.832-4.108-12.637-2.959-3.668-9.909-6.641-8.949-12.187.434-2.509,1.946-4.226,4.539-3.128,3.218,1.363,6.058,3.951,9.215,5.535,3.3,1.655,6.713,3.074,10.1,4.534,1.855.8,3.723,1.573,5.567,2.4,1.415.631,2.909,1.555,4.511,1.033a255.325,255.325,0,0,0-15.7-20.288,71.4,71.4,0,0,0-8.862-8.066c-2.341-1.884-4.99-3.843-4.83-7.178.121-2.531,1.54-5.915,4.541-5.335,1.927.372,3.577,2.048,5.388,2.773a29.613,29.613,0,0,1,4.2,2.043c1.6.935,3.663,1.072,5.425,1.529,1.933.5,3.841,1.11,5.793,1.534,4.167.907,8.39.657,12.622.657-3.538-6.091-9.145-10.488-14.47-14.928-3-2.5-5.782-5.255-8.806-7.729-2.987-2.442-6.225-4.558-9.2-7.019l-.668,2.584c-1.4-.668-1.764-2.483-3.134-3.262-1.683-.958-3.749-.558-5.53-.139a24.01,24.01,0,0,0-10.3,5.4c-6.159,5.358-10.651,12.295-14.224,19.572a115.244,115.244,0,0,0-5.039,11.927,19.283,19.283,0,0,0-1.4,6.161c-.03,2.333,1.011,4.332,1.588,6.539,1.1,4.209,1.359,8.692,1.939,13,.617,4.571.956,9.15,1.343,13.743.205,2.435.509,4.851.893,7.264a8.677,8.677,0,0,0,.457,2.44c.317.611,1.143.849,1.431,1.452.331.69.073.66-.142,1.563a5.644,5.644,0,0,0,.214,3.169c.724,2.514,1.479,5.014,2.165,7.541a9.909,9.909,0,0,0,5.064-4.8c.405-1.1.022-1.751-.137-2.833a5.388,5.388,0,0,1,.943-3.958ZM250.19,88.266a1.34,1.34,0,0,1-.111.132,1.34,1.34,0,0,0,.111-.132Zm19.221-42.819a.529.529,0,0,1,.126-.1.529.529,0,0,0-.126.1Zm.085,1.718c.165-.459-.392-1.2-.15-1.629-.076.136.191,1.629.15,1.629ZM155.379,296.279l-.824,1.224.824-1.224Zm-3.947.162c.115-.215.231-.433.355-.65-.124.217-.24.435-.355.65Zm-2.371,3.944-.145-.256q.168.588.55-.1c-.134.121-.272.237-.405.358Zm-1.761,2.7c.032-.173.058-.351.077-.532-.019.181-.045.359-.077.532Zm515.878,4.329c.968-.471,2.338-1.9,3.479-1.906.5,0,1.571.329.973.923-.285.284,1.971,0,2-.007,1.34-.334,2.662-.843,3.967-1.292,2.309-.794,4.6-1.642,6.9-2.454,4.622-1.632,8.947-3.85,13.449-5.764,8.7-3.7,16.074-8.813,23.457-14.658,15.144-11.991,24.772-29.518,33.682-46.29-9.058.8-18.457,1.185-27.227-1.645-9.125-2.944-16.415-8.169-24.179-13.56q-.754,2-1.511,3.992l-2.19-4.3q-20.01,44.627-40.019,89.255a33.765,33.765,0,0,0,7.216-2.29Zm87.956-45.6c-2.41,1.091-2.987,2.165-3,5.065.013-2.9.59-3.973,3-5.065ZM749.45,143.757a2.755,2.755,0,0,1,.024.391,2.755,2.755,0,0,0-.024-.391Zm9.349,20.506q-.462-1.689-.929-3.376c-.173,2.2-1.408,2.988,1.265,3.99l-.336-.614Zm-2.021,2.471q.359.572.243-.276l-.243.276Zm-12.137-30.15c-5.473-6.974-10.782-14.074-16.817-20.581-4.776-5.148-10.227-10.9-17.472-12.152.6,6.64,5.17,12.011,8.791,17.29a85.7,85.7,0,0,0,6.389,8.488c2.148,2.428,3.344,5.129,1.927,8.288-.849,1.893-2.67,4.58-5.031,4.258-1.4-.192-2.7-1.564-3.795-2.36-1.568-1.137-3.225-2.154-4.846-3.211-3.054-1.994-6.117-3.955-9.23-5.855-2.792-1.7-5.738-4.3-9.138-4.556a84.782,84.782,0,0,0,4.631,9.561,69.06,69.06,0,0,0,5.38,9.435c2.126,2.839,4.824,4.677,7.491,6.929,2.279,1.923,2.1,4.65.858,7.186-1.456,2.963-3.618,4.623-6.247,2.159a74.374,74.374,0,0,0-8.759-7.187,44.849,44.849,0,0,0-8.292-4.292c-1.2-.516-3.636-2.2-5-1.483-1.876.988-.262,5.814.11,7.381a41.456,41.456,0,0,0,4.065,10.514c3.119,5.627,6.434,11.467,11.776,15.22,4.356,3.059,14.482,6.305,11.159,13.175-1.452,3-3.085,5.935-4.621,8.9-.953,1.838-4.293,5.9-3.082,8.1.814,1.48,3.56,2.508,4.958,3.348,1.9,1.141,3.813,2.259,5.755,3.327a94.722,94.722,0,0,0,11.025,5.271c7.712,3.02,16.192,3.392,23.817,6.649q-.676-.277-1.367-.521c1.328-.23,1.865-2.317,2.332-3.369a10.387,10.387,0,0,0,.822-1.749c.126-.63-.314-1.071-.275-1.43.087-.795.485-.642.781-1.164.512-.9.287-.751.427-1.736a17.647,17.647,0,0,1,.614-1.88,8.335,8.335,0,0,0-.316-3.546c3.26.271-1.107-3.562-.71-4.7.377-1.076,1.617-1.286,1.793-2.6.187-1.393,0-2.9.193-4.345a13.432,13.432,0,0,0,.2-4.453c-.271-1.3-1.018-2.2-.088-3.426.57-.754,1.664-.964,2.182-1.788a2.144,2.144,0,0,0-1.2-3.172,3.151,3.151,0,0,0,1.806-2.979c-.088-1.247-.688-1.312-1.389-2.176-2.225-2.745,2.431-2.781,1.8-5.677-.3-1.374-1.55-2.452-2.015-3.781a17.658,17.658,0,0,1-.78-4.685c-.055-1.161.565-1.9.65-2.9.094-1.125-.718-1.526-.9-2.517-.2-1.109.742-2.254.492-3.376s-1.372-1.615-1.7-2.795c-.381-1.353.3-2.3.255-3.548-.072-1.854-.862-.76-1.825-1.524-.632-.5-.289-1.059-.436-1.743a3.982,3.982,0,0,0-.964-1.913,17.266,17.266,0,0,1-2.1-2.838c-.614-1.271-.784-2.65-1.441-3.884-.925-1.738-.767-2.293.1-4.018.5,1.165,1.63,1.967,1.986,3.209-.678-2.367-3.234-4.873-4.726-6.776Zm23.5,58.828c.417-.367-.237-.5-.419-.189l.419.189ZM640.05,112.531a.469.469,0,0,1-.122-.089.469.469,0,0,0,.122.089Zm9.1-110.964a.666.666,0,0,1,.125.223.666.666,0,0,0-.125-.223Zm-.3-.189a.767.767,0,0,1,.208.11.767.767,0,0,0-.208-.11Zm-1.006-.22c.284.074.575.107.858.176a7.443,7.443,0,0,1-.858-.176Zm20.7,108.663a3.537,3.537,0,0,0-1.6.665,3.537,3.537,0,0,1,1.6-.665ZM465.023,128.6c-.359-6.615-.266-13.5-2.7-19.771-.756-1.953-1.62-4.946-3.811-5.724-3.038-1.077-7.692.321-10.853.517a74.636,74.636,0,0,1-19.47-1.629c-3.43-.695-6.617-2.22-9.925-3.317a61.525,61.525,0,0,1-9.729-3.986,26.854,26.854,0,0,1-6.593,10.185c-2.535,2.536-6.137,4.683-3.771,8.555,2.121,3.473,3.133,7.172,4.829,10.835,1.909,4.126,4.931,7.644,7.665,11.232a11.5,11.5,0,0,0,.39-3.518c1.888.411,4.8,2.783,5.759.124.345-.963-.33-2.964,1.075-3.145,2.114-.273,2.244,3.605,2.023,4.778-.507,2.689-2.223,4.022-4.58,5.128,7.208,3.917,13.389,9.3,20.809,12.94,3.7,1.815,7.937,2.494,11.976,3.207a13.074,13.074,0,0,0,7.63-.729c8.91-3.986,9.722-17.339,9.271-25.682ZM.979,531.714c2.194-3.23,2.6-7.213,3.22-10.965A57.4,57.4,0,0,1,7.522,508.32a97.794,97.794,0,0,1,5.178-10.7c.546-.975,1.208-2.29,2.483-2.389,1.427-.11,2.065,1.31,3.006,2.083,1.327,1.091,3.1,1.364,4.691,1.909,1.966.673,3.87,1.518,5.848,2.164,3.766,1.231,7.908,1.351,11.786,2.207,1.823.4,3.652.782,5.478,1.176,1.222.263,3.31,1.242,4.555,1.036,2.63-.435,4.539-6.6,5.44-8.768,1.471-3.542,3.692-6.789,5.024-10.353,1.391-3.718,2.611-7.387,4.3-11,1.76-3.766,3.61-7.5,5.271-11.313a28.688,28.688,0,0,1,1.955-4.4c.946-1.441,2.158-1.713,2.551-3.475.127-.565.115-1.543.529-2,.723-.79.978-.053,1.671-.3.722-.26.586.013.841-.684.046-.126-.353-.468-.325-.667.048-.346.274-.655.338-.984.287-1.476-.123-2.516.526-4.014.823-1.9,1.475-3.867,2.191-5.81,2.855-7.758,7.046-14.847,10.475-22.266a24.7,24.7,0,0,0,1.448-2.5c.275-.833.061-1.829.468-2.627.451-.883,1.185-.839,1.769-1.48a3.307,3.307,0,0,0,.709-1.781c.783-3.508,2.792-6.4,3.737-9.874a22,22,0,0,1,2.606-5.157c1.164-2.048,1.927-4.315,2.9-6.458.905-2,1.818-4.033,2.842-5.977.942-1.789,1.52-2.045,2.9-.4a25.814,25.814,0,0,0,2.992-4.642c.625-1.495,1.634-1.56,3.07-2.5-.917.6-1.541,1.4-2.49.391-.43,1.734-2.574.1-2.21-1.287.4-1.533,2.451-1.809,3.713-2.248-.619-1.621-1.621-.178-1.6-2.005.022-1.519,1.515-3.3,2.19-4.577,1.862-3.516,3.306-7.277,4.88-10.927,1.581-3.666,3.01-7.417,4.8-10.988a40.837,40.837,0,0,1,2.411-4.41,6.116,6.116,0,0,1,1.434-1.687c.37-.258,1.424-.347,1.633-.742.42-.794-.49-2.251-.363-3.247a17.407,17.407,0,0,1,1.666-4.687c1.67-3.544,3.279-7.157,5.031-10.66a112.469,112.469,0,0,0,4.875-10.2,52.4,52.4,0,0,1,2.517-5.145c.7-1.368,1.1-2.859,2.3-3.9-.105.736-.1,1.482-.159,2.222.069-.836-.156-1.94.357-2.664.613-.865,1.828-.67,2.545-1.432a3.284,3.284,0,0,1-2.287.962c1.678-4.481,2.963-9.443,6.012-13.237a6.219,6.219,0,0,1,1.462-1.577c.333-.176,1.543-.083,1.7-.254.98-1.09-.614-3.064-.292-4.37.342-1.383,1.68-2.633,2.168-4.063A17.694,17.694,0,0,1,161.819,270a14.808,14.808,0,0,0,1.723-3.983c.914-2.45,1.859-4.894,2.887-7.3,1.941-4.538,4.511-8.687,6.624-13.126.986-2.071,1.471-4.431,2.633-6.408.894-1.522,2.316-2.623,3.012-4.272.85-2.017,1.257-4.162,2.175-6.179.645-1.417,1.339-2.795,1.922-4.237.787-1.947,2.257-6.357,5.166-4.765-1.044-3.5-2.226-6.988-3.129-10.523-.239-.937-.255-2.149-.936-2.9-.714-.785-1.139-.648-1.636-1.646-1.335-2.677-.617-7.091-.838-9.98-.272-3.579-.9-7.119-.979-10.714s-.062-7.1-.3-10.681a57.475,57.475,0,0,1-.1-9.868c.325-3.093-1.989-5.005-2.606-7.97a28.853,28.853,0,0,1,.2-9.859A73.763,73.763,0,0,1,192.02,112C197.617,104.849,208,95.66,217.774,100c1.343.6,2,1.229,3.329.275,1.06-.763,1.138-1.985,2.661-2.062,1.481-.075,3.011,1.292,4.2,2.012,1.652,1,3.368,1.891,5.059,2.82,3.093,1.7,5.845,3.623,8.037-.218.593-1.038,1.073-3.472,2.249-3.985.958-.417,1.407.528,2.047-.356l.244.294c-.495-.6.047-1.2-.055-1.845l.132-.68a3.926,3.926,0,0,1-.663-.742c-.117-.982.765-2.28,1.193-3.1,1.4-2.669,2.311-5.545,3.709-8.207,1.667-3.173,2.923-6.371,4.352-9.644,1.481-3.4,3.6-6.5,5.177-9.864,3.246-6.955,6.215-14.047,9.539-20.964.687-1.432,4.4-11.715,6.886-10.559-.563-2.514,1.107-4.021,2.544-5.938a26.8,26.8,0,0,0,2.047-3.52c.562-1.035,1.458-1.77,2.032-2.769a11.309,11.309,0,0,0,.712-2.742,8.013,8.013,0,0,1,1.684-2.663c1.624-2.086,2.848-4.5,5-6.119,1.336,5.33-1.735,10.636-3.732,15.376-2.437,5.787-4.6,11.694-6.908,17.533-4.558,11.527-9.715,22.8-15.092,33.968-2.816,5.845-5.8,11.614-8.381,17.568a72.784,72.784,0,0,1-3.376,6.965c-1.413,2.5-2.106,5.262-3.3,7.85-.864,1.865-2.538,3.762-1.879,5.942.637,2.107,3.5,4.7,5.063,6.194,3.563,3.4,8.379,4.4,9.724,9.575,1.271,4.893.643,11.848-3.576,15.306-4.392,3.6-12.28,1.57-17.213.89,3.019,4.513,6.138,8.961,9.108,13.507,2.748,4.208,5.147,8.649,4.457,13.837-1.675,12.588-17.978,1.67-23.8-1.122,1.543,5.062,2.587,12.2-.852,16.814-2.5,3.353-7.706,3.043-11.272,2.108-2.727-.714-3.52-.462-5.146,2.024a42.294,42.294,0,0,1-4.718,5.632c-4.094,4.411-6.594,9.118-9.244,14.434-1.461,2.933-2.321,4.906-.792,8.092,1.367,2.849,2.977,5.683,4.61,8.388,3.113,5.159,7.232,9.629,10.784,14.478,7.2,9.831,13.449,20.247,21.7,29.307,8.143,8.943,18.6,15.632,28.488,22.494,5.154,3.575,10.094,7.375,15.88,9.9a87.849,87.849,0,0,0,9.036,3.265c1.454.455,2.93.856,4.377,1.333.82.27,2.133,1.013,3.01.617.636-.286,1.28-2.311,1.538-2.8a41.693,41.693,0,0,1,2.074-3.676c1.63-2.468,3.5-4.761,5.128-7.238,3.6-5.486,6.908-11.178,10.866-16.42a133.658,133.658,0,0,1,12.347-13.908c4.21-4.2,8.8-8.093,14.4-10.281,5.631-2.2,11.513-2.57,17.485-2.123,5.621.421,10.751,2.179,16.15,3.649,1.906.518,4.455,1.348,6.249.149a9.576,9.576,0,0,0,1.9-2.384c.644-.82,1.771-1.454,2.217-2.4.723-1.536-.625-3.494-.876-5.072a25.694,25.694,0,0,1,.667-9.536c2.925-12.966,7.019-25.518,9.017-38.71a77.993,77.993,0,0,0,1.123-9.317c.059-1.937-.889-3.831-.8-5.674s2.014-2.411,3.559-1.416c1.664,1.072,1.662,3.6,1.762,5.348.775,13.52-2.294,26.43-5.579,39.414-.8,3.153-1.547,6.316-2.373,9.462-.716,2.728-1.523,5.493-.44,8.225.977,2.462,2.616,4.7,3.749,7.1,1.2,2.538,2.172,5.686,4.021,7.838,1.731,2.015,3.428,2.452,2.647,5.546-.177.7-.657,1.335-.433,2.044.316,1.007,2.5,1.961,3.335,2.5,5.5,3.538,11.372,6.46,16.977,9.815,2.438,1.46,4.849,3.5,7.481,4.557a33.611,33.611,0,0,1,6.939,3.614c5.184,3.579,10.648,6.768,15.971,10.138q8.237,5.214,16.421,10.51c5.114,3.322,9.883,7.293,15.181,10.31s10.742,5.914,16.1,8.84a7.568,7.568,0,0,0,3.7,1.355c1.1,0,1.945-.4,3.036.015,2.554.973,4.962,3.844,7.075,5.535a183.559,183.559,0,0,0,15.952,10.92q3.93,2.519,7.618,5.371c2.108,1.634,4.044,3.59,6.363,4.933a35.988,35.988,0,0,1,6.667,4.439c2.209,2,4.47,3.915,6.81,5.758,2.452,1.93,4.944,3.809,7.26,5.9,2.117,1.914,3.913,4.155,6.066,6.028s4.512,3.4,6.392,5.564a64.677,64.677,0,0,1,5.224,7.691c0-.276,1.252-1.159,1.393-1.363.678-.974.475-2.122,1-3.164,1.811,1.838.355,6.284.227,8.494.272-4.7.1-9.416.719-14.092.614-4.607,1.532-9.167,1.629-13.828.1-4.714-.216-9.44-.361-14.151a35.6,35.6,0,0,0-.611-6.015,21.285,21.285,0,0,1-.638-2.511c-.081-1.13.295-1.242.731-2.238.679-1.55.059-1.734-.734-3-.928-1.483,0-1.958.435-3.4.565-1.868-1.124-2.3-1.12-3.983,0-.7.652-1.382.649-2.038-.008-1.4-.639-.626-1.1-1.481s.785-1.532,1.089-2.44a2.737,2.737,0,0,0-.141-2.313c-.107-.21-.375-.443-.452-.647a3.914,3.914,0,0,1-.15-.813c-.711-2.642-1.829-5.178-2.682-7.843-.771-2.413-.176-4.918-.232-7.384-.048-2.119-1.107-3.77-1.532-5.794-.469-2.231.934-3.134,1.824-4.958a8.82,8.82,0,0,0-.05-7.015q-.505,1.664-1.011,3.326a7.706,7.706,0,0,1-.626-2.731c.1-1.054.671-1.157,1-1.953.584-1.407-.079-.782-.631-2.052-.284-.652.059-1.526.013-2.216a17.65,17.65,0,0,0-.6-2.448c-.279-1.367-.015-2.385-.952-3.509a21.782,21.782,0,0,0-3.132-2.515c-1.88-1.543-3.66-3.245-5.478-4.863-2.54-2.262-5.987-4.1-5.837-7.844,3.84,1.41,6.628,4.656,9.663,7.243,3.382,2.882,7.258,5.1,10.694,7.918a184.14,184.14,0,0,0,23.431,16.09c4.057,2.384,8.176,4.655,12.28,6.956,3.717,2.083,7.23,4.633,11.258,6.1,3.659,1.334,8.262,2.966,12.1,1.457a6.216,6.216,0,0,0,3.644-3.237c.51-1.315.007-3.37,1.3-4.325.5-.369,1.472.014,1.651-.782.14-.626-1-1.311-1.094-1.934-.222-1.544,1.648-4.2,2.239-5.632a6.625,6.625,0,0,1,1.3-2.5c.254-.226.759-.239.932-.473.208-.283.024-.525.164-.786.42-.787.295-1.35,1.013-2.111a20.489,20.489,0,0,1,2.741-2.048,5.419,5.419,0,0,0-.834.462c.084-1.291.778-2.412.964-3.675.2-1.325-.227-2.475.426-3.714.665-1.26,1.967-2.133,2.69-3.376a41.011,41.011,0,0,0,1.63-4.116c1.132-2.548,2.988-4.139,3.482-6.925a3.762,3.762,0,0,1,.45-1.723c.329-.466.984-.378,1.257-.938.4-.826-.139-1.451.618-2.292,1.43-1.588,3.788-1.088,2.58-3.826-1.224-2.777-.441-2.86,1.262-4.97,1.734-2.148,2.2-5.367,2.975-7.937a6.165,6.165,0,0,1,1.247-2.828c1.237-1.208,1.6-.449,1.009-2.284,2.262.114,2.4-4.113,2.672-5.735a6.452,6.452,0,0,1,1.191-3.305,2.725,2.725,0,0,1,1.735-.48,7.127,7.127,0,0,0,1.479-2.664c.095-.58-.463-.975-.366-1.669a4.223,4.223,0,0,1,1.292-1.9c1.786-1.878,4.723-5.872,3.642-8.681-4.608,4.753-9.017,9.695-13.622,14.452-3.652,3.774-7.669,7.153-12.77,8.73-5.778,1.785-12.09,2.053-18.1,1.855-3.151-.1-6.269-.764-9.428-.6a34.94,34.94,0,0,1-9.574-.713,34.008,34.008,0,0,0-4.165-1.014c-1.088-.1-2.15.094-3.237-.1-2.755-.483-5.238-2.23-7.683-3.491a73.583,73.583,0,0,1-14.866-9.759c-8.688-7.574-14.342-17.764-19.764-27.765-6.116-11.281-11.528-22.762-18.312-33.688a183.933,183.933,0,0,0-10.492-15.919,60.459,60.459,0,0,0-12.716-11.85c-4.467-3.218-9.033-6.98-14.552-8.128-2.992-.624-6.07-.838-9.084-1.35-3.23-.548-6.267-.926-9.475-.028-2.844.795-5.622,1.825-8.464,2.632-3.1.879-6.312,1.3-9.214,2.77-2.592,1.311-4.9,3.123-7.417,4.56-2.255,1.285-5.635,1.929-6.833,4.435-1.211,2.533-1.038,5.631-2.014,8.279a38.53,38.53,0,0,1-4.511,8.506c-3.06,4.442-7.055,8.308-12.642,8.954-6.669.771-13.347-1.743-19.416-4.211-6.269-2.548-11.269-7.25-17.364-10.111a63.026,63.026,0,0,0-.045,6.606,57.411,57.411,0,0,0,1.491,7.183,81.853,81.853,0,0,0,4.124,13.749,66.366,66.366,0,0,0,7.088,11.772c2.56,3.632,4.966,7.469,8.047,10.694,5.467,5.723,13.26,9.142,21.018,10.318,7.968,1.208,16.979.94,23.239-4.657,6.043-5.4,10.756-12.4,12.146-20.48,1.618-9.4,1.251-19.068.645-28.548a142.156,142.156,0,0,0-1.541-14.352c-.687-4.117-2.6-8.5-1.1-12.61.343-.948.5-1.862,1.441-1.915,1.646-.091,3.031,2.374,3.691,3.5,2.207,3.768,2.8,8.008,3.574,12.235a131.355,131.355,0,0,1,1.667,31.182c-.3,5.118-.488,10.316-1.9,15.277a73.987,73.987,0,0,1-5.952,14.278c.985-.2,1.533.368,1.242,1.338q-.636-.639-1.273-1.279c-4.867,6.255-10.61,13.769-18.446,16.357-4.6,1.519-9.036,2.766-13.935,2.626a39.313,39.313,0,0,1-13.749-3.263c-4.021-1.631-8.174-3.044-11.522-5.9-3.418-2.914-6.212-6.788-8.928-10.34-5.88-7.692-10.832-16.077-13.728-25.361a99.214,99.214,0,0,1-2.79-13.93,46.761,46.761,0,0,1-.759-7.038c-.017-1.922.474-3.8.46-5.712-.025-3.632-3.545-4.918-6.709-5.379-4.073-.594-6.139,3.013-8.245,5.883-2.808,3.827-5.505,7.7-8.032,11.721-1.117,1.778-1.752,4.106-2.939,5.762-.825,1.15-2.248,1.722-3.208,2.908a98.158,98.158,0,0,0-8.35,11.5c-2.261,3.836-5.559,7.273-8.458,10.66-3.2,3.74-6.714,7.2-9.922,10.933-2.523,2.938-5.882,4.645-8.435,7.506-2.585,2.9-6.814,4.683-9.956,7.008q-2.725,2.015-5.3,4.221c-1.7,1.455-3.092,3.344-4.87,4.677-6.545,4.9-13.089,9.364-21.631,9.668-1.852.066-3.436-.562-5.2-.663-1.91-.109-3.715.827-5.74.655a68.821,68.821,0,0,1-13.571-2.7c-8.737-2.615-17.963-5.791-25.4-11.2-3.749-2.725-6.761-6.144-9.879-9.537-1.651-1.8-5.523-6.028-2.728-8.61,2.364-2.183,6.673,3.917,8.16,5.319a36.009,36.009,0,0,0,11.375,6.893c4.184,1.7,8.529,2.957,12.785,4.458,4.462,1.573,8.8,3.358,13.532,3.931,2.426.293,4.866.447,7.3.7,2.485.258,4.992.949,7.488.582,4.539-.667,9.4-1.21,13.452-3.49,7.884-4.436,13.879-12.007,21.083-17.424,3.623-2.724,7.532-5.018,10.943-8.027a100.037,100.037,0,0,0,9.553-10.332q10.056-11.764,19.753-23.823c2.87-3.573,6.093-7.046,8.68-10.829a7.152,7.152,0,0,0,1.531-5.112c-.346-2.241-1.8-4.113-2.078-6.4-.523-4.346,1.736-8.6,3.51-12.422.688-1.484,1.671-3.168.489-4.647s-3.105-2.625-4.414-4.056c-3.147-3.44-6.222-6.949-9.114-10.607a43.313,43.313,0,0,1-3.7-5.044,32.848,32.848,0,0,1-2.534-7.143,71.492,71.492,0,0,1-2.75-28.856c1.007-8.949,1.675-19.049,5.677-27.238,3.829-7.835,10-14.045,16.588-19.6,3.8-3.2,7.65-6.344,11.487-9.5,3.729-3.064,7.774-4.973,11.85-7.451,8.091-4.918,16.955-5.7,26.237-4.933,4.82.4,9.663.232,14.329,1.717a53.58,53.58,0,0,1,12.416,6.3c7.8,5,15.48,10.218,23.367,15.1,15.957,9.868,36.006,18.053,54.917,13.283a121.755,121.755,0,0,0,27.156-10.649c8.541-4.556,16.49-9.779,25.559-13.311,4.66-1.814,9.4-3.419,14.032-5.311,2-.816,4.035-2,6.2-2.3.789-.11,1.852.188,2.581-.179.649-.327.423-.719.934-1.051,1.067-.7,2.936-.575,4.251-1.065,1.22-.455,3.433-2.085,4.756-1.917.712.09.978.794,1.758.767.717-.025,1.383-.846,1.983-1.162C634.187,1.2,636.662.946,638.858.631c4.256-.61,8.033-1.174,12.143.324,3.856,1.405,7.857,2.605,11.779,3.883a16.8,16.8,0,0,1,5.007,2.492,17.632,17.632,0,0,0,3.5,1.348c3.464,1.436,7.193,4.6,8.75,7.977.795,1.726,1.909,1.3,2.925,2.558,1.054,1.3.637,3.168,1.929,4.507,1.07,1.11,1.446,2.246,2.554,3.375a17.738,17.738,0,0,1,3.072,5.342A100.98,100.98,0,0,1,698.588,60.8a69.37,69.37,0,0,1,.286,14.448c-.362,4.549-.177,9.446-1.7,13.8q-.225-.507-.433-1.021c-.31.415-1.02.876-1.028,1.452-.01.844.547,1.307,1.162.522a49.531,49.531,0,0,1-4.6,10.942,4.481,4.481,0,0,1-2.84,2.412c-1.393.543-1.033.778-1.924,2.053-.74,1.06-1.186,1.213-2.44.744-.547-.2-.571-.715-1.2-.59-.456.09-1.1,1.152-1.406,1.454a4.219,4.219,0,0,1-1.93,1.343c-.976.239-1.513-.5-2.224-.416-1.484.178-2.195,1.616-3.781,1.833a13.391,13.391,0,0,0-3.87.882,17.576,17.576,0,0,1-6.784,1.112,21.629,21.629,0,0,1-5.73-.687,15.983,15.983,0,0,0-2.731-.879,25.951,25.951,0,0,1-2.61-.105c-1.815-.412-3.4-1.165-5.291-1.486a39.61,39.61,0,0,1-5.049-1.363c-1-.31-2.428-1.043-3.037.178-.725,1.457,1.207,3.969,1.731,5.2l-1.025-.06c1.429.536,1.347.518,2.032,1.963.694,1.464,1.646,2.8,2.2,4.333,1.26,3.518,1.673,7.44,2.449,11.09,1.68,7.9,3.424,15.521,2.973,23.649-.392,7.06-1.024,14.618-6.067,20.038a18.146,18.146,0,0,0-2.953,3.551c-.735,1.368-.995,2.8-1.978,4.055a15.055,15.055,0,0,1-8.009,5.118c-3.388.785-7.1,1.575-10.577,1.1-3.377-.459-6.842-.94-10.188-1.593-7.294-1.423-12.915-7.035-17.625-12.432-2.452-2.81-5.034-5.566-7.348-8.491-.646-.815-1.36-2.4-2.4-2.785-1.293-.479-2.286.581-3.462,1.044a37.3,37.3,0,0,1-5.9,1.431c-1.413.294-2.6.049-2.522,1.684.069,1.492,1.955,3.922,2.635,5.272.921,1.827,1.827,3.66,2.734,5.493,3.566,7.21,7.289,14.295,11.365,21.231,3.847,6.549,8.1,12.72,14.079,17.5a83.885,83.885,0,0,0,19.175,11.294c3.727,1.589,7.656,2.072,11.655,2.5,1.753.188,3.513.32,5.265.516a20.975,20.975,0,0,0,2.293.27c.766,0,1.567-.453,2.26-.432,1.107.034,1.868.791,3.109.779,1.755-.017,3.542-.226,5.3-.295a84.327,84.327,0,0,0,11.958-.97c7.633-1.4,12.569-5.932,18.054-11.05a94.041,94.041,0,0,0,6.968-6.792c.608-.7,1.011-1.042.716-1.914-.131-.388-.787-.764-1.047-1.089a11.825,11.825,0,0,1-1.923-3.375c-.615-1.9.921-6.126,3.571-5.306,1.8.556,2.025,3.4,3.772,4.081,1.555.607,1.917-.6,2.229-1.824.406-1.583.505-2.757,1.723-4.013,1.125-1.159,2.546-1.622,2.572-3.473.009-.685-.335-1.323-.272-2.019.064-.723.883-1.6.792-2.274-.191-1.424-3.106-2.2-4.162-2.894a21.356,21.356,0,0,1-4.15-3.67,52.7,52.7,0,0,1-7.143-10.935c-3.334-6.477-6.084-13.9-5.343-21.307a14.055,14.055,0,0,1,2.931-7.873c2.916-3.36,6.774-2.745,10.781-2.745-3.188-6.046-7.72-14.9-3.239-21.443,3.635-5.308,10.774-2.371,15.728-1.13-.982-4.908-2.359-9.914-1.447-14.946.587-3.242,2.09-7.274,5.377-8.649,3.71-1.552,8.326.728,11.405,2.75a39.159,39.159,0,0,1,9.486,9.432c1.267,1.7,4.078,6.993,6.172,3.271a28.517,28.517,0,0,0,1.306-4.04,23.755,23.755,0,0,1,3.517-6.09c.963-1.3.658-2.695,1.454-4.117.478-.856,1.232-1.532,1.7-2.4a19.581,19.581,0,0,0,1.147-3.513c.645-2.072,1.91-3.661,2.965-5.516,1.228-2.157,1.132-4.574,2-6.851,2.049-5.4,4.967-10.555,7.353-15.812,2.006-4.42,4.075-8.821,8.243-11.609,1.071,3.15.868,5.055-.166,8.21-1.024,3.127-2.064,6.251-3.232,9.328-2.229,5.867-4.942,11.523-7.517,17.241-2.6,5.764-4.757,11.7-7.31,17.483-1.241,2.81-2.522,5.6-3.76,8.415-.881,2-3.313,5.431-2.042,7.556a20.862,20.862,0,0,0,2.17,2.312c.93,1.108,1.681,2.335,2.5,3.526,1.626,2.373,3.384,4.649,5.061,6.986,3.542,4.938,6.746,10.186,9.992,15.323,6.523,10.32,9.84,23.112,8.268,35.228-.828,6.382-.691,12.823-1.6,19.205a134.334,134.334,0,0,1-4.068,18.739c-1.626,5.571-5.026,10.882-4.675,16.795a57.184,57.184,0,0,1-.5,14.2,20.307,20.307,0,0,1-1.821,5.575,12.723,12.723,0,0,1-1.659,2.489c-.706.813-1.974,1.356-2.567,2.16-.379.514-.325,1.412-.491,2a12,12,0,0,1-1.209,2.676,44.983,44.983,0,0,1-5.173,7.683c-3.7,4.142-7.412,8.456-11.467,12.262-4.156,3.9-8.269,8.131-12.723,11.68a29.454,29.454,0,0,1-3.858,2.639,7.435,7.435,0,0,1-1.889.932c-.438.091-1.039-.1-1.426.033-1.031.34-.076.068-1.041.965a9.492,9.492,0,0,1-2.662,1.432c-5.727,2.854-10.835,6.473-16.921,8.559-6.659,2.282-13.439,4.834-20.421,5.908-3.069.473-10.446-1.2-11.057,3.229-2.137-2.122-4.552-.375-6.912.221,0-.6.439-2.2,0-2.675-.566-.611-3.059.022-3.62.429-1.173.853-1.571,2.793-2.109,4.054-.919,2.154-1.949,4.266-2.913,6.4-3.795,8.407-7.578,16.82-11.416,25.208-7.672,16.774-14.961,33.721-22.338,50.626-1.714,3.926-3.256,7.916-4.907,11.867-1.5,3.593-3.59,6.889-5.254,10.4-1.859,3.927-3.185,8.084-5,12.037q-2.782,6.076-5.54,12.165c-7.51,16.6-14.7,33.336-21.92,50.057-8.2,18.987-16.6,37.891-25.009,56.786,9,1.961,17.987,4.345,27.118,5.625,4.273.6,8.633.5,12.885,1.268a29.9,29.9,0,0,0,6.43.858c2.208-.065,4.382-.046,6.591.038a144.56,144.56,0,0,0,26.706-1.1c3.537-.532,7.426-1.586,10.767.241,2.922,1.6,3.81,4.582,4.339,7.668,5.828-1.377,10.8-4.969,16.5-6.694,5.434-1.644,11.6-2.133,17.035-.223a62.8,62.8,0,0,1,16.05,8.131c4.81,3.561,8.184,8.6,11.141,13.723,3.281,5.682,6.2,11.563,9.434,17.273,3.334,5.891,6.655,11.726,9.484,17.885a199.249,199.249,0,0,1,13.125,38.661c1.142,5.012,1.767,10.43-1.576,14.784-3.452,4.5-9.067,4.545-14.058,2.909A45.452,45.452,0,0,1,709.813,676a41.076,41.076,0,0,1-7.012-4.225c-4.6-3.885-9.685-7.269-14.352-11.117-8.809-7.261-18.608-12.8-25.83-21.837-3.647-4.562-8.3-8.934-10.885-14.237-.818-1.677-1.338-5.109,1.459-5.172,1.789-.041,3.44,2.178,4.529,3.344a127.207,127.207,0,0,0,16.368,14.754c2.771,2.087,5.753,3.858,8.665,5.733s5.487,4.09,8.272,6.134c2.747,2.015,5.687,3.614,8.342,5.775a87.429,87.429,0,0,0,8.331,6.035c5.848,3.72,11.794,7.547,18.474,9.6,0-4.553-2.537-8.334-3.988-12.462-1.524-4.332-2.776-8.524-4.654-12.754-2.014-4.539-4.032-9.076-6.172-13.556-2.018-4.219-4.572-8.15-6.581-12.372-1.826-3.837-4.535-7.008-6.133-10.873a54.5,54.5,0,0,0-3.275-5.6c-1.165-2.076-2.234-4.2-3.424-6.266-4.635-8.03-11.043-13.374-19.293-17.549a34.2,34.2,0,0,0-14.41-3.735c-5.749-.161-11.359,1.491-17.1,1.491.18,3.617-.285,7.839.854,11.32.4,1.233,1.137,1.865.927,3.118-.084.5-.749,1.017-.866,1.658a13.636,13.636,0,0,0,.156,2.922,233.276,233.276,0,0,1-.189,23.859c-.136,2.586-.139,6.13-2.775,7.606-1.124.629-1.311.3-2.391-.083-1.552-.552-2.545-.187-4.037.5-.972.446-1.937.874-2.917,1.293-.482.2-1.458.378-1.711.95-.128.291.129.963.009,1.144-.6.913-.282.5-1.627.366-1.776-.17-2.794.512-4.332,1.416-13.285,7.811-29.01,8.594-43.988,10.327-7.892.913-15.634,2.3-23.6,2.434a210.312,210.312,0,0,1-23.754-.547c-3.483-.337-6.954-.906-10.418-1.387-1.151-.16-5.755-2-4.388.989.59,1.286,2.355,2.08,3.351,3,1.12,1.037,1.906,2.405,3.163,3.3a53.761,53.761,0,0,1,4.811,3.4c5.388,4.757,10.311,9.855,15.966,14.335,2.315,1.834,5.026,3.69,6.527,6.31,1.485,2.589,1.51,5.958,1.2,8.845-.348,3.23-1.708,6.01-2.973,8.952-1.572,3.656-2.687,7.522-4.011,11.274-1.253,3.551-2.564,7.084-4.033,10.552-.945,2.232-1.786,5.319-3.57,7.068a2.831,2.831,0,0,1-3.07.965c-1.13-.494-1.193-1.823-2-2.557-1.155-1.054-1.863-.29-3.306-.008-2,.39-2.678-.548-4.411-1.15-1.223-.425-2.468.1-3.718-.466-1.132-.512-1.872-1.63-2.946-2.233-2.87-1.608-7.364-1.473-10.583-2.035-15.894-2.777-31.364-7.534-47.031-11.34-7.83-1.9-15.73-3.556-23.52-5.62-3.644-.965-7.263-2.023-10.863-3.14-1.92-.595-3.909-1.119-5.769-1.886-1.743-.718-3.218-1.674-5.113-1.937-3.592-.5-6.722-1.929-10.253-2.752-3.812-.889-7.356-2.564-11.093-3.69-3.793-1.141-7.7-1.879-11.5-2.981-3.885-1.126-7.658-2.6-11.545-3.719-7.525-2.159-15.345-3.3-22.662-6.19a28.187,28.187,0,0,0-4.558-1.725c-1.95-.4-3.889-.358-5.833-.9-3.913-1.093-7.666-2.6-11.614-3.6-7.467-1.9-14.99-3.655-22.435-5.618-7.06-1.862-14.311-2.715-21.465-4.249-7.78-1.667-15.57-3.354-23.315-5.175-3.547-.834-7.015-1.781-10.627-2.3-3.767-.544-7.151-2.169-10.914-2.7-14.969-2.1-29.826-4.469-44.542-7.938q-11.555-2.724-23.151-5.249c-3.512-.765-7.385-1.162-10.721-2.5-3.509-1.411-6.988-1.735-10.583-2.807-7.532-2.248-15.354-3.215-22.986-5.082-7.479-1.83-15.177-3.087-22.568-5.211-1.375-.4-3.653-1.773-5.093-1.331-1.114.341-1.342,1.593-2.214,2.187-2.375,1.616-4.9-1.524-6.435-3.037-2.194-2.156-4.4-2.962-6.914-4.482-3.09-1.868-6.058-5.138-8.468-7.825C62.7,590.583,49.023,584,38.208,573.689A194.778,194.778,0,0,1,22.74,556.8c-2.278-2.746-4.773-5.3-7.3-7.821-1.38-1.377-2.777-2.738-4.157-4.114-.855-.851-2.316-3.133-3.546-3.411-1.144-.257-2.392.787-3.651.523a4.31,4.31,0,0,1-2.611-1.994c-1.55-2.3-2.134-5.863-.5-8.27Z" transform="translate(0 0)" fill-rule="evenodd"/>
        <path id="react-path-242" d="M656.064,377.648c.1-.013-.028.005-.074.012.05-.057.145-.023.074-.012" transform="translate(-541.936 0)" fill-rule="evenodd"/>
        <path id="react-path-243" d="M480.528,534.325c.067-.005.038.046.017.02.034.055-.007,0-.017-.02" transform="translate(-190.942 0)" fill-rule="evenodd"/>
        <path id="react-path-244" d="M424.11,213.027q-1.268-.162-2.533-.321c1.254-1.01,1.5-.547,2.533.321" transform="translate(-75.53 0)" fill-rule="evenodd"/>
        <path id="react-path-245" d="M159.678,393.532l1.052.206c-.555.819-.522.419-1.052-.206" transform="translate(449.749 0)" fill-rule="evenodd"/>
        <path id="react-path-246" d="M284.57,338.706a12.744,12.744,0,0,1,2.467,2.826l-3.616-.7c5.542,9.9,9.137,20.72,12.517,31.5,5.2-4.887,10.179-9.986,15.1-15.147,1.6-1.681,4.44-3.552,5.426-5.69.448-.97.287-1.576,1.082-2.346.96-.93,2.938-1.312,4.137-1.825-11.983-4.368-24.692-6.015-37.118-8.625M328.216,349.1c-1.4-.425-3.226-1.667-4.73-1.465-1.735.234-1.914,2.164-2.862,3.43-3.137,4.187-7.36,7.858-11.036,11.568-3.707,3.74-7.284,7.667-11.209,11.18-1,.895-2.768,3.146-4.144,2.15-1.488-1.077-2.234-5.235-2.87-6.949-1.847-4.979-3.356-10.1-5.478-14.973-2.154-4.946-4.588-9.836-7.008-14.656-.647-1.287-1.931-3.105-.9-4.514,1.216-1.663,3.823-.472,5.366-.033,5.235,1.49,10.673,2.386,16.021,3.369a143.958,143.958,0,0,1,17.244,4.546c2.718.857,5.432,1.719,8.128,2.643,2.248.769,4.88,1.457,6.339,3.5a4.04,4.04,0,0,1-2.862.206" transform="translate(161.487 0)" fill-rule="evenodd"/>
        <path id="react-path-247" d="M387.026,327.531a111.826,111.826,0,0,0-22.861-5.26,106.257,106.257,0,0,0-11.837-.355c-2.811.017-6.862-.217-4.516-3.962,1.711-2.731,5.332-4.579,7.73-6.689a28.99,28.99,0,0,0,5.8-7.912c1.877-3.339,3.87-6.61,5.689-9.982,1.354-2.511,2.443-6.128,5.177-7.452-2.065,7.013-6.212,13.182-9.884,19.425-1.659,2.822-3.361,5.927-5.854,8.116-1.979,1.737-5.288,2.848-6.184,5.554a152.223,152.223,0,0,1,21.892,1.188c6.1.891,12.457,4.677,18.66,4.166-3.7-8.417-7.984-16.513-12.022-24.766a44.867,44.867,0,0,1-3.787-9.5c-.709-3.132,1.02-1.774,2.014.169q5.449,10.671,11.034,21.266c1.026,1.944,2,3.907,2.894,5.916.844,1.9,2.136,4.038,2.206,6.175.113,3.467-3.145,4.885-6.147,3.9" transform="translate(29.872 0)" fill-rule="evenodd"/>
        <path id="react-path-248" d="M277.167,410.256c-7.105-1.908-13.956-4.712-21.179-6.19-6.586-1.349-14.129-.651-20.331-3.418,2.093-3.921,6.364-4.808,9.53-7.775,3.436-3.221,6.331-7.229,9.263-10.9,3.051-3.82,5.518-7.969,8.383-11.912,1.566-2.155,4.616-6.7,7.675-6.544a1.893,1.893,0,0,1,1.467,3.163c-.88.984-2.829.791-3.971,1.4-3.464,1.846-5.3,6.619-7.507,9.688-2.886,4.005-6.076,7.817-9.245,11.6a55.07,55.07,0,0,1-11.744,10.261c13.571.174,26.733,3.982,39.522,8.205-2.226-6.612-3.281-13.545-4.258-20.43-.484-3.42-.941-6.843-1.255-10.283-.278-3.03-.916-6.472-.166-9.473,1.965,3.415,1.987,7.676,2.41,11.487.512,4.618,1,9.263,1.837,13.835.8,4.344,2.215,8.547,3.037,12.869.511,2.688-.123,5.316-3.468,4.418" transform="translate(253.707 0)" fill-rule="evenodd"/>
        <path id="react-path-249" d="M460.044,433.495c-1.147,6-.948,12.14-2.185,18.133-.6,2.923-1.271,5.832-1.964,8.734-.5,2.105-1.552,5.157-.725,7.306,1.427,3.712,8.139-3.812,9.6-4.953,4.981-3.881,9.884-7.862,14.8-11.825q-9.764-8.7-19.529-17.4m22.144,18.916c-6.562,5.782-14.155,10.368-20.478,16.386-1.954,1.86-5.654,6.436-8.161,3.148-2.332-3.057-.712-8.616.035-11.935a115.644,115.644,0,0,0,2.19-13.274c.241-2.28.388-4.569.563-6.855.171-2.234.744-4.525.715-6.761a3.97,3.97,0,0,0-.415-2.076c-.356-.552-1.166-.693-1.462-1.185-.933-1.548.666-1.718,1.887-1.7a3.052,3.052,0,0,1,3.086,1.547,20.73,20.73,0,0,0,4.024,3.673c3.985,3.056,7.98,6.109,11.8,9.374,2.011,1.721,9.653,6.631,6.218,9.659" transform="translate(-165.244 0)" fill-rule="evenodd"/>
        <path id="react-path-250" d="M433.593,359.113a69.012,69.012,0,0,1-4.643,24.352c8.764-1.8,16.633-6.279,24.225-10.828l-19.582-13.524m20.356,17.133c-3.972,2.279-7.894,4.919-12.082,6.78-3.629,1.611-7.582,2.179-11.295,3.53-2.065.753-6.492,2.933-5.337-1.271a34.934,34.934,0,0,1,2.029-4.415,38.184,38.184,0,0,0,2.174-6.712,73.4,73.4,0,0,0,1.5-14c.1-3.566-2.63-5.772-6.059-6.657-1.125-.29-3.657-1.26-1.263-2.493,1.3-.667,3.282.459,4.443,1.02,3.893,1.883,7.343,4.527,10.94,6.9,4.516,2.977,9.121,5.814,13.641,8.789,1.418.933,3.331,1.944,3.807,3.712.543,2.014-.818,3.855-2.5,4.818" transform="translate(-109.031 0)" fill-rule="evenodd"/>
        <path id="react-path-251" d="M258.184,438.825a128.818,128.818,0,0,1,19.637-4.483A122.822,122.822,0,0,0,262.35,417.7c-4.473,7.9-8.892,15.932-11.571,24.648a66.089,66.089,0,0,1,7.4-3.527m-7.935-.726c1.588-3.814,3.041-7.688,4.854-11.4a49.44,49.44,0,0,1,2.537-4.636c.559-.889,1.58-1.972,1.718-3.047.151-1.188-.442-1.312-.1-2.5.389-1.333,1.1-2.367,2.608-2.111,2.8.472,6.154,4.213,8.115,6.059a115.994,115.994,0,0,1,8.516,8.9c2.608,3.04,2.936,6.253-1,8.317-3.214,1.685-7.318,1.683-10.845,2.175-4.007.558-8.04,1.33-11.627,3.3-1.521.834-5.074,4.367-6.142,1.36-.666-1.876.649-4.694,1.364-6.413" transform="translate(240.993 0)" fill-rule="evenodd"/>
        <path id="react-path-252" d="M304.976,387.107c4.013,8.366,7.767,16.85,11.163,25.486,1.539,3.914,3.148,7.839,4.406,11.854.358,1.139,1.594,7.419-1.252,5.022a12.061,12.061,0,0,1-2.525-3.64c-.719-1.684-.085-3.312-.7-5.045-1.454-4.1-3.165-8.147-4.712-12.22q-2.346-6.172-4.728-12.33c-1.327-3.426-4.306-7.359-3.316-11.212a11.472,11.472,0,0,1,1.665,2.085" transform="translate(145.922 0)" fill-rule="evenodd"/>
        <path id="react-path-253" d="M548.077,633.75a2.538,2.538,0,0,1,.254-.13,2.538,2.538,0,0,0-.254.13M424.835,581.182c21.267,1.055,42.25,6.569,62.87,11.529,20.846,5.016,41.529,10.864,61.859,17.687,10.084,3.385,20.107,6.951,30.17,10.4,8.522,2.919,17.96,5.77,25.429,10.96,2.127,1.478,5.562,4.825,2.372,7.07-2,1.4-5.9,1.826-8.307,1.935-2.28.1-4.593-.513-6.905-.486-2.828.035-5.646.169-8.473-.03a115.862,115.862,0,0,1-15.677-2.489c-5.6-1.183-11.028-2.737-16.739-3.3a26.008,26.008,0,0,1-5.732-1.493c-2.21-.712-4.727-.562-6.9-1.388-.9-.342-1.494-1.093-2.4-1.4-1.1-.369-2.348,0-3.48-.071a59.228,59.228,0,0,1-8.176-1.6q-4.284-.887-8.563-1.8c-2.238-.478-4.462-.76-6.238-2.32,2.158-1.747,3.463-1.337,6.072-.622,2.924.8,5.919,1.394,8.873,2.076,5.992,1.383,11.952,2.915,17.972,4.174a321.685,321.685,0,0,0,36.937,5.605c3.063.277,6.145.485,9.189.93,2.942.43,5.193.81,8.151.2,2.389-.489,4.539-.6,1.9-2.786a29.179,29.179,0,0,0-2.631-1.657c-1.079-.719-1.118-1.35-1.79-2.351-1.2-1.789-3.543-1.309-5.5-1.4-2.238-.1-4.1-1.5-6.321-2.149-2.433-.712-4.457-.882-6.651-2.212-.955-.579-.9-.436-1.916-.432a7.3,7.3,0,0,1-3.406-.884c-2.279-1.1-3.949-2.14-6.483-2.049-1.431.051-1.942-.4-3.257-1.084a12.223,12.223,0,0,0-4.313-1.208,33.95,33.95,0,0,1-9.359-2.357c-1.35-.575-2.534-1.427-3.859-2.024-.191-.086-2.429-.423-2.466-.459-.221-.218.174-1.308-.722-1.394-.8-.076-1.12.817-2,.667-.377-.064-.311-.58-.607-.714a3.3,3.3,0,0,0-1.562-.379,13.314,13.314,0,0,1-6.486-1.69,18.1,18.1,0,0,0-3.241-1.119,10.319,10.319,0,0,1-2.627-1.442c-1.749-.942-2.049,1.051-3.894.649a9.819,9.819,0,0,1-2.388-1.364,7.51,7.51,0,0,0-3.091-.746c-2.273-.271-4.264-1.34-6.5-1.724-.934-.162-1.727-.558-2.641-.766-1.211-.276-2.461-.014-3.657-.433-1.982-.692-2.85-2.072-4.994-2.066-2.594.009-4.838-.891-7.284-1.787-2.636-.966-5.217-2.2-8.022-2.578-2.611-.351-5.221-.3-7.8-.911s-5.059-1.626-7.578-2.462a58.175,58.175,0,0,0-8.263-1.78c-2.4-.43-5-.535-7.349-1.1-1.04-.252-1.9-.877-2.924-1.137a18.54,18.54,0,0,1-3.437-.735c-1.043-.467-1.943-1.3-3.117-1.446-1.428-.176-2.715.14-4.184-.18a20.981,20.981,0,0,0-3.656-.3c-1.052-.059-1.69-.675-2.881-1.077-2.526-.855-5.388-.439-8-.919-2.585-.476-5.423-1.019-7.635-2.527,2.852-2,7.049-1.229,10.284-1.068" transform="translate(-253.226 0)" fill-rule="evenodd"/>
        <path id="react-path-254" d="M507.25,608.013c8.268-.556,16.429.871,24.613,1.785,6.7.747,13.9.852,19.968,4.129-7.582-.508-15.2-.737-22.737-1.787-6.842-.952-13.924-3.088-20.809-1.252,3.12,2.44,7.06,3.265,10.738,4.481,4.6,1.52,9.157,3.162,13.744,4.712-1.708,2.2-5.938-.275-8.006-.879-3.3-.962-6.533-2.046-9.722-3.323-2.755-1.1-5.745-1.91-8.347-3.351-2.957-1.638-3.184-4.264.558-4.515" transform="translate(-286.131 0)" fill-rule="evenodd"/>
        <path id="react-path-255" d="M360.081,521.3c1.057-2.325,4.162-3.8,5.761-5.838,2.3-2.932,4.593-5.835,7-8.683a52.576,52.576,0,0,0,5.979-8.464c1.828-3.3,3.018-6.926,4.984-10.151a6.949,6.949,0,0,1,1.1,3.979c-.21,1.322-1.26,2.013-1.985,3.042-1.828,2.588-2.757,5.811-4.582,8.481-3.922,5.739-8.676,10.851-13.058,16.232L397.1,524.11c-2.422-6.945-5.309-13.752-7.622-20.723-1.107-3.331-1.972-6.721-2.863-10.113-.7-2.671-1.8-5.914.244-8.293,1.23,4.242,2.07,8.571,3.579,12.733,1.487,4.1,3.266,8.107,4.9,12.155,1.595,3.952,8.394,17.091.032,17.848-3.512.318-7.433-.69-10.882-1.226-4.353-.677-8.7-1.422-13.073-1.976-1.654-.21-12.954.361-11.329-3.216" transform="translate(10.783 0)" fill-rule="evenodd"/>
        <path id="react-path-256" d="M293.519,546.934c2.8-3.209,5.713-6.326,8.583-9.478,1.926,2,1.275,2.716-.6,4.592-1.727,1.732-3.592,3.35-5.254,5.147s-1.4,2.672.371,4.193c1.958,1.679,4.081,3.179,6.078,4.814,4.1,3.36,8.194,6.743,12.372,10.016,3.391,2.657,7.4,6.841,11.627,8.063l3.225-16.881c2.034.484,2.424.978,2.077,3.117-.433,2.673-1.265,5.285-1.784,7.945-.441,2.263-1.384,4.776-1.009,7.1.16.991.852,1.928.874,2.933.024,1.174-.747,1.852-1.248,2.852a274.912,274.912,0,0,1-23.465-17.531c-3.586-2.928-7.072-6-10.74-8.824-1.13-.871-2.659-1.658-2.992-3.175-.357-1.624.863-3.717,1.883-4.884" transform="translate(146.472 0)" fill-rule="evenodd"/>
        <path id="react-path-257" d="M327.257,458.9c9.986,1.891,20.084,3.086,30.157,4.4-2.127,3.672-5.746,2.674-9.232,2.187-5.125-.715-10.317-1.3-15.475-1.7-.372,9.092-1.23,18.214-1.181,27.317.012,2.262.129,5.291,2.791,5.937,3.73.906,8.807-1.545,12.331-2.565-.745,1.218.362,2.415-.879,3.464-.787.664-2.186.753-3.144,1.062-2.977.959-6,2.347-9.212,1.653-4.741-1.025-4.062-6.516-3.966-10.24.187-7.159.95-14.441.581-21.6-.147-2.831-1.3-3.944-3.424-5.6-.8-.623-1.742-1.212-1.785-2.344a1.987,1.987,0,0,1,2.438-1.973" transform="translate(87.924 0)" fill-rule="evenodd"/>
        <path id="react-path-258" d="M16.7,214.6c.23.114.148.123.2.39q-.228,0-.2-.39" transform="translate(736.562 0)" fill-rule="evenodd"/>
        <path id="react-path-259" d="M199.581,580.016c1.859-1.118,2.62.986,3.377,2.281,1.495,2.554,3.023,5.093,4.525,7.644a22.8,22.8,0,0,0,1.537-7.038c.138-1.189-.043-5.207,2.016-4.066,1.759.975.419,3.983.181,5.442a43.691,43.691,0,0,1-1.4,6.983c-1.652,4.885-4.6,1.837-6.433-1.088-1.418-2.256-2.969-4.431-4.349-6.712-.963-1.591-1.209-2.394.541-3.446" transform="translate(359.938 0)" fill-rule="evenodd"/>
        <path id="react-path-260" d="M236.371,619.748c3.212,3.681,6.365,7.413,9.543,11.123-4.563-.214-5.978-2.675-8.787-5.747-.929-1.015-2.275-2.7-3.736-2.936-1.118-.178-.785-.319-1.587.96-.547.871-1.16,1.712-1.758,2.548-.562.785-2.528,3.326-3.495,1.178-.451-1,1.809-3.262,2.376-4.066,1.74-2.471,4.412-6.533,7.444-3.06" transform="translate(297.751 0)" fill-rule="evenodd"/>
        <path id="react-path-261" d="M348.944,142.629c-1.338,5.4-6.364,1.378-8.256-1.078a29.915,29.915,0,0,1-5.21-12.4c-.353-1.8-.628-4.066.181-5.8.938-2.01,2.705-1.563,3.908-.075,1.481,1.832,2.046,4.616,2.934,6.761A42.268,42.268,0,0,0,346.038,137c1.156-1.232,2.927-2.575,3.633-.275.544,1.781-.3,4.177-.727,5.9" transform="translate(85.177 0)" fill-rule="evenodd"/>
        <path id="react-path-262" d="M329.988,131.4c-2.441-.22-6.216-1.845-7.1-4.358-1.7-4.865,5.611-2.581,7.813-2.294-.11-1.756-1.445-7.281.984-8.155,1.824-.655,2.774,3.1,3.027,4.328.71,3.45.406,10.94-4.728,10.479" transform="translate(112.519 0)" fill-rule="evenodd"/>
        <path id="react-path-263" d="M323.983,141.637c.049,1.692-2.934,9.873-5.656,6.629-1.249-1.488.2-2.6,1.065-3.72,1.375-1.795,2-4.038,3.286-5.9.406.837,1.3,2.04,1.3,2.993" transform="translate(128.333 0)" fill-rule="evenodd"/>
        <path id="react-path-264" d="M431.072,219.111c.913,1.036,1.753,1.889,1.07,3.266-.312.631-1.544,2.1-2.415,1.851-.813-.228-.74-1.4-.563-2.02.366-1.29,1.658-1.6.98-3.141l.928.044" transform="translate(-91.284 0)" fill-rule="evenodd"/>
        <path id="react-path-265" d="M278.972,211.6a1.067,1.067,0,0,1-.233.487c-1.077-.956.16-.94.233-.487" transform="translate(212.883 0)" fill-rule="evenodd"/>
        <path id="react-path-266" d="M83.455,297.31c.1-.165.2-.33.3-.494a.563.563,0,0,1,.01.937c-.1-.148-.21-.3-.314-.443" transform="translate(602.687 0)" fill-rule="evenodd"/>
      </g>
    </g>
  </g>
</svg>
