<svg xmlns="http://www.w3.org/2000/svg" width="1025.523" height="729.1" viewBox="0 0 1025.523 729.1"><g transform="translate(0 0)"><path d="M478.494,112.665c-.362,3.127-4.244.739-4.607,2.434-.229,1.065,3.767,3.708,4.629,4.436-2.784,1.678-6.338-2.188-8.425-3.808-1.075,1.167-1.439,1.78-.451,3.115,1.742,2.357,1.663-.766,3.735.874-.863,1.45-1.621.619-2.717.229.477,2.79-.592,1.024-1.429,2.791a11.74,11.74,0,0,0-.8,4.1q1.476,3.39,2.951,6.781c1.183,2.719.831,3.593,3.725,2.684-.326-.564-2.491-3.322-2.315-4,.2-.775,3.161-1.847,3.943-2.5,1.376-1.145,1.361-2.127,2.239-3.357q-.523-1.716.815-1.6l.986,2.651h0c-.082,1.881-1.671,1.7-2.608,3.5-1.436,2.75-.632,1.127.541,3.34,1.152,2.174,1.281,4.949,3.175,6.042l-3.053,1.34c2.376,2.608-2.566,1.338-3.383,1.085q1.254,2.662,2.507,5.325c2.505-1.4,3.741-4.06,5.409-6.255l3.81,7.082h0l-3.79-.35c.176.333,1.794,2.617,1.656,3.125-.565,2.071-4.865.9-4.39,3.612a34.682,34.682,0,0,0,4.577,4.609c-1.937.87-2.813.509-2.119,2.794l2.7-1.631h0a24.4,24.4,0,0,1,2.141,4.224,5.035,5.035,0,0,0,.528,2.8,15.739,15.739,0,0,0,1.791,2.207c.526,1.385.7,8.945.061,10.178-1.414-1.827-4.575,1.4.76,1.4,2.336,0,2.179-.486,3.072,1.566.7,1.615,1.082,3.024-.909,3.179,1.5,2.949,1.177,5.221,1.312,8.364a46.969,46.969,0,0,0,1.353,7.575l-1.422-2.042c-1.277,2.724-.3,5.018.3,7.933,1.326-1.751,1.488,1.373,2.622,1.05,2.313-.66.581-1.146,1.521-2.663.815-1.314.73-1.691,2.236-2.494,2-1.065,5.5-1.1,7.76-1.481a93.9,93.9,0,0,1,11.449-.96c14.39-.624,28.73-.784,43.118.007a297.433,297.433,0,0,1,39.775,5.1c13.819,2.676,27.335,5.144,40.719,9.671,2.586.875,5.175,2.7,7.76,3.341,2.453.609,4.911.6,7.468,1.489,6.123,2.126,12.458,3.738,18.628,5.767,6.649,2.187,13.845,4.011,20.173,7.038,2.748,1.315,5.243,3.1,7.991,4.43,2.588,1.255,6.94,2.4,8.307,5.3a3.918,3.918,0,0,1,.111,3.12c-.664,2.35-1.188,2.1-2.992,1.937-2.51-.222-5.758-2.175-8.2-2.943-6.672-2.1-13.424-3.785-20.209-5.469-12.185-3.025-24.418-8.381-36.442-10.476-7.131-1.242-13.887-4.62-21.057-5.9-1.573-.279-6.127-2.524-7.418-1.748-.342.205-1.18,2.669-1.475,3.258a39.538,39.538,0,0,1-3.7,6.054c-4.286,5.714-10.035,10.316-15.166,15.24-5.861,5.625-10.954,11.83-16.363,17.868l-1.408-1.634c.495,3.813-2.361,6.563-4.7,9.152a64.93,64.93,0,0,0-7.185,9.474,99.5,99.5,0,0,1-6.113,8.014c-1.992,2.578-3.318,5.689-5.151,8.467-4.208,6.381-8.349,12.885-12.593,19.18a71.477,71.477,0,0,0-5.157,9.67c-1.255,2.677-5.031,8.151-5.031,10.748.271,1.272-2.487,8.924.461,5.318q.7,1.092,1.413,2.184L533.54,344.6c2.448,2.217-2.124,2.5-2.225,3.741l1.222,1.179q1.044,2.151,2.715.558c1.227.075,1.472-.611,2.84-.154-1.306,2.039-2.989.75-3.651,3.568-.582,2.483,1.263,3.016,3.212,4.484l.121.092.043.147c.425,1.27,1.63.729,2.972.452,3.21-.661,6.757-1.928,9.883-2.9,6.757-2.107,13.566-3.883,20.552-5.324,15.94-3.289,31.752-3.134,47.837-4.174-.423-1.762-.426-1.607.076-2.7-.644,1.4,3.241-.428.313,2.665,7.474,1.222,15.547.3,23.127.71-.353-.786-1.164-1.69-.406-2.259,3.589,5.189,15.581,2.964,21.509,3.707,3.48.437,6.919,1.274,10.388,1.825l1.46.229a34.828,34.828,0,0,1,3.626.728c1.533.413,4.087,2.11,5.54,1.716-2.127-4.288.326-.576.66-.527a29.817,29.817,0,0,0,4.2.489c-1.654-6.641-4.491-12.76-5.634-19.6-.713-4.264-2.671-11.132,1.545-14.154,2.31-1.656,6.1-2.015,8.771-2.578,2.932-.617,8.055-.592,10.606-2.249,1.992-1.3,2.413-2.485,5.022-3.475,3.01-1.142,4.4-2.276,7.439-1.353-1.237-1.549-2.97-2.679-.542-4.262.995-.647,2.945.224,3.294-1.192,1.8,1.273,1.375,2.3,1.857,4.046a5.216,5.216,0,0,1-.584,2.11l2.861,1.152c-.606-1.629,1.173-.658,1.528-1.459.529-1.2.215-3.024.215-4.323,1.966.621,4.022,1.389,4.882,3.435,2.407-1.435,1.451-1.533.217-3.686,2.021-.478,2.449.562,2.756,2.236l3.2-.988c-2.4-.017-2.981-1.9-3.038-3.935l2.806.913.576,2.961c1.473,1.248,5.3-1.006,6.548-1.651,4.334-2.247,5.92-2.9,5.309-8-.511-4.28-1.642-8.581-1.893-12.883a102.934,102.934,0,0,1,.7-14.654c.812-9.219,2.119-18.3,2.577-27.561.247-5.012.523-10.025.72-15.04.156-3.986,1.532-8.372-3.441-8.726.608-1.93-1.213-4.162-3.092-5.219q-.985-2.245-2.156-.4a2.044,2.044,0,0,1-1.891-.3c-2.738-.621-6.022-4.506-8.48-5.907-2.41-1.373-7.665-3.369-9.386-5.681-1.664-2.237.853-1.985.344-4.035-.694-2.8-3.223,1.222-3.611,1.782-.845-.849-4.073-2.441-4.035-3.675l2.372-.423c-.864-.5-2.781-1.989-3.786-2.186-1.708-.335-1.067-.768-2.436,1.115-.476-.738-1.634-3.163-2.359-3.654a28.453,28.453,0,0,0-2.833-.543c-2.238-.791-2.012-2.532-3.657-3.36-.8-.4-1.78.215-2.45-.077-1.07-.468-1.073-2.065-2.044-2.644-.84-.5-2.97-.085-3.973-.45-1.662-.607-1.589-1.172-2.829-2.28-1.739-1.553-3.34-1.328-5.277-2.505-2.008-1.22-1.7-3.967-3.522-4.491-2.433-.7-3.056,1.6-4.379-.671-.3-.511,1.052-1.275.205-2.1-1.044-1.01-1.476.2-1.955.98l-1.652-3.117h0c-2.648,1.45-1.536-.42-3.557-1.416-.9-.442-1.636.431-2.619-.1-.723-.392-.848-1.246-1.367-1.775-1-1.017-1.55-2.413-3.1-2.9.559.174-4.021.042-3.612-.154l1.337-1.962c-2.4,0-4.49.238-6.809-.482a10.185,10.185,0,0,1-2.787-1.168C650.58,156.7,651,157.047,651,154.411c-2.589,1.648-5.885,1.072-8.44-.839-1.334-1-2.189-2.192-3.652-3.094q-.942-.487-1.915-.911a1.5,1.5,0,0,0-2.44-.023,5.216,5.216,0,0,1-2.032-1.081c-.256-.506-.528-1-.82-1.49a18.688,18.688,0,0,1-2.834-.519c-3.617-.973-5.8-3.387-9.158-1.248q-.644-1.312-1.287-2.627c-1.429,2.232-2.406.1-4.3-.8-.795-.379-1.827-.473-2.545-.819l-1.214.287h0q-.515-1.59-1.027-3.18c-.691.269-3.43,1.74-4.253,1.662-1.18-.111-2.59-2.108-3.733-2.485-1.744-.575-1.119.185-2.832.2-1.317.009-1.938.2-3.076-.91,3.846-1-1.006-1.47-2.627-1.808-2.525-.526-3.826.036-5.58-1.959h1.821c-1.8-1.635-1.192-1.058-3.084-.9-.6.049-3.188,1.472-3.193-.426-2.445,1.441-2.472,1.444-4.993.794-1.116-.288-2.066-1.225-3.293-1.247-1.2-.021-2.055.52-3.123.4a30.264,30.264,0,0,1-3.632-1.182c-1.2-.437-1.989-1.37-3.136-1.731-1.262-.4-2.868.075-4.194-.216-3.943-.868-6.257-3.228-10.526-1.95-.456-3.821-5.218-2.971-7.781-2.577-1.784.275-2.693,1-4.54.123-1.5-.711-2.361-1.839-4.035-2.407a40.042,40.042,0,0,0-4.355-1.031,6.124,6.124,0,0,0-2.541-.251,3.571,3.571,0,0,0-2.185,1.133l-.109.125a14.071,14.071,0,0,0-1.921-1.627c-1.508-1.207-2.215-.746-3.142-3.1l3.232-.682h0c-1.664-.112-2.914-.3-4.394.343-1.023.447-2.742,2.816-3.767,2.818-1.853,0-2.5-2.609-2.317-3.968-1.555,3.621-2.882,4.224-6.374,2.373l-1.231-.653a1.487,1.487,0,0,0-2.479.049l-1.464.8h0q-.88-1.465-1.761-2.93c-1.246,1.716-2.43,1.8-4.462,1.4-1.4-.277-4.277-2.816-5.31-2.815-.6,0-1.364,1.46-2.363,1.745a4.53,4.53,0,0,1-4.811-2.3q-.469.99-.938,1.982C480.054,114.128,479.27,113.4,478.494,112.665Zm59.333,245.387,0,.056h0l-.056-.044v0Zm2.029-3.445v3.075l-1.041.19h0l-.988.18-.01-.168A3.451,3.451,0,0,1,539.856,354.607Zm92.02-12.234q.487,1.494.973,2.989l-3.281.268ZM760.3,263.579c-2.391.7-2.358.613-2.838,2.825-2.731,12.59,5.719,27.03-.485,39,18.136-.147,36.309.215,54.339,2.34,0-6.856-.225-13.7.293-20.542.235-3.107.586-6.2.9-9.3.4-3.933.274-3.7-2.945-4.38-1.691-.356-2.3-1.428-3.912-2.081-1.213-.491-1.757.113-2.953.281-2.139.3-2.165-.057-4.125-.475-4.207-.9-7.78-.577-11.1-3.718-1.723-.149-1.165,1.447-2.366,1.291-.873-.114-1.429-1.744-2.32-2.133-2.771-1.213-7.384-.917-10.416-1.3-3.1-.386-5.838-1.783-8.8-2.2A7.147,7.147,0,0,0,760.3,263.579Zm-34.984,36.336c.585,2.177,3.153-.657,3.193,1.051l0,.155-.005-.038c-.135-.292-2.732,3.145-2.579,3.03-1.395,1.051-2.208.952-3.789-.254C724.966,303.752,724.654,302.006,725.319,299.915Zm-7.886,3.076c-1.033.568-1.349-.885-1.884-1.772C716.7,300.644,716.873,301.982,717.433,302.991Zm3.2-9.471a13.1,13.1,0,0,0-.373,3.958c-2.389-.338-3.14-.512-3.184-3.053l1.277.8C719.02,293.9,719.168,293.8,720.63,293.52Zm18.488,2.367-1.623-1.046C738.293,293.693,739.712,295.058,739.118,295.887Zm-6.042-21.126L731,273.675C732.8,271.39,732.927,272.157,733.076,274.761Zm2.5-18.124h2.716C737.757,258.383,735.573,258.759,735.573,256.637ZM469.47,155.055l-1.861,1.085c1.612,1.469,3.594,2.95,2.024,4.672-1.247,1.367-7.069,2.019-8.813,2.517.6.7,1.852,2.6,2.677,3.077.654.379,1.251-1.122,2.569.373-2.186,1.134-1.6.275-1.032,2.68.335,1.419,1.534,2.943,2.209,4.216q2.468,4.646,5.053,9.227,5.309,9.392,11.18,18.452c.66-3.408-1.228-7.227-2.207-10.515q-1.848-6.207-3.706-12.409C475.17,170.462,473.022,162.577,469.47,155.055Zm94.987,10.4,4.757,1.211C566.557,167.509,566.557,167.509,564.457,165.452Zm-78.325-15.359c2.256,1.056,2.5,1.823.672,3.115Zm.274-24.989c.306,1.341,2.2.051,2.623,1.031.962,2.242-2.1,1.938-3.2,1.8Q486.117,126.52,486.406,125.1Zm-12.784-1.7c.6,2.867.6,2.867-2.192,3.3Zm50.715-1.979,0,.031c0,.017-.019.025-.053.023h0Z" transform="translate(-248.974 -20)" fill="#8675a9" fill-rule="evenodd"/><g transform="translate(0 0)"><path d="M635.2,402.46c.424,2.183,1.484,3.211.373,5.216a5.571,5.571,0,0,1-5.462,2.387Zm49.174-77.646,8.953,3.069a95.844,95.844,0,0,1-7.477,7.057Zm-147.679,7.86c4.27-2.152,9.053-2.4,13.734-2.671q-1.066,5.765-2.137,11.53l-11.6-8.859ZM639.225,630.169c.852-1.509,6.664-13.168,7.872-12.569.641.317.691,6.808.785,7.731q.5,4.926,1,9.851c-3.438-1.214-7.11-2.221-9.657-5.013Zm40.608-94.254q-1.318,3.864-2.638,7.73c-.418,1.225-.663,3.032-1.4,4.113-.961,1.4-.236,2.227-1.519.692-1.378-1.649-1.79-6.047-2.388-8.067q-1.363-4.6-2.725-9.2c4.281-.036,6.876,3.489,10.673,4.736Zm89.962-151.74c5.264,3.6,10.593,7.167,15.173,11.639-4.029-.251-9.639,2.521-13.434,1.219q-2.628.561-1.739-2V384.175Zm-78.052,25.452v21.007c-4.915-4.188-10.088-8.078-14.817-12.482l14.817-8.525Zm-175.7,54.431c1.551,9.352,1.637,18.976,2.062,28.44.075,1.68.722,4.209-.4,5.68s-4.322,2.292-5.948,3.08c-4.575,2.218-9.119,4.5-13.681,6.744l17.964-43.944ZM399.891,406.545,366.031,389.9l33.2-14.054q.332,15.35.662,30.7Zm116.175,26.121c-2.063.148-2.389-7.709-2.73-9.787q-.975-5.916-2-11.824-2.051-11.811-4.315-23.583-4.536-23.538-10.055-46.872a102.34,102.34,0,0,0,11.5-2.387c3.133-.934,6.864-.426,9.661-2.368.363,7.285-1.456,15.03-2.129,22.315a251.325,251.325,0,0,0-1.13,25.281c.136,16.409.759,32.822,1.2,49.225ZM775.848,654.985c-1.956-.521.707-27.334.826-31.2q.51-16.793.206-33.6a364.412,364.412,0,0,0,32.453,18.183c-2.861,3.711-5.542,7.713-8.708,11.167-3.262,3.557-7,6.472-10.027,10.3-6.086,7.715-10.255,16.473-14.75,25.144ZM522.261,496.367c-.49-8.065-.944-16.113-1.758-24.154-.347-3.422-3.654-21.605,1.641-21.178,3.012.243,8.3,4.651,11.057,6.2q5.472,3.06,10.967,6.083c7.234,3.964,14.516,7.84,21.776,11.757l-43.683,21.3Zm31.438-167.7a158.1,158.1,0,0,0,17.81-2.021c3.208-.606,6.416-.522,9.641-.931,2.31-.293,6.825-2.19,8.977-1.569,2.7.78,3.686,14.331,4.058,17.732.6,5.478,1,12.124-1.444,17.27-4.716,9.92-17.423,2.177-23.6-1.984-5.3-3.568-11.3-7.181-16-11.512-4.163-3.837-.426-12.027.565-16.985ZM522.422,436.543c-4.544-1.838-4.472-4.146-4.67-8.9-.24-5.776-.38-11.559-.545-17.338-.294-10.3-.572-20.6-.48-30.9a285.1,285.1,0,0,1,1.734-30.117c.407-3.537,0-9.578,1.866-12.6,1.7-2.752,6.981-2.781,9.862-2.611,3.248.191,5.879,3.276,8.276,5.226,2.655,2.161,8.11,5.2,8.545,8.425.488,3.6-1.489,8.732-2.255,12.222-2.8,12.737-6.209,25.349-9.8,37.883-3.724,13-7.5,26.139-12.534,38.71ZM637.87,406.055c-.293-2.862-1.358-5.252.082-7.978a78.918,78.918,0,0,1,4.764-6.918c4.33-6.356,9.186-12.444,13.9-18.516,4.32-5.561,8.746-11.063,13.274-16.456,2.522-3,5.122-5.941,7.706-8.891,1.893-2.159,3.687-5.193,6.364-6.323q2.959,18.6,4.875,37.337.921,9.055,1.589,18.135c.126,1.708,1.451,7.477.6,9.068-.891,1.671-6.336,3.907-8,4.931-4.66,2.864-8.281,7.179-12.713,2.471-3.051-3.242-5.508-7.812-8.918-10.641-1.777-1.474-3.45-1.4-5.443-2.28-2.317-1.016-2.39-1.995-5.159-.612-4.665,2.329-7.5,5.771-12.925,6.673ZM871.419,469.84c0,8.583.587,15.639-5.231,22.587C861.1,498.5,855.821,499.9,848.67,502.3c-4.211,1.41-4.505.11-7.917-2.272-3.243-2.262-6.774-4.077-9.972-6.411-6.893-5.03-13.781-10.218-20.48-15.509-2.252-1.779-1.92-1.172-1.578-3.307.313-1.945,1.709-4.421,2.472-6.271,1.38-3.347,3.006-6.586,4.633-9.819,1.847-3.668,3.456-7.652,5.75-11.072a43.173,43.173,0,0,1,3.193-4c2.339-2.725,2.256-2.624,5.053-.4,5.9,4.7,11.4,9.794,18.045,13.471q11.794,6.528,23.55,13.124ZM693.37,403.355c-.853-12.322-1.815-24.576-3.292-36.842-.759-6.3-1.642-12.579-2.5-18.864-.35-2.559-1.7-6.854-.948-9.34.739-2.447,4-4.776,5.791-6.546.481-.476,1.96-2.473,2.6-2.563.681-.1,3.244,1.782,3.983,2.2q3.921,2.248,7.709,4.715c4.764,3.091,9.38,6.408,13.9,9.849,9.472,7.215,18.505,14.979,27.776,22.447-8.494,7.444-18.949,13.225-28.446,19.254-5.615,3.565-11.259,7.091-16.976,10.49-2.9,1.722-6.261,4.355-9.589,5.2ZM809.484,623.7c6.859,4.535,13.409,9.322,21.166,12.232,7.722,2.9,15.354,4.013,23.335,5.735,4.025.869,7.808,1.819,11.916,2.427,2.3.34,5.865.209,7.964,1.181q2.8-.6,2,1.912-.03.78-.06,1.56c-.529,7.233-5.178,15.937-9.233,21.817a64.335,64.335,0,0,1-8.38,9.515c-3.384,3.259-5.335,5.557-10.052,4.192-7.951-2.3-14.968-6.935-23.027-8.978-6.375-1.616-11.67-5-17.887-6.756-7.667-2.162-15.254-4.626-23.027-6.432,3.472-6.7,6.577-13.68,11.022-19.819,4.559-6.3,9.586-12.354,14.267-18.586ZM767.417,398.179c-14.344,2.855-29.891,5.5-42.729,12.9-5.01,2.89-11.361,7.357-12.828,13.334-1.754,7.144,5.142,11.569,10.9,13.8,6.916,2.677,14.444,3.7,21.772,4.547,3.879.447,7.776.691,11.673.912,3.154.18,8.5-.513,11.386.737q2.709-.54,1.878,2.2.051.982.1,1.966l.3,5.89q.3,5.883.6,11.767.649,12.816,1.3,25.633c-7.513-4.655-13.568-11.32-20.911-16.286-3.491-2.361-6.957-4.727-10.434-7.08-1.458-.986-2.349-2.369-3.784-3.288a36.417,36.417,0,0,1-5.375-3.549c-7.29-6.52-15.4-12.156-23.129-18.141-3.512-2.72-7.357-5.22-10.7-8.137-3.5-3.056-3.016-5.572-2.93-9.965.09-4.651-1.617-10.426-.825-14.911q-1-2.283,1.531-2.841l3.377-2.16,6.735-4.307,26.792-17.134,13.384-8.559c1.246-.8,5.31-4.4,6.708-4.29,1.426.108,3.9,2.892,4.969,3.778a63.545,63.545,0,0,0,5,3.976,22.7,22.7,0,0,0,2.765,1.639q2.3.222,1.6,2.528c1.348,4.324.607,10.5.87,15.042ZM568.5,602.025c3.248-15.185,7.437-33.166,20.106-43.495,12.849-10.476,31.634-6.428,41.685,5.874,5.034,6.162,8.155,13.447,10.473,21,2.38,7.748,5.887,17.843,5.245,26.037-.281,3.592-3.359,7.453-5.118,10.587-1.815,3.237-3.02,7.878-7.3,6.757-6.633-1.739-13.379-5.731-19.586-8.588-6.278-2.891-12.888-5.269-19.4-8.061-4.322-1.853-8.809-3.263-13.12-5.143-4.088-1.781-9.482-2.211-12.989-4.964ZM376.574,511.582c-9.06,3.243-13.769-1.948-20.144-7.792-6.039-5.536-12.582-10.86-18.143-16.877-5.736-6.2-10.27-13.536-14.68-20.7-4.458-7.242-10.484-15.064-13.229-23.13-1.4-4.1-1.992-8.649-2.872-12.89-.212-1.021-1.633-4.82-1.182-5.679.622-1.181,4.578-1.306,5.664-1.478a90.744,90.744,0,0,1,26.477-.213c16.777,2.364,30.808,11.773,36.111,28.225,6.216,19.286,3.229,40.722,2,60.536ZM435.317,344.3c.14,3.339-7.864,4.267-9.939,5.046-4.794,1.8-9.561,3.7-14.216,5.825-9.587,4.382-19.81,7.237-28.99,12.535-19.789,11.421-41.272,19.472-61.264,30.4-3.115,1.7-9.2,5.8-12.76,5.457-1.891-.184-.482,1.338-1.709-1.668a22.665,22.665,0,0,1-.835-3.648c-.741-3.473-1.314-6.978-2.146-10.432-1.369-5.685-2.767-10.959-3.344-16.8-.245-2.476-.513-4.949-.542-7.439-.03-2.524-.611-8.848.528-11.033.756-1.449.907-.952,2.795-1.361,1.082-.234,2.217-.721,3.26-1.046a35.629,35.629,0,0,1,7.468-1.718c2.537-.222,4.156-.994,6.535-1.442,2.5-.47,5.06.1,7.6-.556,2.745-.709,4.055-1.356,6.923-1.085,2.781.262,3.581-.354,6.3-1.112,2.273-.632,4.981-.19,7.35-.382,2.867-.234,5.725-.592,8.594-.819,12.9-1.021,25.953.493,38.883.373,7.031-.065,13.911.973,20.932.652a152.714,152.714,0,0,1,18.57.259Zm-33.559,67.989c6.275,2.39,12.094,6.272,17.912,9.615a193.721,193.721,0,0,1,19.339,12.574c10.439,7.774,22.621,17.1,25.369,30.66,2.819,13.922-9.271,25.329-20.606,31.025-12.927,6.495-27.966,9.854-42.126,12.335,1.514-32.049,1.158-64.151.112-96.209ZM589.49,487.741c3.807,1.052,7.03,3.3,10.562,4.972,3.163,1.493,6.224,2.619,9.179,4.541a139.947,139.947,0,0,0,15.431,8.238c12.456,5.993,24.549,13.436,36.881,20.078,3.268,1.761,4.339,2.873,5.446,6.5,1.2,3.936,2.335,7.9,3.493,11.849,1.08,3.684,2.8,7.623,2.35,11.512-.4,3.383-2.146,6.574-3.465,9.66-3.322,7.766-6.923,15.408-10.644,22.989-3.339,6.806-6.386,14.027-10.672,20.283-3.331-17.374-6.32-36.841-19.233-50.08s-33.488-13.416-45.922.24c-5.907,6.487-9.5,14.657-12.328,22.866a112.761,112.761,0,0,0-3.436,13.162c-1.02,4.758-.769,7.283-6.019,5.841-4.169-1.145-8.589-2.059-12.676-3.365-2.12-.677-4.188-1.438-4.284-3.113-.122-2.115,2.726-6.446,3.567-8.436q6.515-15.406,13.031-30.814,7.075-16.73,14.154-33.458,3.531-8.348,7.064-16.693c2.148-5.072,3.937-12.6,7.521-16.769ZM401.4,401.008c-.07-5.071-.154-10.142-.22-15.214-.04-3.022-1.387-8.866,1.245-11.025,1.632-1.338,6.473-2.364,8.537-3.28,4.073-1.806,8.483-2.612,12.58-4.406,16.046-7.029,32.745-12.883,49.266-18.548,3.562-1.222,7.2-2.222,10.789-3.425,1.936-.649,9.107-4.463,10.9-3.465,1.569.873,2.752,11.273,3.254,13.432q1.783,7.668,3.418,15.371c4.241,19.932,7.8,40,11.106,60.11-8.788-3.337-17.211-9.119-25.514-13.589-8.625-4.643-17.22-9.275-25.9-13.811-2.451-1.281-11.074-7.167-13.092-4.857-3.237,3.707,4.476,8.055,6.5,9.643,7.832,6.143,16.106,11.5,24.482,16.856,8.679,5.554,17.711,10.46,26.435,15.912,3.149,1.968,8.176,4.364,9.414,7.688,1.592,4.276.443,9.473-1.007,13.558-3.56,10.039-7.459,19.954-11.582,29.774q-2.812,6.7-5.757,13.338c-2.333,5.274-5.394,6.389-10.477,8.816-21.654,10.34-44.146,20.153-64.945,32.118,3.481,4.012,11.965-2.576,15.4-4.244q9.543-4.635,19.087-9.269c11.843-5.773,23.626-11.661,35.536-17.3a404.546,404.546,0,0,1-26.629,50.2c2.522.854,1.907.9,3.49-.618,1.333-1.277,2.228-3.779,3.131-5.383,1.867-3.313,3.709-6.639,5.59-9.944,3.9-6.859,7.946-13.614,11.509-20.66,2.68-5.3,4.756-14.56,10.264-17.231,6.863-3.33,13.817-6.571,20.68-9.948,0,26.4-1.9,52.2-4.681,78.436-.141,1.323-1.409,5.227,1.148,4.845,1.153-.173,1.542-7.411,1.744-8.922q1.395-10.394,2.364-20.835,1.927-20.833,2.074-41.782l4.941,40.683,2.341,19.277,1.23,10.125c.188,1.551.069,3.578.614,5.057.857,2.327.569,2.149,3.256,3.21q-3.854-26.488-7.041-53.069-1.537-12.971-2.87-25.963-.357-3.494-.7-6.99c-.115-1.188-1.14-5.008-.571-6s4.3-2,5.371-2.5q3.53-1.638,7.057-3.281c7.632-3.567,15.258-7.163,22.806-10.9,3.3-1.637,6.765-4.166,10.356-5.039,3.575-.869,6.175,1.619,9.232,3.2,2.379,1.231,7.984,2.87,9.573,4.961,1.479,1.946-3.114,9.734-4.321,12.605q-5.1,12.15-10.211,24.3-10.351,24.636-20.7,49.273l-5.061,12.044c-1.081,2.573-2.886,9.9-5.509,10.192-1.161.127-3.067-1.136-4.189-1.5a32.492,32.492,0,0,0-4.9-.818c-3.078-.522-6.274-2.11-9.3-3.224-7.769-2.864-15.823-4.713-23.655-7.388-7.868-2.687-15.608-5.706-23.445-8.394a218.635,218.635,0,0,1-21.138-8.4c-7.221-3.357-14.627-6.317-21.663-10.039-12.816-6.779-25.493-13.11-36.817-21.424-2.662-1.955-5.5-3.918-8.132-6.011-2.309-1.837-6.715-4.1-8.287-6.52-.6-.921-1.114-2.727-.414-3.82.751-1.174,4.077-1.067,5.631-1.276l14.7-1.975c-.376,3.223-.756,6.443-1.029,9.678-.191,2.283-1.541,8.317.279,10.106,2.5-2.378,1.7-9.489,1.922-12.657.12-1.693-.311-5.007.447-6.509.831-1.646,3.127-1.624,5.208-2.074,8.824-1.909,17.568-3.511,26.107-6.536,14.425-5.109,31.668-13.736,34.89-30.376,3.359-17.347-11.4-32.377-23.828-42.052a194.857,194.857,0,0,0-23.544-15.463c-3.827-2.175-7.651-4.351-11.5-6.48-1.4-.774-6-2.369-6.739-3.723-.756-1.385-.369-5.089-.529-6.667ZM710.024,667.413l2.1,1.026c-7.785-22.185-15.5-44.27-22.007-66.872q-4.713-16.363-9.574-32.685c-1.4-4.692-4.848-11.154-3.891-16.015,1.036-5.261,3.52-10.857,5.442-15.86,12.3,7.734,24.864,15.071,37.372,22.454,11.213,6.621,22.616,12.509,33.908,19.06,5.786,3.356,11.755,5.623,17.794,8.365,4.907,2.229,3,9.042,2.931,13.593-.248,16.068-.236,32.193-1.211,48.238-.355,5.845.1,12.556-3.618,17.421-4.759,6.22-9.173,12.561-13.513,19.109-1.626,2.453-8.457,15.734-11,15.443-1.663-.189-3.194-5.567-4.026-6.842a41.82,41.82,0,0,0-6.8-7.327c-10.3-9.56-21.738-16.294-33.621-23.281-12.073-7.1-24.428-13.705-36.729-20.436-2.779-1.521-5.772-2.618-8.533-4.172-1.091-.614-3.254-1.589-3.941-2.686-1.027-1.642-.679-6.191-.893-8.154-.438-4.01-1.225-8.176-1.267-12.216-.041-3.99,2.358-7.419,4.1-10.9,7.634-15.278,15.051-30.593,21.693-46.334,5.237,18.278,10.735,36.47,15.872,54.775,2.682,9.558,5.915,18.96,9.063,28.371q2.41,7.211,4.829,14.418c1.25,3.744,1.9,9.226,5.527,11.505ZM600.383,322.946a51.683,51.683,0,0,0,11.673-1.4,33.294,33.294,0,0,1,4.2-.57c1.669-.147,3.185-1.051,4.648-1.228a11.842,11.842,0,0,1,4.093.685c2.448.82,2.37.406,2.472,3.248.16,4.391.28,8.783.521,13.17.949,17.269,2.783,34.37,5.3,51.472.509,3.457,1.933,7.991,1.15,11.424-.706,3.095-3.38,6.4-5.146,9-3.633,5.339-12.189,7.977-18.208,9.491-6.347,1.6-12.937,2.185-18.967,3.609-1.671.395-3.589-.3-5.37.1a24.994,24.994,0,0,0-4.448,1.924c-3.729,1.6-7.895,1.9-11.746,3.132-7.636,2.451-15.812,2.3-23.455,4.658-1.954.6-3.642,2.117-5.522,2.636-1.719.474-3.489-.084-5.288.181-3.812.561-7.366,1.864-8.245,5.956-2.331-1.845-2.655-1.36-2.252-4.214a40.647,40.647,0,0,1,1.835-5.822q2.133-6.747,4.273-13.491c2.811-8.9,5.6-17.809,8.2-26.776,2.319-8.021,4.427-16.1,6.269-24.247.937-4.141,1.72-8.3,2.523-12.463.234-1.208,0-3.128,1.216-3.932,1.1-.729,3.671,1.887,4.834,2.73,8.123,5.884,26.754,23.287,36.91,13.021,5.469-5.528,5.149-15.247,4.555-22.389a115.3,115.3,0,0,0-2-13.039c-.215-1.077-1.532-4.537-1.05-5.3.521-.825,5.943-1.317,7.03-1.559ZM314.964,419l-6.486.728c.2-1.747.02-4.374.681-6,.915-2.249,3.154-2.5,5.617-3.432,3.9-1.473,7.869-2.754,11.722-4.34,8.362-3.441,16.685-6.931,25.052-10.372,3.667-1.509,7.976-3.978,11.958-2.746,4.294,1.33,8.532,4.038,12.546,6.021q6.817,3.369,13.63,6.748l6.391,3.167c3.347,1.658,3.792,1.826,4.056,5.613,1.345,19.372,1.245,39.5.659,58.894-.3,9.9.036,19.852-.674,29.734-.055.76,0,5.049-.474,5.634-.67.824-5.387,1.1-6.514,1.309-4.394.8-8.819,1.07-13.259,1.467,1.046-22.532,4.888-49.169-6.683-69.779C361.563,420.94,336.719,416.455,314.964,419ZM517.02,197.331c-1.3-2.968-3.547-5.474-5.465-8.078-1.037-1.408-2.831-3.091-3.495-4.738-.945-2.344-.94-1.842.472-3.9,1.335-1.94,1.308-2.086,3.372-2.433,1.738-.292,3.589.2,5.364-.114,1.795-.322,6.728-1.834,5.6-4.69a18.346,18.346,0,0,1-3.027-1.526c-.717-.781-.944-2.446-1.3-3.39-1.14-3.026-1.54-4.985-.27-8.207,1.9-4.811,9.4-6.235,14.07-4.616,2.335.808,3.666,2.522,4.715,4.676.667,1.368.822,3.345,1.684,4.536,1.3,1.793,1.38,1.594,4.075,1.277,3.431-.4,6.245-1.721,9.5-2.64,3.541-1,5.844,1.036,8.938,2.679,5.586,2.968,10.981,4,17.238,4.469,6.968.525,13.426-1.155,20.325-1.588-1.79,8.245-6.419,14.939-10.119,22.4-.65,1.313-1.7,2.655-1.726,4.174-.026,1.431,2.046,3.378,1.813,4.562-.5,2.526-6.058,4.548-8.164,5.259-5.957,2.009-12.74,5.942-19.3,4.362-3.6-.866-5.529-6.542-8.912-6.959-4.538-.562-1.143,5.282-.3,7.292a46.323,46.323,0,0,1-20.77-2.035,51.838,51.838,0,0,1-8.528-4.346c-3.512-2.016-4.242-2.57-5.789-6.436Zm112.715,122.71c11.483.191,23.134-1.462,34.643.057,2.666.351,5.3.917,7.917,1.519,1.883.433,7.864.8,9.12,2.2,1.144,1.277,1.152,7.156,1.388,8.813.525,3.69.385,4.964-1.968,7.817-7.742,9.388-15.805,18.5-23.434,27.988-7.328,9.118-13.343,19.306-20.75,28.3-3.956-11.515-4.193-25.334-5.279-37.408q-.868-9.657-1.6-19.325c-.471-6.138-2.073-14.1-.036-19.955ZM778.364,441.4c-1.328,0-3.446.416-4.737,0q-2.663.848-1.781-2-.042-.994-.085-1.991c-.185-4.277-.389-8.553-.587-12.83q-.273-5.865-.513-11.732c-.106-2.67-1.455-9.289-.376-11.7.725-1.621,2.442-1.253,4.531-1.49,1.987-.225,3.98-.433,5.956-.741,2.508-.391,5.288-1.289,7.84-.727s4.428,2.932,6.44,4.438c3.184,2.381,6.437,4.674,9.648,7.018,5.836,4.262,11.613,8.6,17.4,12.929,2.39,1.786,2.849,1.166,1.684,3.734a36.541,36.541,0,0,1-3.358,4.814c-1.987,2.854-3.966,7.18-6.515,9.5-3.709,3.37-14,1.23-18.927,1.206-5.618-.028-11.034.059-16.62-.427Zm-14.542-.279c-4.872-.477-9.794-.271-14.636-.926-5.264-.713-10.49-1.768-15.744-2.559-5.238-.787-21.173-3.972-19.6-11.79,1.662-8.264,13.861-13.214,20.611-15.992,10.542-4.339,21.548-6.662,32.637-9.115,1.391,7.408,1.191,15.361,1.445,22.868.138,4.077.259,8.159.257,12.24,0,.982.337,3.02-.064,3.933-.942,2.149-2.038,1.341-4.906,1.341Zm16.022,3.55h31.1c-4.6,9.526-8.952,19.23-13.913,28.576-4.941,9.31-11.3,18.082-16.909,27.018-1.42-1.545-3.685-3.221-4.65-5.06-1.069-2.034-1.039-5.027-1.214-7.382-.454-6.112-.661-12.278-.815-18.4-.135-5.365-.371-10.694-.783-16.046-.09-1.174-1.385-7.271-.644-8.273.661-.892,6.472-.42,7.832-.429ZM651.779,257.631c-5.246,0-10.5-.067-15.743.021-4.76.081-10.962-.748-15.322,1.7-8.883,4.992,8.874,17.813,12.475,21.04-5.822,2.11-14.909-2.078-20.609-4-7.048-2.372-14.235-3.965-21.424-5.823-1.8-.464-9.506-1.373-10.48-2.749s1.2-9.6,1.415-11.337c.2-1.633.032-4.179.712-5.715q-.625-2.768,1.944-1.938l1.774-.007c4.374.035,8.752.238,13.123.383,15.024.5,29.683,1.167,44.579,3.512,6.925,1.09,13.911,2.431,20.8,3.769,5.8,1.126,4.823,2.071-.593,2.085-4.236.011-8.436-.618-12.651-.947ZM220.8,147.151q-1.338-1.537-2.678-3.077l6.525-1.864c2.313-.66,3.558-.509,2.529-3.093-1.288-3.237-7.172-3.608-10-3.73-9.737-.421-19.965,2.677-29.215,5.406a38.189,38.189,0,0,0-11.87,6.134,41.674,41.674,0,0,0-5.051,3.759c-1.516,1.494-2.147,3.408-3.629,4.906-2.431,2.456-5.542,3.679-6.734,7.224-1.368,4.069.265,8.727,2.29,12.275,2.054,3.6,5.1,6.324,7.583,9.6,1.967,2.6,6.074,9.689-.344,8.867-3.394-.435-7.8-6.223-10.239-8.529-3.5-3.307-6.945-6.69-10.653-9.77-3.288-2.731-7.076-5.531-11.473-6.011-4.634-.506-6.949,2.46-9.208,6.067-2.13,3.4-2.472,6.723-3.97,10.205-.723,1.679-1.643,2.615-2.068,4.445a80.009,80.009,0,0,0-1.054,8.756c-.524,4.507-1.017,8.051-.144,12.467.818,4.133,1.041,8.523,1.73,12.728.78,4.762,1.429,9.546,2.2,14.31.651,4.036,3.128,9.784.7,13.537-5.838,9.019-12.842-4.258-14.686-9.218-3.242-8.716-4.892-18.244-7.753-27.139a110.621,110.621,0,0,1-3.747-14.484c-.727-4.073-.369-9.035-2.6-12.663-1.735-2.818-4.821-4.958-8.208-4.1-4.238,1.077-5.866,7.2-7.113,10.927-3.291,9.822-2.08,18.668-.74,28.685.62,4.638,1.212,9.283,2.277,13.844.719,3.077,3.7,9.3-.73,10.978C76.447,250.965,69.8,232.963,68.008,228.9c-4.682-10.647-6.475-21.206-8.4-32.614-.443-2.623-.782-5.3-1.445-7.88-.577-2.244-2.3-4.512-2.456-6.756s1.332-3.813-.192-6.018c-1.268-1.835-3.559-1.946-5.629-1.962-4.862-.038-9.513,2.1-14.036,3.646-4.206,1.441-10.436,4.6-14.976,3.585C35.11,166.442,49.313,152.149,66.3,140.89a231.362,231.362,0,0,1,24.3-14.518c8.634-4.319,18.528-7.236,27.775-9.849,5.029-1.422,10.03-3.033,15-4.664,4.421-1.452,8.871-1.727,13.2-3.374,9.4-3.577,19.914-4.963,29.652-7.5,4.3-1.119,8.647-2.079,12.957-3.116,4.53-1.09,10.894-2.983,15.509-2.8,3.942.157,5.272,4.674,7.168,7.816a127.741,127.741,0,0,1,7.265,14.165c4.434,9.968,9.115,20.266,12.287,30.68q2.612,8.577,5.172,17.169c1.48,4.958,5.183,12.11,4.2,17.2A335.685,335.685,0,0,1,220.8,147.151ZM560.333,248.635l11.608.527c-3.858,12.68-3.32,26.182-3.32,39.325-18.029-2.125-36.2-2.487-54.339-2.34,3.332-6.428,2.04-14.767,1.091-21.65a75.369,75.369,0,0,1-.785-11.975c.076-3.813-1.023-7.019,3.017-8.2,3.2-.935,5.231.623,8.284,1.334,3.657.851,7.64.954,11.363,1.417a190.687,190.687,0,0,0,23.081,1.56Zm103.889,24.694c-11.619-3.223-23.966-2.035-35.643-4.485,2.656-2.424,7.66-.988,11.187-.786,4.01.228,8.017.395,12.027.59,3.911.191,14.759-.105,16.17,4.871l-3.741-.19ZM239.082,93.649c15.2,1.334,31.127,1.127,46.221,3.78,17.287,3.038,35.307,4.944,52.068,10.3,16.441,5.253,33.209,8.93,49.417,15.1,15.756,6,30.932,12.375,45.77,20.4,7.262,3.925,14.329,8.086,21.252,12.594,6.759,4.4,14.165,8.009,20.714,12.674a118.528,118.528,0,0,1,15.943,13.05c5.434,5.44,10.721,11.027,16.16,16.458,4.54,4.531,1.666,15.609,1.378,21.639-.4,8.36-1.088,16.6-2.113,24.907-.975,7.914-1.979,16.42-.69,24.317.541,3.32,2.409,9.055,1.517,12.369-.713,2.654-5.447,4.6-7.862,5.465-2.954,1.058-5.971.612-9,1.958-3.385,1.505-6.239,3.381-9.834,4.172a69.577,69.577,0,0,1-13.967,1.825c-4.211.027-8.436,1.391-12.635,2.231-6.83,1.368-13.5,1.794-13.072,10.031.491,9.5,4.262,17.659,6.508,26.681-3.037,0-5.154.194-7.934-.883-3.246-1.256-6.709-1.59-10.12-2.132-7.536-1.2-14.883-1.583-22.469-2.348-13.9-1.4-28.033-1.234-41.94-1.086a152.984,152.984,0,0,0-21.623,1.714c-7.124,1.125-14.5,1.828-21.406,3.985-5.824,1.82-11.838,3.06-17.779,4.668-2.678.724-5.885,1.312-8.415,2.122-3.666,1.175-5.625,3.68-9.858,3.624,1.191-7.841,3.989-15.114,5.677-22.889,1.762-8.12,5.278-15.3,9.158-22.964,1.731-3.417,3.012-7.043,4.681-10.489,1.856-3.833,4.465-7.008,6.706-10.592,4.585-7.331,9.479-14.383,13.983-21.766,3.932-6.446,8.424-12.625,12.729-18.847,4.732-6.841,11.308-12,16.679-18.28a100.95,100.95,0,0,1,6.965-7.547c2.339-2.24,5.657-7.2,9.238-7.43,2.058-.134,5.624,1.024,7.588,1.645,3.634,1.151,7.489,1.9,11.242,2.914,4.107,1.109,8.143,2.552,12.257,3.606,1.646.421,3.6.221,5.162.7,1.632.5,2.935,1.6,4.72,2.106,8.806,2.5,17.559,5.334,26.43,7.608,9.133,2.342,18.406,4.336,27.257,7.653,1.688.633,3.566,2.129,4.863,1.146a4.806,4.806,0,0,0,1.336-4.017c-.849-4.028-7.292-5.483-10.394-7.1a166.106,166.106,0,0,0-25.506-10.333c-4.4-1.448-8.786-2.994-13.248-4.245-3.73-1.045-7.612-2.813-11.426-3.348-3.392-.476-5.8-1.812-9.168-2.995-4.96-1.743-10.061-3.174-15.1-4.663-8.615-2.546-17.747-3.616-26.562-5.323a311.506,311.506,0,0,0-62.464-5.69c-10.506.124-21.5-.183-31.879,1.545-2.5.416-7.767.336-9.493,2.583-.927,1.206-.425,3-.663,4.308-.4,2.206-1.605,3.234-2.648,5.244-2.217-10.876-4.764-21.521-7.626-32.238-2.588-9.7-4.983-19.574-8.441-29.137-3.659-10.118-8.095-20.846-13.564-30.106-1.126-1.906-3.933-4.934-4.174-7.066-.25-2.2,2.833-3.9,4.951-4.149,4.752-.549,9.84.391,14.507.552Zm-102.137,155.4c-1.547-15.087-6.069-30.868-3.543-46.015,1.069-6.412,1.9-12.533,5.111-18.321,1.622-2.927,2.272-5.077,5.368-3.351,3.134,1.747,6.019,6.062,8.617,8.563,4.775,4.6,9.776,9.331,15.494,12.745,4.5,2.688,13.45,5.236,16.836-.579,3.226-5.542-1.077-13.276-4.166-17.848-3.535-5.231-10.231-10.076-6.473-16.53,1.617-2.778,3.944-3.506,6.39-5.329,2.117-1.578,3.891-3.622,6.009-5.228,6.136-4.655,12.866-6.649,19.951-9.309,3.271-1.229,3.7-2.385,5.591.424,2.052,3.051,3.176,7.327,4.66,10.7a163.927,163.927,0,0,0,9.974,19.465c3.867,6.36,7.294,13,10.949,19.49a80.818,80.818,0,0,0,4.306,7.231,34.7,34.7,0,0,1,2.708,3.732c1.067,2.023.592,3.867,1.256,5.881,2.866,8.69,7.046-3.441,7.845-6.277.908-3.226,3.1-5.741,4.519-8.75,1.173-2.485,1.973-6.178,4.805-7.348,2.32-.958,5.31.357,7.677.485,4.35.236,8.732-.116,13.1.156,4.085.254,8.161.646,12.245.9s8.171-.44,12.205-.01c7.239.772,14.64.648,21.863,1.718,8.476,1.254,16.865,2.592,25.365,3.636-1.975,3.735-6.069,5.355-9.306,8.02-2.893,2.382-5.184,5.131-8.1,7.4-2.957,2.3-4.714,5.7-7.161,8.466a83.877,83.877,0,0,0-6.719,8.006c-10.139,14.626-20.6,28.712-28.96,44.52A172.831,172.831,0,0,0,284.2,300.836c-3.1,9.207-4.624,19.081-6.467,28.6-.918,4.745-1.4,8.75-.393,13.522q.4,1.7.824,3.4,1.323,2.031-.98,2.635c-.9,1.309-2.124,1.8-2.2,3.59a4.453,4.453,0,0,0,1.868,3.7c2.261,1.48,2.261-.519,4.592-.076l2.621,1.417q.691-1.053,1.423-2.08c1.486-1.413,2.668-1.284,4.61-1.628-.987,11.367.587,21.516,3.089,32.6,1.2,5.332,3.267,10.551,4.307,15.892,1.161,5.967-1.377,8.685-5.3,12.665a17.534,17.534,0,0,1,3.564,1.862c1.308,1.239.974,1.391.973,3.33a66.778,66.778,0,0,0,1.237,10.54c1.032,6.465,1.975,13.155,4.2,19.345,4.043,11.243,10.578,22.919,17.236,32.822,3.726,5.542,7.461,11.838,12.131,16.62,4.687,4.8,9.333,9.64,14.009,14.453,9.2,9.474,19.26,16.019,30.285,23.112a91.073,91.073,0,0,1,12.72,9.386c3.816,3.554,8.891,6.042,13.452,8.624,2.035,1.152,3.483,2.807,5.68,3.752,2.064.887,3.506,1.177,5.237,2.341a97.778,97.778,0,0,0,13.663,7.535c5.768,2.656,11.444,5.746,17.368,8.013,2.7,1.033,5.238,2.159,7.852,3.367,2.829,1.307,5.881,2.165,8.783,3.558,2.452,1.177,4.935,1.861,7.431,2.823,2.038.786,3.638,2.058,5.717,2.88,4.317,1.705,8.246,2.623,12.44,4.633,5.573,2.671,12.177,3.917,18.047,5.839,6.554,2.147,13.353,4.283,20.079,5.8a68.4,68.4,0,0,1,8.064,2.476c1.8.639,3.866.989,5.861,1.6,5.513,1.681,11.023,3.3,16.565,4.73,10.828,2.793,21.89,6.146,32.391,9.937,5.506,1.988,11.091,4.38,16.373,6.911,5.971,2.86,12.405,4.511,18.4,7.343q17.365,8.2,34.558,16.841c6.009,3.016,11.934,6.123,17.8,9.4,2.129,1.19,4.457,1.681,6.572,2.848,2.766,1.527,5.036,3.768,7.869,5.281,10.92,5.832,22.065,11.326,32.1,18.705,5.249,3.862,10.889,7.817,15.425,12.519,1.5,1.551,4.091,3.953,4.362,6.2.4,3.33.025.266-1.128,2.32q-2.4.291-1.087,1.84a1.962,1.962,0,0,0,1.544.741c2.017.408,5.79-1.729,7.411-2.623,2.809-1.548,4.3-3.505,6.1-6.1,3.918-5.638,7.741-11.327,11.776-16.886,3.629-5,7.181-10.5,11.31-15.094,2.8-3.112,3.01-1.753,6.124,0,2.317,1.305,5.008,1.862,7.409,3.091,9.149,4.687,19.206,8.148,28.59,11.414,2.137.744,3.276,1.924,5.154,2.951,2.392,1.309,5.422,1.949,7.98,2.879,7.047,2.562,14.059,5.222,21.056,7.918,5.4,2.083,10.593,3.724,14.822,7.567,1.683,1.53,3.72,2.626,5.458,4.173,2.024,1.8,4.761,4.727,7.309,5.745l1.552,1.212q1.575-1.095,3.154-2.186t3.131-2.168c2.617-1.819,5.215-3.664,7.816-5.506,5.9-4.181,11.836-8.321,17.323-13.041,9.747-8.381,19.861-16.313,30.053-24.163,10.7-8.239,21.126-16.861,32.19-24.605,10.028-7.019,20.969-12.947,30.692-20.355,4.894-3.729,9.776-7.482,14.773-11.094a47.4,47.4,0,0,0,4.379-2.968c.069-.51-1.269-1.841-1.664-2.269-1.87-2.033-3.942-3.843-5.8-5.9-8.683-9.575-20.02-9.241-32-9.693-5.434-.205-11.327,2.3-16.488,4.007-6.311,2.086-12.4,5.148-18.495,7.792-12.563,5.449-25.529,10.1-38.219,15.152-4.99,1.984-9.961,2.952-15.034,4.316-5.147,1.385-10.449.065-15.954.164-2.857.051-5.558.218-8.435.056-1.708-.1-3.676-.42-5.363-.391-1.367.024-2.786.588-4.044.445-5.507-.624-11.324-1.5-17-2.215-5.639-.711-11.458-1.064-17.023-2.177a60.758,60.758,0,0,1-8.263-2.3c-2.34-.825-6.594-1.762-8.514-3.433-1.718-1.495-.967-1.515-.009-3.954a23.774,23.774,0,0,1,1.333-3.355c1.519-2.51,2.987-3.3,2.1-6.44-1.557-5.536-6.864-9.07-11.407-11.8-10.234-6.14-19.594-14.016-30.37-19.225-22.2-10.732-42.44-24.673-64.094-36.459-23.8-12.955-46.318-28.157-70.451-40.565-22.464-11.549-44.825-23.166-67.475-34.352-11.06-5.46-23.569-10.457-33.6-17.616,5.56-.69,11.136-1.581,16.715-2.075,2.588-.229,5.207-.017,7.78-.428,2.878-.46,5.6-1.624,8.471-2.108,4.939-.834,9.38-2.527,14.323-3.151,5.3-.67,10.491-2.228,15.816-2.664,11.139-.913,21.192-5.021,30.957-10.2,2.417-1.282,4.4-.549,6.719-1.421,1.276-.479,2.631-2.395,4.064-3.424,3.947-2.834,7.335-6.18,11.086-9.276,7.886,17.7,23.371,29.735,38.148,41.607,7.485,6.012,15.609,11.109,23.171,17.008a153.011,153.011,0,0,0,17.444,12.3c6.009,3.49,11.654,8.2,17.383,12.4,3.883,2.842,8.434,4.987,12.563,7.455,3.374,2.016,9.961,5.023,10.881,8.68.753,2.988-.716,6.544,3.844,5.17,4.083-1.229,7.043-5.762,9.421-8.955,6.15-8.262,11.887-16.8,17.6-25.37,3.067,5.986,8.357,10.3,13.247,14.735,2.971,2.7,6.055,5.2,9.264,7.606,1.556,1.168,3.13,2.313,4.689,3.478a10.844,10.844,0,0,1,2.4,1.815c.93,1.516.365.829.22,2.662-.226,2.871-1.184,5.13.441,7.881,1.526,2.583,4.853,3.686,7.185,5.45,5.548,4.2,11.382,8.662,17.537,11.941a37.147,37.147,0,0,1,4.019,2.3c2.172,1.519,1.775,2.07,3.964.614,3.423-2.279,6.38-6.062,9.469-8.81q9.708-8.637,19.644-17.02c12.631-10.63,25.635-20.731,38.109-31.551,11.854-10.282,24.562-19.133,36.8-28.908,3.357-2.681,6.673-5.417,9.986-8.153,2.95-2.435,7.737-5.119,9.919-8.235,3.169-4.526-9.227-10.711-12.967-11.632-6.449-1.587-14.788-.679-21.247.622-6.78,1.365-13.684,5.931-20.015,8.775-7.136,3.2-14.4,5.976-21.593,9-3.206,1.349-6.6,2.426-9.581,4.244-3.158,1.929-5.977,4.128-9.335,5.746a106.946,106.946,0,0,1-11.961,4.978,30.931,30.931,0,0,1-5.767,1.5c-2.744.357-2.372-.907-4.651-1.613-1.937-.6-2.4.985-4.139,1.426a5.1,5.1,0,0,1-4.286-.887c-3.166-1.965-5.984-4.675-9.151-6.721-2.938-1.9-6.177-3.673-8.931-5.823-1.228-.958-2.136-2.271-3.346-3.244-1.939-1.56-2.708-.941-4.972-2.015-1.851-.879-3.53-2.515-5.291-3.6-1.093-.673-3.744-1.523-4.449-2.612-1.852-2.859,1.309-4.845,4.14-4,.424-2.469,2.6-8.331,1.661-10.646-.832-2.048-3.016-1.665-4.853-2.749-6.9-4.076-12-11.482-18.458-16.271-6.089-4.515-11.461-9.9-17.493-14.5-5.167-3.939-10.814-7.785-15.519-12.033-5.563-5.022-12.685-8.929-18.733-13.412-6.248-4.63-12.054-9.782-18.235-14.465-5.947-4.505-11.788-9.211-17.9-13.5-5.492-3.855-11.249-7.375-16.627-11.283a47.59,47.59,0,0,0-9.53-5.425c-3.344-1.4-6.269-3.037-9.534-4.542a78.73,78.73,0,0,0-21.995-5.915,195.59,195.59,0,0,0-23.38-1.794c-4.172,0-8.224.791-12.371,1.043-3.81.23-7.93,1.194-11.713,1.067-1.713-.057-3.2-.782-4.861-.548-1.385.2-2.59,1.031-4.076,1.177-3.309.326-6.636,0-9.982.429-7.687.982-15.384,2.382-23.087,3.162-8.207.831-16.343.988-24.507,2.388-7.978,1.367-16.006,2.784-23.938,4.365-16.857,3.36-33.89,6.641-50.48,11.63a107.331,107.331,0,0,0-11.507,3.874,55.273,55.273,0,0,1-5.434,2.3c-2.7.83-3.234,1.145-4.626-1.122-2.4-3.9-3.716-9.063-5.455-13.308-1.719-4.2-3.807-8.435-4.8-12.822,2.9-.459,6.556.433,9.547.535,3.657.126,7.274.047,10.927.025,7.363-.044,13.12-2.219,20.087-4.5,5.872-1.925,13.69-3.029,18.169-7.437,2.4-2.363,3.2-2.779,6.811-2.355,3.642.427,7.239,1.163,10.916,1.285,13.858.46,27.653,2.878,41.574,3.356,3.766.129,13.185,1.914,12.568-4.473-.128-1.326-1.144-2.476-1.342-3.841a14.643,14.643,0,0,1,.383-4.378c.545-3.383,1.114-6.764,1.657-10.148,12.694,4.074,25.548,7.375,38.484,10.6,5.364,1.338,13.982,4.415,19.525,2.728,5.359-1.631,2.255-9.181.586-12.795,10.647,2.43,22,6.4,32.86,7.316,3.3.278,6.518,1.009,7.287-2.984.612-3.182-1.686-7.073-2.858-9.868,8.332-.744,16.96-.673,15.392-11.353-1.437-9.8-9.577-11.75-18.244-13.54-10.7-2.211-21.622-2.948-32.389-4.737-9.368-1.557-19.589-3.293-29.156-2.507-5.065.415-10.16.51-15.223.979a38.543,38.543,0,0,0-7,1.243c-2.133.6-5.116,2.461-7.3,2.494-3.3.052-7.278-4.41-10.827-5.441-4.4-1.278-9.133-1.51-13.675-1.823-5.148-.353-10.3-.55-15.448-.967-1.173-.1-5.606.195-6.532-.492-1.348-1-.451-6.135-.357-8.244.088-1.951-.288-5.6,1.064-6.37,1.27-.718,4.972.267,6.222.467a75,75,0,0,0,15.266.524c2.384-.1,4.674.538,7.035.225,2.533-.335,5.083-1.187,7.606-1.661,5.465-1.027,10.444-2.3,15.153-5.367,4.134-2.687,9.026-4.506,11.336-9.212,1.692-3.446,2.38-10.1-2.595-11.076a59.539,59.539,0,0,0,7.522-16.024,22.678,22.678,0,0,1,1.029-3.459c1.72-3.158.124-.357,2.578-1.62a17.914,17.914,0,0,0,6.068-4.4c3.021-3.459,4.293-7.716,4.675-12.223.518-6.121,1.486-13.023.592-19.113-1.547-10.549-9.257-18.475-17.091-24.855-4.253-3.464-9.852-4.754-14.84-6.856-4.815-2.03-10.194-4.158-15.267-4.634-4.579-.43-9.043-1.925-13.627-2.528-6.3-.83-12.607-.52-18.938-.772-2.914-.116-5.821-.527-8.722-.84-1.638-.177-4.408.012-5.908-.637-2.455-1.064-1.129,1.17-2.006-2.084-1.668-6.19-3.03-11.995-5.557-18.01a67.156,67.156,0,0,0-8.992-15.753c-3.544-4.494-8.14-7.781-12.315-11.62a77.747,77.747,0,0,0-10.132-7.713c-2.018-1.315-4.266-2.026-6.237-3.187a34.69,34.69,0,0,0-7.362-3.414c-5.91-1.892-11.775-3.9-18.052-3.8-6.767.106-13.551-1.469-20.139.528C420.095,34.862,414.1,48.12,414.306,60.3c-4.184-1.044-7.841-3.054-12.273-3.226a61.268,61.268,0,0,0-12.942.954c-7.782,1.471-15.786,5.8-20.426,12.353A23.322,23.322,0,0,0,366.3,92.025a37.719,37.719,0,0,0,5.567,9.286c1.612,2.1,5.21,4.433,5.38,7.252A578.46,578.46,0,0,0,285.72,88.886c-15.8-2.105-31.616-1.051-47.427-2.254-6.754-.514-14.094.2-21.076.232-2.948.012-5.242-.4-7.379-2.306-2.164-1.93-3.893-4.294-6.415-1.508-.644.711-.779,2.431-1.645,2.966-1.05.648-4.1.2-5.359.28a96.5,96.5,0,0,0-12.987,1.871c-7.91,1.575-15.769,3.167-23.585,5.166-14.882,3.807-29.567,7.489-44.234,12.008-14.966,4.611-30.09,10.3-43.889,17.764a177.74,177.74,0,0,0-19.505,12.6,64.224,64.224,0,0,0-7.9,6.838c-2.657,2.681-5.906,4.49-8.537,7.191-5.721,5.875-11.421,12.107-16.611,18.472-2.71,3.323-5.2,6.828-7.61,10.37-1.7,2.485-6.16,7.035-5.13,10.245a3.713,3.713,0,0,0,4.21,2.493c.59-.14,1.07-.9,1.57-.972,1.7-.24.16-.836,2.13-.035,3.93,1.593,5.18,4.788,10.17,4.061,8.477-1.237,16.452-5.241,24.163-8.732,2.2,8.42,2.514,17.149,4.442,25.67a106.867,106.867,0,0,0,8.8,23.866c3.32,6.69,7.583,13.82,13.46,18.6,4.484,3.648,15.551,8.18,18.845.413,1.4-3.3-.682-8.425-1.271-11.82-.791-4.556-1.663-9.125-2.139-13.727-.386-3.739-.581-7.5-.941-11.243-.311-3.22-1.171-10.133.64-12.977,1.091-1.714,1.186-.032,1.821,1.679.77,2.075,1.41,4.133,1.973,6.27,1.2,4.541,2.278,9.113,3.411,13.67,2.024,8.142,4.253,16.106,8.471,23.427,3.746,6.5,9.018,13.633,17.03,14.7a16.072,16.072,0,0,0,11.5-3.744c3.213-2.835,2.253-7.511,2.227-11.365Z" transform="translate(-6.276 -0.745)" fill-rule="evenodd"/><path d="M767.315,581.534c-4.4-.869-8.109-4.383-11.705-7.023-4.586-3.367-8.937-7.036-13.39-10.573a197.669,197.669,0,0,1-23.245-21.925,130.338,130.338,0,0,1-29.928-56.5c-2.473-10.437-5.532-22.666-4.128-33.452.488-3.747,1.232-4.434,4.906-4.86,1.659-.192,5.87-.669,7.364-.017,3.872,1.692,5.962,8.891,7.11,12.509,3.392,10.682,5.388,21.745,8.453,32.515,3,10.556,7.846,21.267,12.634,31.138,10.654,21.964,25.462,40.339,41.929,58.188M679.972,460.271c2.633,29.909,10.937,58.405,29.556,82.491a182.132,182.132,0,0,0,30.539,30.458c11.648,9.343,23.544,18.142,36.761,25.11,3.517,1.855,7.039,3.7,10.6,5.472,1.974.981,6.957,4.593,9.234,4.022,1.824-.459,2.3-1.87,2.585-3.706.638-4.121-2.039-6.178-4.746-8.824-10.875-10.632-21.784-21.3-31.952-32.612A200.926,200.926,0,0,1,719,484.739c-2.583-8.886-4.888-17.871-7.676-26.694-1.7-5.375-4.106-14.943-9.75-17.623-3.026-1.437-6.553-.039-9.735-.9-2.985-.808-4.963-2.456-7.507.308-4.464,4.85-4.663,14.363-4.358,20.441" transform="translate(-453.699 -0.745)" fill-rule="evenodd"/><path d="M140.354,632.843c2.229.79,2.322,1.573,3.343-.72a8.282,8.282,0,0,0,.254-3.94c-.29-2.876-1.8-5.533-3.048-8.083-11.708,9.658-23.865,18.362-36.419,26.9-13.426,9.125-26.245,19.271-38.943,29.379-11.371,9.053-22.879,17.838-34.131,27-5.427,4.421-11.614,7.847-16.773,12.4C10.468,719.463,3.554,721.113,0,725.444c5.632,3.366,13.151,6.076,19.392,3.164,6.885-3.212,12.166-7.4,18.293-11.752,3.157-2.243,6.44-4.279,9.647-6.449,2.819-1.909,4.81-4.7,7.664-6.485,6-3.763,12.151-7.909,17.842-12.206,5.846-4.413,12.308-7.924,17.948-12.614,5.782-4.809,12.254-7.995,18.291-12.373,12.794-9.277,24.06-19.712,31.277-33.886" transform="translate(881.459 -0.745)" fill-rule="evenodd"/><path d="M415.434,140.218l.477,2.563c-.1.022-7.753-14.768-9.021-16.554-4.3-6.055-9.9-11.093-15.3-16.15-11.432-10.712-24.812-19.358-36.015-30.261-3.686-3.587-10.29-9.022-8.832-15.087,1.449-6.028,13.681-4.8,17.87-3.059,6.567,2.735,11.9,8.455,16.8,13.439,5.338,5.437,10.719,10.813,15.243,16.966,4.878,6.635,9.509,13.821,12.5,21.521,3.349,8.626,4.657,17.553,6.282,26.622m-2.514,26.464c5.2,1.6-1.318,2.684.717,5.46,2.232,3.044,5.984-6.335,6.545-8.106,3.307-10.463,1.828-23.174.022-33.8-.912-5.359-1.5-10.806-2.731-16.107-1.2-5.169-3.813-10.081-6.227-14.783A113.273,113.273,0,0,0,392.75,73.5c-7.285-7.7-15.4-15.4-25.018-20.134-7.943-3.913-20.533-1.2-24.251,7.349-3.8,8.734,1.339,18.248,7.415,24.389a265.3,265.3,0,0,0,25.465,22.87c4.575,3.55,8.41,7.843,12.855,11.547a63.633,63.633,0,0,1,12.322,13.008c3.388,4.941,6.875,9.878,9.077,15.487,2.411,6.142,2.3,12.163,2.3,18.661" transform="translate(261.196 -0.745)" fill-rule="evenodd"/><path d="M48.218,543.326c11.938-7.688,23.916-14.436,34.312-24.24,10.265-9.678,19.233-20.594,30.657-28.991,5.7-4.19,11.583-8.124,17.182-12.45,5.314-4.107,11.422-7.625,16.225-12.309,6.4-6.246,18.388-17.852,10.209-27.164-10.152,12.074-24.081,21.591-36.78,30.758-13.39,9.665-25.68,20.94-38.382,31.47-12.235,10.143-24.429,20.379-36.368,30.792-3.135,2.735-6.159,5.607-9.331,8.3-.388.33-3.676,2.413-3.676,2.966,0,1.33,2.548,2.161,3.456,2.531,1.433.583,5.309,2.036,6.934,1.544.852-.258.867-.951,1.481-1.364a12.375,12.375,0,0,1,1.233-1.883q1.425.023,2.848.042" transform="translate(833.693 -0.745)" fill-rule="evenodd"/><path d="M835.751,409.3c8.51-.219,21.464-.244,20.987,11.377-.236,5.754-3.356,9.98-5.919,14.9a49.693,49.693,0,0,0-5.476,16.313c-3.195,23.467,5.377,46.393,13.13,68.087-16.651-13.439-28.676-32.139-34.99-52.636a91.167,91.167,0,0,1-3.263-33.066c.495-5.179,2.405-9.822,4.705-14.436,1.155-2.318,2.31-4.965,4.152-6.841s4.4-2.506,6.674-3.7m29.686,124.12c5.5-9.041-3.158-22.353-5.988-31.169-3.384-10.54-6.506-21.514-7.952-32.507-1.515-11.515.441-20.468,5.778-30.639,4.773-9.093,7.606-21.2,2.3-30.824-2.137-3.872-5.292-4.348-9.043-5.893-4.6-1.895-5.872-5.1-11.522-4.593-10.081.9-14.745,10.466-18.5,18.612-8.744,18.99-6.367,43.5,1.09,62.566,4.292,10.972,9.187,22.365,16.474,31.708a91.87,91.87,0,0,0,12.131,12.374c4.715,4.133,8.939,9.115,15.227,10.365" transform="translate(-656.622 -0.745)" fill-rule="evenodd"/><path d="M255.421,203.718c13.29,2.671,25.418,8.661,27.547,23.6,1.935,13.574-7.311,26.132-18.665,32.486-12.28,6.874-27.667,8.016-39.9.4-12.881-8.02-15.8-24.092-7.963-36.7,8.748-14.071,23.4-18.224,38.984-19.78m-8.541-6.512c-15.826,2.319-30.517,13.582-35.848,28.751-5.5,15.637-.446,32.829,14.1,41.4,29.4,17.317,68.706-11.542,61.609-44.712-1.8-8.422-6.919-14.944-13.871-19.875-7.675-5.445-16.956-5.593-25.994-5.561" transform="translate(529.072 -0.745)" fill-rule="evenodd"/><path d="M760.187,38.41,817.4,12.544q1.173,12.966,2.347,25.931c.212,2.339,1.078,5.521.709,7.829-.395,2.463.448,2.2-2.763,1.85-4.106-.449-8.226-1.463-12.29-2.188-7.306-1.3-15.076-1.676-22.227-3.594-3.649-.979-7.144-1.1-10.848-1.694-4.068-.65-8.027-1.854-12.136-2.268m64.506,16.71c0-9.737-1.082-19.343-1.973-29.035-.8-8.72-1.111-17.032-3.957-25.34C816.1,5.574,808.741,7.5,804.185,9.989c-6.278,3.424-12.964,5.945-19.39,9.064-6.312,3.063-12.392,6.58-18.711,9.636-3.2,1.55-6.457,3-9.655,4.558-2,.978-6.75,2.552-7.995,4.368-3.781,5.512,9.16,6.045,11.658,6.531,7.491,1.461,15.069,2.284,22.546,3.786,6.971,1.4,13.955,2.7,20.951,3.974,6.924,1.258,14.058,3.214,21.1,3.214" transform="translate(-546.918 -0.745)" fill-rule="evenodd"/><path d="M193.487,296.169c-7.508-.781-14.985-1.9-22.485-2.647-7.1-.7-13.384-1.451-19.872-4.705q13.292-4.008,26.678-7.616c4.432-1.2,8.855-2.464,13.307-3.582,3.444-.866,6.446-1.364,7.77-5.123,1.541-4.376-2.744-3.713-5.415-2.6-3.684,1.533-7.7,2.486-11.515,3.761-8.522,2.845-17.1,5.462-25.7,8.049-2.674.8-18.168,3.778-12.585,8.947,2.389,2.213,7.72,3.428,10.641,5.017,3.747,2.038,7.826,2.85,11.994,3.661,8.687,1.69,17.7,2.339,26.5,3.805l13.471,2.247c2.631.438,3.644.4,4.331-2.539.5-2.132-.152-4.265-.632-6.33-1.218-5.247-2.573-10.467-3.914-15.683-.51-1.99-1.413-10.738-3.188-11.695-4.027-2.171-.92,9.94-.621,11.423,1.13,5.594,2.472,11.149,3.076,16.826-3.955-.358-7.9-.729-11.839-1.215" transform="translate(672.269 -0.745)" fill-rule="evenodd"/><path d="M152.131,340.7c-1.49,3.741.984,4.578,3.986,5.874,3.894,1.681,7.724,3.455,11.689,4.969,8.341,3.183,16.742,6.139,24.884,9.822,15.529,7.023,31.268,13.767,46.556,21.287,3.8,1.869,7.6,3.731,11.434,5.531,3.964,1.862,8.51,5,12.751,6.059,3.7.928,4.085-1.706,1.893-4.132-2.826-3.129-7.2-5.465-10.744-7.64-14.606-8.953-30.547-16.241-46.5-22.4-18.439-7.12-36.928-13.951-55.949-19.37" transform="translate(607.167 -0.745)" fill-rule="evenodd"/><path d="M303.264,128.478c.534-11.374-.987-22.779-.08-34.123,15.6,13.826,7.912,35.193-1.06,50.2Zm-6.751-.65c-.1,5.556-.414,11.109.126,16.637.567,5.8-2.155,8.792-5.7,13.066,3.013,3.058,9.927-4.072,11.836-6.174,3.931-4.328,6.856-10.078,9.459-15.275,5.544-11.071,9.362-22.924,4.925-35.079-1.645-4.505-3.657-10.63-8.012-13.253-4.782-2.88-8.44,1.182-10.424,5.36-4.844,10.194-1.151,23.776-2.207,34.718Z" transform="translate(415.49 -0.745)" fill-rule="evenodd"/><path d="M496.136,693.207c-7.191.57-14.275,1.131-21.467,1.587q1.861-14.787,3.724-29.576,6.242,1.446,12.483,2.889c1.967.455,4.984.575,6.725,1.557l1.953.452q.027,1.918.044,3.839.074,5.679.315,11.351c.066,1.585.619,3.906.24,5.476q1.01,2.382-1.288,2.025l-2.729.4m4.951,7.127c5.637-2.807,4.1-11.383,4.087-16.842-.007-3.473-.252-6.923-.343-10.391-.063-2.384.482-5.334-.338-7.637-1.459-4.1-8.6-3.986-12.269-3.7a51.94,51.94,0,0,1-7.79-.1c-1.375-.088-2.909.174-4.26-.232a25.019,25.019,0,0,1-2.919-2.01c-4.931.189-5,12.012-5.317,15.012q-1.187,11.092-2.151,22.213c-.171,1.961-.9,4.178.963,5.3,1.68,1.01,6.133.012,7.991-.045,7.49-.226,14.938-1.394,22.346-1.562" transform="translate(50.647 -0.745)" fill-rule="evenodd"/><path d="M818.826,261.019c-3.259,2.933-1.693,5.959-.626,9.623.642,2.2,4.168,9.419,3.195,11.476-1.125,2.378-6.407,2.963-8.666,3.714A89.638,89.638,0,0,0,801.12,290.3c-1.652.819-7.611,2.7-8.728,4.229a2.365,2.365,0,0,0-.392,2.691c.845,1.982,2.05.933,4.109.508,9.409-1.944,18.738-4.43,27.464-8.53,2.433,5.647,4.493,11.414,6.551,17.208.6,1.7,1.179,5.556,3.47,5.831,2.794.334,2.832-3.408,2.646-5.427-.27-2.948-1.8-6.091-2.72-8.882-.761-2.3-3.43-7.1-3.1-9.475.225-1.634,1.221-1.52,3-2.162,1.677-.606,3.355-1.209,5.031-1.822,2.687-.983,5.363-1.969,7.978-3.135,1.435-.64,4.438-1.388,5.477-2.716.6-.77,1.275-3.545.514-4.313-1.779-1.8-13.611,3.043-16.044,3.7-1.614.439-3.236.774-4.8,1.349-.593.219-1.295,1.107-1.936,1.14-2.722.138-2.938-1.955-3.782-4.2a87.062,87.062,0,0,0-7.025-15.277" transform="translate(-618.975 -0.745)" fill-rule="evenodd"/><path d="M225.545,364.814c1.451-3.557-13.95-7.854-16.809-9.052-6.978-2.921-14.454-4.688-21.679-6.919-7.1-2.194-14.179-4.556-21.167-7.1-2.161-.786-17.723-8.363-18.537-7.255-2.7,3.666,29.959,15.182,33.141,16.328,14.776,5.32,30.033,9.4,45.051,13.993" transform="translate(652.687 -0.745)" fill-rule="evenodd"/><path d="M796.276,86.648c3.992.04,9.75,1.172,13.413-.448l-13.413.448" transform="translate(-580.443 -0.745)" fill-rule="evenodd"/><path d="M240.694,197.206l8.877-.032c-2.962-.687-5.922-1.1-8.877.032" transform="translate(535.258 -0.745)" fill-rule="evenodd"/><path d="M718.111,194.835l-6.266-.034,6.266.034" transform="translate(-404.433 -0.745)" fill-rule="evenodd"/><path d="M894.8,249.055q.024,3.359.049,6.707-.021-3.363-.049-6.707" transform="translate(-764.136 -0.745)" fill-rule="evenodd"/><path d="M475.986,661.765l6.667.481-6.667-.481" transform="translate(66.884 -0.745)" fill-rule="evenodd"/><path d="M488.409,235.035q3.387.273,6.771.55-3.385-.278-6.771-.55" transform="translate(41.934 -0.745)" fill-rule="evenodd"/><path d="M733.586,194.1l-4.78-.009,4.78.009" transform="translate(-436.87 -0.745)" fill-rule="evenodd"/><path d="M401.391,239.4l5.956.537-5.956-.537" transform="translate(216.785 -0.745)" fill-rule="evenodd"/><path d="M489.085,97.679l5.957.036a6.933,6.933,0,0,0-5.957-.036" transform="translate(41.396 -0.745)" fill-rule="evenodd"/><path d="M128.642,441.128c1.652-.088,3,.714,3.93-.862-1.525-1.189-2.4.181-3.93.862" transform="translate(764.309 -0.745)" fill-rule="evenodd"/><path d="M433.8,308.514l5.156-.58Z" transform="translate(152.765 -0.745)" fill-rule="evenodd"/><path d="M477.192,700.335l-3.4.077c1.143-.027,2.273-.052,3.4-.077" transform="translate(74.542 -0.745)" fill-rule="evenodd"/><path d="M733.043,89.89l5.324.477-5.324-.477" transform="translate(-445.887 -0.745)" fill-rule="evenodd"/><path d="M170.756,628.331q2.558.011,5.113.021l-5.113-.021" transform="translate(678.898 -0.745)" fill-rule="evenodd"/><path d="M33.668,598.11l5.161.009-5.161-.009" transform="translate(953.025 -0.745)" fill-rule="evenodd"/><path d="M468.414,236.454l5.241.515-5.241-.515" transform="translate(83.454 -0.745)" fill-rule="evenodd"/><path d="M419.756,239.289l5.155-.594c-1.7.333-3.6-.982-5.155.594" transform="translate(180.856 -0.745)" fill-rule="evenodd"/><path d="M584.259,308.286a15.291,15.291,0,0,0-3.675-.321c.144.63,3.264.319,3.675.321" transform="translate(-139.32 -0.745)" fill-rule="evenodd"/><path d="M475,443.123c-1.153.022-2.307.044-3.448.063l3.448-.063" transform="translate(78.975 -0.745)" fill-rule="evenodd"/><path d="M362.353,305.8q2.526.246,5.051.488-2.527-.243-5.051-.488" transform="translate(295.766 -0.745)" fill-rule="evenodd"/><path d="M181.611,300.063l-2.742.075,2.742-.075" transform="translate(665.043 -0.745)" fill-rule="evenodd"/><path d="M422.72,307.07l4.32-.086-4.32.086" transform="translate(175.763 -0.745)" fill-rule="evenodd"/><path d="M155.4,296.169l4.366.538-4.366-.538" transform="translate(710.357 -0.745)" fill-rule="evenodd"/><path d="M362.177,283.8c-.9.036-1.8.072-2.686.111.9-.034,1.8-.072,2.686-.111" transform="translate(303.855 -0.745)" fill-rule="evenodd"/><path d="M430.815,435.03c-.913-.06-1.825-.119-2.726-.18.916.059,1.821.12,2.726.18" transform="translate(166.619 -0.745)" fill-rule="evenodd"/><path d="M493.528,316.609l4.4-.549-4.4.549" transform="translate(34.064 -0.745)" fill-rule="evenodd"/><path d="M146.459,543.326c-.953-.013-1.906-.026-2.848-.042.956.013,1.9.028,2.848.042" transform="translate(735.453 -0.745)" fill-rule="evenodd"/><path d="M60.809,424.906q2.277-.228,4.555-.459-2.277.228-4.555.459" transform="translate(899.349 -0.745)" fill-rule="evenodd"/><path d="M28.5,598.318l4.477.517-4.477-.517" transform="translate(964.052 -0.745)" fill-rule="evenodd"/><path d="M845.963,194.593q.176,1.935.354,3.865-.176-1.938-.354-3.865" transform="translate(-666.757 -0.745)" fill-rule="evenodd"/><path d="M180.284,627.042l4.5.517-4.5-.517" transform="translate(660.453 -0.745)" fill-rule="evenodd"/><path d="M165.5,628.53a3.587,3.587,0,0,0,4.557,0l-4.557,0" transform="translate(689.96 -0.745)" fill-rule="evenodd"/><path d="M136.843,629.8l4.417,0-4.417,0" transform="translate(747.42 -0.745)" fill-rule="evenodd"/><path d="M313.142,127.828q.189-1.96.378-3.915-.189,1.963-.378,3.915" transform="translate(398.861 -0.745)" fill-rule="evenodd"/><path d="M469.938,98.643l4.439.547-4.439-.547" transform="translate(81.208 -0.745)" fill-rule="evenodd"/><path d="M475.11,97.951l4.512.506-4.512-.506" transform="translate(70.791 -0.745)" fill-rule="evenodd"/><path d="M248.788,272.106l-2.765-.042,2.765.042" transform="translate(530.712 -0.745)" fill-rule="evenodd"/><path d="M394.753,257.632a38.7,38.7,0,0,0-14.733,0Z" transform="translate(250.75 -0.745)" fill-rule="evenodd"/><path d="M514.779,202.385c-1.022-2.67-1.276-3.672-3.772-5.054,1.039,2.6,1.2,3.983,3.772,5.054" transform="translate(-0.263 -0.745)" fill-rule="evenodd"/><path d="M631.069,466.624q-.148,4.164-.295,8.325.148-4.166.295-8.325" transform="translate(-236.32 -0.745)" fill-rule="evenodd"/><path d="M802.23,93.06l6.655.151-6.655-.151" transform="translate(-585.592 -0.745)" fill-rule="evenodd"/><path d="M513.14,515.963q-.117,3.471-.232,6.941.117-3.474.232-6.941" transform="translate(-0.526 -0.745)" fill-rule="evenodd"/><path d="M247.381,441.819l-6.733.048,6.733-.048" transform="translate(537.494 -0.745)" fill-rule="evenodd"/><path d="M427.373,322.946c1.353.013,2.7.025,4.043.042-1.356-.012-2.7-.027-4.043-.042" transform="translate(166.734 -0.745)" fill-rule="evenodd"/><path d="M423.686,249.384c1.112-.038,2.225-.076,3.325-.11-1.117.039-2.221.074-3.325.11" transform="translate(174.826 -0.745)" fill-rule="evenodd"/><path d="M273.241,441.119l-5.264-.515,5.264.515" transform="translate(484.305 -0.745)" fill-rule="evenodd"/><path d="M234.9,441.908l-5.156-.08,5.156.08" transform="translate(560.883 -0.745)" fill-rule="evenodd"/><path d="M253.435,441.863l-5.341-.465,5.341.465" transform="translate(523.994 -0.745)" fill-rule="evenodd"/><path d="M251.942,444.685l2.643-.016-2.643.016" transform="translate(518.996 -0.745)" fill-rule="evenodd"/><path d="M630.393,404.913q-.2-1.957-.4-3.909.2,1.959.4,3.909" transform="translate(-234.867 -0.745)" fill-rule="evenodd"/><path d="M367.187,273.043l-3.351.286,3.741.191a.463.463,0,0,0-.39-.477" transform="translate(294.11 -0.745)" fill-rule="evenodd"/><path d="M650.838,492.46c.071-1.188.143-2.377.212-3.558q-.106,1.786-.212,3.558" transform="translate(-276.365 -0.745)" fill-rule="evenodd"/><path d="M381.587,268.51l2.678.052-2.678-.052" transform="translate(259.671 -0.745)" fill-rule="evenodd"/><path d="M716.835,418.477l-4.481.524,4.481-.524" transform="translate(-403.666 -0.745)" fill-rule="evenodd"/><path d="M399.317,320.041c.92.014,1.839.027,2.747.043-.923-.013-1.835-.028-2.747-.043" transform="translate(224.142 -0.745)" fill-rule="evenodd"/><path d="M348.937,140.218c-.965.515-.464,2.779.477,2.563l-.477-2.563" transform="translate(327.692 -0.745)" fill-rule="evenodd"/><path d="M843.746,409.3l2.647-.069-2.647.069" transform="translate(-664.616 -0.745)" fill-rule="evenodd"/><path d="M306.489,128.478q.141-2.992.28-5.978-.139,3-.28,5.978" transform="translate(412.265 -0.745)" fill-rule="evenodd"/><path d="M478.742,692.607l-4.1.6,4.1-.6" transform="translate(72.135 -0.745)" fill-rule="evenodd"/><path d="M443.488,179.023c4.815.991,9.76,1.509,14.462,2.968,1.173.364,5.023,2.6,6.428,2.011,2.135-.9,1.055-3.2.156-4.426a13.368,13.368,0,0,0-10.657-5.083c-3.939.042-9.347-.1-10.389,4.53" transform="translate(116.415 -0.745)" fill-rule="evenodd"/><path d="M465.365,187.833c-5.3,3.711-9.352,5.539-9.8-2.8-5.746.783-3.171,10.037,1.177,10.735,4.732.759,7.889-3.968,8.624-7.933" transform="translate(107.917 -0.745)" fill-rule="evenodd"/></g></g></svg>