<svg xmlns="http://www.w3.org/2000/svg" width="613" height="698" viewBox="0 0 613 698"><g transform="translate(-195 -47)"><path d="M542.373,149.024c3.963-.424,4.529,4.951,5.069,7.4,1.527-.964,2.887-.042,3.232-2.293,4.832,5.062,8.7,10.873,12.991,16.372,4.115,5.276,10.547,9.473,14.107,15.019,3.021,4.709-1.964,11.859-2.58,16.88-.7,5.659.782,12.136,4.647,16.45a12.11,12.11,0,0,0,6.691,3.961c2.657.539,5.185-1.02,7.525-.688,1.941.275,2.026,1.558,2.7,3.465a15.212,15.212,0,0,0,4.3,6.924c2.45,2.052,5.081,2.645,6.95,5.4,1.631,2.407,2.555,4.737,5.085,6.408,3.374,2.229,8.788,2.9,8.423,8.108q.87-.691,1.74-1.383a90.4,90.4,0,0,0,5.173,12.574,9.287,9.287,0,0,1,1.354,5.036c-.032,1.4-.8,2.452.03,3.8,1.324,2.163,4.864,1.869,6.481,3.618,1.657,1.794-.063,4.227,1.852,5.79-.807.247-3.042,2.053-2.2,3.15,1.209,1.576,1.3-.584,2.148-.324,1.946.6,1.535,3.025,3.053,3.685.312.136.288-1.319.272-1.694l0-.014,1.172,2.287c9.866,19.093,21.428,37.281,30.723,56.65l1.1,2.33a816.714,816.714,0,0,0,61.322,108.164c5.428,8.1,11.385,16.137,16.4,24.463,5.042,8.369,11.328,15.786,16.906,23.787,5.738,8.232,10.99,16.8,16.774,24.994,4.613,6.535,10.251,13.491,10.177,21.918-.035,3.745-.579,7.882-4.189,9.894-.087-1.544-2.424.164-2.981.543-2.411,1.641-1.1,1.459-3.7.886-4.218-.931-7.82.329-11.722-2.069-8.277-5.085-16.434-10.313-24.86-15.166-18.21-10.487-36.239-21.225-53.132-33.759-29.531-21.911-61.616-41.545-88.755-66.469-27.119-24.9-55.578-49.613-87.759-67.828-2.157-1.221-8.34-3.053-7.77-5.965.5-2.552,6.06-6.13,8.01-7.9,6.769-6.133,13.818-11.937,20.346-18.333,12.053-11.807,24.016-24.838,33.684-38.692,4.7-6.739,7.1-14.235,9.848-21.9,2.423-6.764,4.663-15.09.73-21.782a7.708,7.708,0,0,0-7.851-4.122c-2.91.194-2.78.79-3.933-2.3-1.242-3.323-2.252-7.178-5.583-9.1-3.451-1.993-5.8.132-8.6,2.127-3.215-4.642-7.159-12.675-13.64-13.12-6.768-.463-10.612,7.9-12.949,12.926-6.911,14.87-15.9,28.76-25.573,42-10.482,14.354-21.2,28.955-32.747,42.471-2.445,2.861-5.221,7.037-8.666,8.773-3.534,1.782-6.467.108-9.454-1.941-7.04-4.829-13.886-9.788-21.216-14.209-8.118-4.9-16.464-9.383-24.743-14-3.653-2.035-7.119-4.486-10.883-6.314-3.507-1.7-7.326-2.547-10.916-4.038,13.183-3.93,27.069,1.219,39.546,5.3,6.476,2.119,13.249,4.326,20.163,3.756,5.98-.492,11.407-3.694,16.137-7.191,8.55-6.322,9.222-15.817,6.433-25.414-3.208-11.046-8.115-21.669-11.823-32.564-1.686-4.956-2.848-10.219.991-14.5,3.435-3.832,7.88-4.3,12.568-2.8,11.368,3.658,21.452,7.093,33.638,6.745,9.527-.271,21.645-2.975,28.064-10.717,3.518-4.244,3.652-10.079,3.666-15.343a131.087,131.087,0,0,0-1.249-18.689c-1.558-11.02-5.6-22.054-.531-32.754C535.791,155.219,539.1,149.374,542.373,149.024Zm99.044,137.615v.036l0-.009C641.412,286.587,641.414,286.586,641.417,286.639ZM247.11,234.913c2.979-4.121,11.13-13.716,17.353-11.616a6.93,6.93,0,0,1,2.588,2.257q.762.988,1.511,1.987.465,1.313,1.672.775c2.183,3.022,5.263,5.305,6.517,9.017,1.243,3.678,4.578,7.245,6.545,10.619,1.522,2.609,4.952,9.575,4.69,12.838v8.329c-.31,3.237-6.361,9.028-8.489,11.217-5.284,5.439-11.023,6.135-18.854,5.441-6.633-.588-15.225-2.8-19.715-8.072-4.31-5.059-4.249-12.9-3.611-19.129C238.208,249.875,242.024,241.949,247.11,234.913Zm20.41,1.381c-1.214-2.256-3.871-2.813-6.206-2.546s-5.012.463-7.152,1.5c-1.976.962-2.976,2.647-5.44,2.081.976,1.682-.772,2.653-1.024,4.168a6.127,6.127,0,0,0,1.59,5.168c2.661,3.058,6.637,3,10.336,3.3,3.127.252,6.974.77,8.812,3.7,1.185,1.89.11,3.251.665,5.149.409,1.4,2.117,2.2,2.864,3.4,2.5-3.685,2.416-11.577.889-15.517a35.518,35.518,0,0,0-3.165-5.918c-.354-.536-1.189-1.174-1.411-1.616C267.894,238.4,267.94,237.073,267.52,236.294Z" fill="#8675a9" fill-rule="evenodd"/><g transform="translate(195 47.476)"><path d="M364.309,680.236c4.528-1.771,10.11-.944,14.858-.859,5.961.108,11.938.56,17.881,1.025,11.413.9,22.768.517,34.191,1.584,5.671.529,11.346,1.019,17.021,1.5,4.969.423,10.739,1.741,15.7.793,2.048-.392,7.576-2.319,6.551-5.318-.79-2.314-7.013-3.741-9.04-4.4-4.769-1.551-9.693-2.662-14.514-4.044-2.476-.71-4.942-1.473-7.549-1.226-2.213.209-4.544,1.86-6.786,1.67-3.315-.281-5.024-4.444-7.456-6.28-3.872-2.925-6.743-1.362-9.711,1.861-2.195,2.382-4.286,5.987-7.887,6.2-4.581.271-5.473-3.657-3.451-6.988,1.862-3.069,6.932-6.215,7.2-10.04.172-2.418-3.7-8.886-5.92-9.806-3.742-1.547-9.032,2.549-12.415,3.806-5.909,2.194-11.941,4.137-17.924,6.119-4.092,1.355-10.164,1.475-10.937,6.27-.967,6,.211,12.1.184,18.129M130.118,587.943c1.19-2.636,2.439-4.135.06-6.581-1.329-1.368-3.2-2.041-4.514-3.46-1.967-2.133-5.049-7.963-.833-9.431,4.03-1.4,7.425,4.205,10.668,5.437,4.116,1.564,6.666-1.058,7.255-4.991.756-5.053-.076-10.334.527-15.45.591-5.016,2.343-9.181,3.687-13.983.911-3.256,2.027-6.534-2.108-7.256-3.792-.662-8.19.913-12.035,1.124-6,.329-12.066.632-18.013,1.531-6.64,1-6.519,7.794-8.186,13.345-4.042,13.456-9.462,26.661-11.986,40.534-1.088,5.982,1.8,10.079,5.154,14.783,4.2,5.889,8.576,11.763,13.337,17.219,3.179,3.643,6.761,7.036,11.39,8.711,5.244,1.9,7.248-.209,6.038-5.378-1.6-6.823-4.007-13.414-3.723-20.52.1-2.588.856-5.369-1.01-7.534-1.294-1.5-3.511-2.009-5.2-2.922-2.784-1.509-7.1-6.36-1.673-7.4,3.684-.71,7.6,1.767,11.165,2.226M255.38,320.668c3.31,3.7,6.908,7.232,10.046,11.071,1.8,2.2,3.074,4.849,5.005,6.936,4.229,4.57,8.443-.494,12.187-3.455,14.729-11.644,28.589-24.262,42.622-36.725,6.686-5.938,13.8-11.414,20.378-17.465,6.665-6.129,12.214-13.3,18.458-19.836,3-3.135,6.589-6.246,8.44-10.252,1.58-3.416,1.928-7.132,3.728-10.51,3.116-5.85,8.83-12.641,7.519-19.716-3.858,4.045-10.284,18.54-17.017,11.742-4.8-4.852.1-12.024-.111-17.681-4.562,1.936-3.377,9.786-8.24,11.175-2.631.751-4.881-1.63-6.108-3.718-2.121-3.61-1.343-7.389-.379-11.218.656-2.61,4.846-11.218.7-12.28-3.591-.92-6.6,5.685-7.791,8.025-2.181,4.291-3.87,8.73-6.265,12.928-4.13,7.24-8.887,14.156-13.423,21.146-9.341,14.395-19.993,27.907-30.95,41.1-11.7,14.093-24.372,27.382-38.8,38.731m103.765,45.787c-.472,12.681-11.369,22.3-20.8,29.348-12.048,9.01-23.162,19.252-37.531,24.38-5.532,1.975-12.44,1.406-14.657,7.632-.865,2.434-.079,3.329.86,5.779a64.54,64.54,0,0,1,3.048,12.026c2.37,13.728.066,27.708-8.183,39.137-4.385,6.076-9.988,11.241-15.781,15.95s-11.245,10.178-17.616,14.064c-13.588,8.289-28.683,13.048-44.351,15.338-8.149,1.192-16.331,2.253-24.562,2.674-4.267.218-8.543.258-12.813.071-1.908-.084-9-1.7-10.382-.6-1.061.842-1.534,5.937-1.746,7.343-.451,2.972-.806,5.9-1.42,8.85-1.233,5.914-2.894,12.606-1.077,18.573.526,1.726.952,3.131,2.55,3.711,1.013.368,2.808-.279,3.832-.384a32.187,32.187,0,0,1,6.834-.084c7.647.809,15.156,2.763,22.884,2.231,16.475-1.135,32.968-2.3,49.293-4.873,7.941-1.254,15.56-3.627,23.369-5.459,7.443-1.747,14.882-3.511,21.829-6.792a159.03,159.03,0,0,0,37.425-24.9c12-10.637,19.937-23.245,27.441-37.315,6.592-12.36,12.15-24.87,11.861-39.119-.183-9.017-1.475-20.19,3.738-28.142,2.382-3.632,7.186-7,11.662-5.078,8.123,3.487.449,10.391-2.649,14.173-4.463,5.449-3.863,13.746-4.326,20.41-.547,7.864-2.314,14.761-4.037,22.365-1.686,7.443,1.715,16.273,2.051,23.865.365,8.234.125,16.476.033,24.713-.183,16.382.578,32.72.522,49.1-.03,8.5.187,17.033-.35,25.516-.489,7.736-2.074,15.136-3.461,22.731-1.361,7.455-3.345,16.382-2.887,23.96,18.614-7.085,36.732-15.454,55.632-21.783-5.895-5.14-6.157-12.4-6.633-19.653-.626-9.559-2.2-19.037-2.886-28.6a373.927,373.927,0,0,1,.631-57.6c1.724-20.246,4.782-40.424,5.411-60.755a151.293,151.293,0,0,0-2.05-29.278c-1.344-8.142-2.511-18.388-6.757-25.6-4.057-6.894-11.515-11.273-17.739-15.969-9.1-6.866-17.531-14.588-26.216-21.959m1.127-264.808a75.946,75.946,0,0,0,7.749,8.812c2.876,2.841,4.1,2.213,7.54.735,6.84-2.939,6.709-6.339,2.89-12.233-8.856-13.67-12.216-29.949-21.587-43.34C347.63,42.428,334.2,31.768,320.1,24.161,304.969,16,288.572,13.4,271.517,13.643c-8.716.125-17.487.726-26.148,1.7-8.426.949-15.92,3.714-24.076,5.8-4.106,1.051-8.34,1.922-12.332,3.366-3.5,1.266-6.651,3.222-10.189,4.4-7.746,2.588-15.542,5.481-22.53,9.713a163.578,163.578,0,0,0-19.2,13.635c-6.427,5.263-12.009,11.379-18.959,16-6.327,4.208-11.359,9.875-17.1,14.806a95.977,95.977,0,0,0-16.019,17.973c-4.4,6.366-6.071,14.6-8.727,21.78-3.092,8.354-6.158,17.286-7.323,26.144-2.171,16.506,2.7,35.8,8.9,51.074,6.127,15.108,16.055,27.714,27.9,38.775a85.111,85.111,0,0,0,19.138,13.9c6.04,3.086,13.916,8.634,20.49,4.757,2.662-1.57,4.823-3.395,7.9-4.1,3.364-.772,6.659-.456,9.374-2.922,2.308-2.1,3.412-4.626,6.442-5.891,3.593-1.5,7.842-1.774,11.689-1.762,8.639.029,17.283,2.191,25.528,4.589,7.556,2.2,13.879,5.51,21.906,3.5,5.965-1.492,15.532-5.459,16.817-12.3,1.15-6.112-3.285-14.013-5.518-19.483a161.789,161.789,0,0,1-7.822-22.938c-1.537-6.3-3.95-16.369.388-22.124,4.262-5.654,14.118-5.586,20.241-4.164,4.013.932,7.7,2.809,11.717,3.755a107.1,107.1,0,0,0,12.494,1.921c14.459,1.635,35.029-2.062,34.259-20.538-.685-16.467-9.759-32.974-4.445-49.461,2.165-6.72,6.589-14.492,13.956-16.266,5.843-1.407,13.74.068,18.894,3.124,4.137,2.453,8.236,7.59,1.1,9.23M69.917,175.2C55.343,178.042,45.7,193.4,43.033,207.028c-1.21,6.173-1.638,13.525.7,19.5,2.7,6.886,10.325,9.76,17.055,11.2,7.693,1.651,14.51,1.006,20.609-4.328a38.038,38.038,0,0,0,6.879-8.062c1.97-3.053,4.71-5.277,2.729-8.689a147.961,147.961,0,0,1-12.335-26.059,112.834,112.834,0,0,1-3.684-12.479c-.76-3.394-1.128-5.466-5.072-2.915m127.647,92.219a30.1,30.1,0,0,1-9.7,6.339c-3.993,1.6-5.205.833-5.007,5.451.219,5.1.256,9.183-2.069,13.929-1.088,2.222-5.108,5.22-4.349,7.719,1.09,3.587,12.254,7.214,15.511,8.468,7.792,3,16.883,3.063,24.238-1.178,8.543-4.926,9.3-13.857,6.081-22.5-.344-.922-1.592-2.48-1.285-3.487.564-1.846,2.885-1.579,4.217-.874,2.892,1.53,4.1,6.183,4.723,9.087,1.663,7.758-1.392,16.16-7.2,21.505a33.516,33.516,0,0,1-17.039,7.395c-1.823.183-4.125-.392-5.866.127-3.068.915-3.205,4.7-3.972,7.465a67.325,67.325,0,0,0-2.122,15.411c-.291,8.273.694,18.813,5.453,25.826,11.1,16.364,32.577,22.044,49.343,30.466a163.421,163.421,0,0,1,25.111,16.113,22.308,22.308,0,0,0,2.9,2.221c3.181,1.565.4.995,2.439-.039,1.568-.8,2.91-2.525,4.53-3.426,3.731-2.077,7.921-3.2,11.716-5.16,8.823-4.563,16.629-10.225,24.46-16.268,8.024-6.193,16.151-11.847,23.471-18.9,3.087-2.971,6.562-5.421,9.693-8.265,3.154-2.866-.882-4.055-3.553-6.164-9.09-7.179-18.067-14.586-27.774-20.931-3.238-2.117-6.094-4.972-9.472-6.843-3.528-1.954-5.622-.2-8.4,2.281a93.437,93.437,0,0,1-9.312,7.7c-4.464,3.069-9.654,4.546-14.142,7.468,2.881,3.016,9.907,4.025,10.926,8.594,1.034,4.63-5.861,8.243-9.084,10.031a66.353,66.353,0,0,1-18.308,6.445c-5.276,1.139-13.1-.576-17.326,3.406-1.206-2.55-2.336-3.882-.352-6.321s5.515-2.854,8.312-3.791c7.553-2.531,14.993-5.9,22.3-9.064-.97-2.27-3.4-3.824-5.243-5.3a46.63,46.63,0,0,1-7-7.075c-4.1-5.007-7.773-10.348-11.676-15.5-1.692-2.236-3.236-4.468-6.327-3.23-2.729,1.092-5.392,3.926-8.015,5.394-5.93,3.319-11.118,6.507-17.646,8.619-2.63.851-13.4,3.274-10.536-3.309.849-1.952,3.687-2.756,5.435-3.609,3.23-1.578,6.45-3.186,9.562-4.988,6.393-3.7,12.031-8.481,18.012-12.785,6.6-4.748,13.309-9.356,19.5-14.633-6.164-4.083-13-7.073-19.376-10.808-6.443-3.774-12.934-7.186-19.6-10.539a118.01,118.01,0,0,1-15.537-8.968c-1.923-1.372-8.54-7.074-10.649-3.505m193.813-132.8q-1.217.306-2.409.694c5.4,8.262-.562,18.489,1.129,27.429,4.989-2.95,5.642-14.425,13.217-12.3,8.158,2.285,4.1,12.327,6.568,18.07,3.856-3.37,8.357-.22,9.948,3.778,1.722,4.332-.666,8.331.137,12.618.83,4.436,3.309,1.525,4.683-1.091,1.751-3.335,3.281-7.844,2.636-11.658-.785-4.64-3.9-8.953-5.83-13.167-1.917-4.187-3.733-8.46-6.508-12.175-5.255-7.034-14.383-13.354-23.571-12.194m52.257,99.073c-3.527-8.806-8.748-16.868-12.084-25.743-.975-2.6-1.52-6.733-4.1-8.331-1.7-1.051-3.951-.42-5.82-.985a13,13,0,0,1-5.165-3.29c-2.445-2.533-3.238-6.009-6.122-8.215-3.722-2.847-6.6-3.939-8.368-8.7-1.39-3.736-1.393-4.284-5.571-3.451a11.142,11.142,0,0,1-11.413-3.767c-5.329-6.033-5.918-14.532-3.3-21.815,1.223-3.4,3.351-7.367,1.583-10.933-1.642-3.312-5.629-5.69-8.156-8.33-6.387-6.673-11.386-14.482-17.375-21.484a35.674,35.674,0,0,1-4.005-5.267c-.7-1.219-1.115-3.317-2.742-3.662-2.8-.594-6.708,4.246-8.116,6.01-10.31,12.9-2.934,30.479-1.678,45.026.639,7.408,2.076,16.289-1.21,23.265-3.1,6.573-10.931,9.854-17.534,11.684-8.907,2.468-18.473,2.359-27.536.861a72.3,72.3,0,0,1-13.8-3.824c-4.6-1.737-9.379-4.726-14.065-1.573-6.048,4.071-4.179,12.237-2.851,18.189,2.17,9.724,5.959,18.793,9.311,28.133,2.815,7.846,5.094,17.688-.824,24.708a32.118,32.118,0,0,1-24.838,11.035c-18.916-.754-36.183-14.858-55.513-9.089,3.632,1.5,7.471,2.384,11.02,4.1,4.284,2.074,8.249,4.831,12.408,7.138,7.983,4.429,15.994,8.794,23.8,13.538,7.05,4.287,13.715,8.983,20.443,13.733,8.384,5.92,12.8-.636,18.178-7.031,11.742-13.956,22.919-28.736,33.587-43.527,9.275-12.859,17.884-26.284,24.591-40.649,2.4-5.14,6.441-13.859,13.463-12.845,6.235.9,9.87,8.422,13.094,13.026,2.249-1.612,4.177-3.766,7.213-2.88,2.518.735,4.26,3.319,5.375,5.523.766,1.514,1.288,6.62,2.57,7.388.911.547,4.4-.628,5.948-.269,5.314,1.228,7.014,8.059,6.96,12.8-.075,6.536-2.806,13.075-5.044,19.127-5.016,13.567-13.61,24.169-23.084,34.89a356.6,356.6,0,0,1-30.523,30.394q-4.014,3.573-7.935,7.248c-2.14,2.013-5.528,4.108-7.2,6.474-3.1,4.377,5.191,6.364,8.276,7.965,13.273,6.893,25.5,15.971,37.194,25.227,12.055,9.546,24.177,19.129,35.76,29.244,11.331,9.895,22.034,20.441,33.966,29.643,12.26,9.453,25.105,18.181,37.7,27.176s24.88,18.477,37.475,27.493c12.309,8.81,25.522,16.363,38.469,24.185,6.772,4.093,13.58,8.126,20.384,12.166,5.5,3.267,11.473,8.344,18,8.757,5.877.372,11.451,2.535,14.964-3.855,2.666-4.851,1.562-11.524-.773-16.237-2.849-5.751-7.307-11.039-10.889-16.362-4.118-6.12-7.94-12.418-12.005-18.569-3.9-5.9-8.229-11.344-12.577-16.9-4.408-5.636-7.753-11.988-11.682-17.955-8.4-12.757-17.031-25.283-24.992-38.325-18.258-29.912-34.61-60.791-50.236-92.134-1.377-2.762-33.5-59.664-32.6-60.155m-25.707,183.9c9.813,33.918,4.154,68.408,2.142,102.913-1.017,17.446-1.172,35-1.623,52.471-.22,8.492-.205,16.991.148,25.479.178,4.271.49,8.527.794,12.789.269,3.769-.742,7.935-.267,11.572.609,4.658,9.857,5.572,7.016,11.55-1.906,4.011-8.581,4.623-12.157,6.314,1.59,1.841,4.077,4.6,6.729,4.77,2.388.155,4.233-1.916,6.374-2.7,1.9-.7,4.516-1.371,5.716.849,1.257,2.323-1.375,4.905-2.416,6.705,3.539.685,5.987-1.428,9.18-1.234,3.359.2,3.511,3.509,5.719,5.422,2.524,2.186,6.932,2.657,10.044,3.577a50.849,50.849,0,0,1,10.557,4.256,30.459,30.459,0,0,1,13.136,16.018c2.258,6.656-1.267,12.416-6.518,16.5-1.957,1.521-4.761,3.289-7.356,2.469-2.966-.938-3.429-3.351-7.043-3.172-3.246.16-6.327,1.457-9.59,1.623-4.8.245-9.587-.629-14.388-.445-19.374.744-38.75.91-58.091-.953-5-.482-9.91-.876-14.843-1.034-3.836-.122-4.157-2.983-4.807-6.575-1.57-8.674,1.9-17.214.183-25.643.114.556-2.6-.891-2.929-1.166-1.994-1.678-2.66-4.063-3.253-6.54-1.582-6.6-1.566-13.319-1.077-20.047,1.112-15.272,3.953-30.4,3.72-45.754-.117-7.738.117-15.458.119-23.193,0-7.1.645-14.117.705-21.173.131-15.47,1.76-30.767,2.214-46.22-3.22,3.132-4.928,7.5-6.973,11.409a137.4,137.4,0,0,1-8.4,14.035c-6.344,9.236-14.856,16.753-23.674,23.567-16.828,13-35.11,23.074-55.727,28.589a421.8,421.8,0,0,1-67.9,12.265,82.458,82.458,0,0,1-16.042.289c-3.494-.339-9.173-3.162-12.493-1.73-3.773,1.628-4.532,5.543-9.479,4.445-1.888-.419-3.255-1.68-4.908-2.53-2.431-1.251-2.528-.387-4.849-.228-2.588.177-4.139-1.115-6.4.969-1.915,1.769-1.73,3.009.02,4.665,2.459,2.327,6.4,2.718,8.856,5.149,2.4,2.364,1.966,5.27-1.733,5.3-3.722.035-7.03-2.614-10.667-2.959.775,10.76,4.012,22.781.423,33.338-1.666,4.9-5.239,8.052-10.569,8.018-8.917-.057-16.74-8.261-22.11-14.651-2.969-3.532-5.376-7.5-8.242-11.121-2.931-3.7-6.074-7.421-7.752-11.9-1.785-4.762-1.264-9.539-.266-14.427,1.235-6.049,2.383-12.16,3.876-18.152,2.895-11.619,8.718-22.226,11.658-33.81,1.112-4.383,1.1-9.526,3.9-13.284,2.971-3.98,7.594-4.235,12.179-3.98,5.675.315,11.346.942,16.991,1.585,3.565.405,11.376,2.976,14.277.785,1-.755,1-2.731,2.169-3.413,1.125-.658,2.944-.186,4.175-.094,6.1.452,12.243,1,18.35,1.179,22.7.664,46.654-2.874,66.921-13.419,9.4-4.894,16.569-12.6,24.129-19.874,7.433-7.155,13.911-14.856,15.911-25.243a62.792,62.792,0,0,0-1.9-30c-2.954-8.942-13.439-14.358-21.07-18.766a235.283,235.283,0,0,0-33.217-15.57c-1.81-.7-4.01-1.583-6-1.227-2.44.437-4.079,2.551-6.3,3.484-2.639,1.11-5.877,1.116-8.661,1.764-2.7.628-5.332,1.491-8.082,1.906-8.661,1.307-20.832.264-27.99-5.268-11.7-9.042-4.631-21.84-.872-32.845-3.974-.134-7.283.8-11.076-.9a16.909,16.909,0,0,1-8.457-8.453c-3.135-6.838-1.324-14.7-.4-21.826a37.609,37.609,0,0,1,2.125-9.45c.953-2.345,2.517-4.58,3.1-7.06.636-2.732-.189-2.891-2.468-4.2a21.445,21.445,0,0,1-8.19-7.865c-4.211-6.923-4.316-14.48-.865-21.763,1.4-2.948,4.729-7,4.35-10.443-.326-2.961-3.678-5.268-5.652-7.207a215.644,215.644,0,0,0-19.337-16.743c-3.159-2.442-6.639-4.658-9.51-7.432-2.1-2.031-4.241-6.452-7.118-7.521s-4.8,2.147-6.8,3.871c-3.127,2.687-6.124,5.779-9.532,8.108-6.112,4.178-13.691,3.4-20.593,2.062a54.629,54.629,0,0,1-20.045-7.9c-2.442-1.61-5.295-4.879-8.3-5.141-3.212-.279-6.7,2.914-9,4.831-5.993,5.005-7.793,12.779-11.284,19.5a39.527,39.527,0,0,0-4.493,23.744c.954,7.594,3.879,13.332,8.231,19.466.9,1.269,3.006,3.666,1.466,5.069-1.884,1.717-5.744-1.726-7.009-2.838-12.565-11.051-19.706-27.7-15.627-44.371,2.189-8.951,6.473-17.231,11.446-24.932,2.115-3.276,4.178-6.551,7.857-8.222,4.187-1.9,8.931-1.675,13.4-2.131-3.094-15.142-4.062-31.619,5.444-44.816,7.294-10.127,22.232-18.988,34.07-10.776-.485-11.164-2.077-21.765.894-32.756a80.344,80.344,0,0,1,5.4-14.3c2.2-4.492,5.229-8.3,7-12.978,7-18.446,20.43-34.923,34.776-48.162,14.5-13.382,28.73-29.708,46.995-38.08C187.492,14.926,206.9,7.076,227.561,3.107c21.445-4.12,43.488-4.966,65.092-1.065,18.938,3.42,36.465,14.918,50.795,27.314,16.352,14.145,26.909,31.2,35.259,50.951,1.835,4.339,3.6,8.715,5.854,12.862,2.5,4.6,5.7,8.88,7.538,13.817,1.637,4.4,1.912,9.18-1,13.114-2.05,2.766-6.256,3.39-8.048,5.92-.906,1.276-.815,2.489,1.175,2.87,2.054.392,3.033-1.9,4.51-2.818,3.676-2.288,8.863-.338,12.579.961A41.671,41.671,0,0,1,422.3,143.317c5.047,7.341,8.4,15.68,11.731,23.89a93.222,93.222,0,0,1,5.261,15.811c.436,2.064,1.043,7.66-2.219,5.208-1.323-.994-3.213,6.55-2.857,7.751,1.241,4.178,5.665,8.1,8.268,11.478,6.122,7.952,10.221,16.86,14.54,25.854,9.354,19.476,19.77,38.383,29.777,57.522,20.379,38.975,42.65,76.453,66.01,113.707q17.361,27.686,35.878,54.532c5.46,7.913,10.936,15.831,16.276,23.825,4.539,6.792,9.018,14.357,7.85,22.835-1.069,7.763-5.681,14-13.139,16.537-4,1.361-8.741,2.929-13.018,2.511-4.677-.457-8.8-3.586-12.7-5.935q-26.874-16.2-53.761-32.36c-20.049-12.053-38.385-26.364-57.513-39.765-9.733-6.818-19.769-12.963-29.91-19.135-2.284-1.39-12.645-11.348-14.842-9.989" fill-rule="evenodd"/><path d="M244.33,451.907c-4.9,7.21-10.046,13.986-16.939,19.457a162.149,162.149,0,0,1-22.964,14.9c-14.3,7.886-33.466,14.87-50.074,11.295-4.723-1.016-12.279-5.149-8.173-11.049,2.064-2.965,6.491-2.192,9.625-2.029,5.049.264,9.464.551,14.3-1.147,8.889-3.123,17.839-6.068,26.519-9.743,8.407-3.561,15.78-8.444,23.493-13.241,7.234-4.5,12.752-9.884,19.106-15.323,1.741-1.489,4.733-4.1,6.379-1.2,1.19,2.093-.621,6.028-1.274,8.075" fill-rule="evenodd"/><path d="M428.328,108.547c-1.583,2.747-5.1,8.08-8.938,5.779-4.9-2.934,1.451-12.3,2.645-15.831,5.2-15.38,5.567-31.857,3.016-47.762-1.269-7.907-3.566-15.629-4.432-23.6-.169-1.549-.944-5.523,1-6.429,2.334-1.089,4.675,2.689,5.437,4.349,2.943,6.422,4.08,14.856,5.656,21.725a126.609,126.609,0,0,1,3.517,27.986C436.25,86.153,434.075,98.564,428.328,108.547Z" transform="matrix(0.94, -0.342, 0.342, 0.94, 2.591, 150.089)" fill-rule="evenodd"/><path d="M451.419,55.374c-.47,2.824-.683,10.9-5.208,9.973-5.13-1.048-2.277-13.59-2.472-17.259-.1-1.934-1.215-10.692,1.348-11.578,5.338-1.843,6.13,16.379,6.332,18.863" transform="matrix(0.94, -0.342, 0.342, 0.94, 9.565, 156.045)" fill-rule="evenodd"/><path d="M208.948,433.515c-4.916,4.479-10.623,4.216-16.828,3.789-3.151-.216-10.448-2.082-5.377-5.99,2.649-2.041,23.432-3.445,22.205,2.2" fill-rule="evenodd"/><path d="M592,515.524c.35-.7,3.3-4.031,3.935-2.682.6,1.272-3.156,2.644-3.935,2.682" fill-rule="evenodd"/><path d="M201,267.916c-.6,1.247-3.13.158-4,.347,1.182-2.531,2.587-1.989,4-.347" fill-rule="evenodd"/><path d="M391,135.524q-.395,1.5-.787,3-.606-1.124-1.213-2.248l2-.752" fill-rule="evenodd"/><path d="M395.828,324.459c6.309.636,12.639.958,18.973,1.153,5.347.164,7.543-.847,8.226-6.4.809-6.588,1.085-13.235,1.894-19.826.367-2.994,3.271-8.978-.227-10.58-2.932-1.343-7.506.581-10.576.807-3.421.252-8.583-.791-11.607,1.237-3.233,2.168-2.529,9.76-3.08,13.323-1.05,6.793-2.316,13.54-3.6,20.29m-3.01-32c-5.718.432-11.455.772-17.157,1.382-2.538.271-7.674,1.527-9.813-.32-5.022-4.333,13.744-5.854,15.873-6.2,3.588-.576,9.728.189,12.028-3.2,2.275-3.35,1.7-8.979,2.288-12.868.885-5.853,1.9-11.7,2.488-17.589.2-1.98-.085-8.521,2.006-9.493,4.806-2.234,3.3,20.787,3.217,22.515-.135,2.971-.284,5.956-.7,8.9-.233,1.661-1.054,3.907-.548,5.575,1.449,4.783,9.681,2.024,13.43,1.643,4.2-.428,10.692,1.2,12.083-3.985,1.748-6.516,1.494-13.916,2.142-20.62.179-1.854.647-15.7,4.064-14.627,3.815,1.2,2.326,12.769,2.291,15.748-.039,3.362-.026,6.726-.254,10.082-.2,3.014-1.054,6.71-.425,9.7,1.1,5.237,7.312,2.452,9.114,6.618,1.712,3.959-7.622.855-9.365,2.215-2.6,2.031-1.977,10.517-2.349,13.488-.816,6.526-2.383,13.3-2.893,19.811-.4,5.137,3.728,4.455,7.93,4.083,3.6-.319,7.563-1.175,11.175-.694,2.9.385,6.957,3.059,2.731,4.838-6.6,2.783-20.056-2.9-23.375,5.549-.626,1.594-3.539,20.082-7.2,10.955-1.53-3.814,2.216-9.8-1.779-12.722-1.385-1.014-3.448-.835-5.055-.948-3.957-.275-7.939-.37-11.9-.452s-7.505-.877-9.032,3.453c-1.189,3.374-1.057,7.149-2.007,10.6-.713,2.589-3.053,7.119-5.48,2.885-1.594-2.781-.374-7.641-.059-10.664.157-1.514,1.06-4.648-.089-5.919-1.233-1.365-4.533-.627-6.093-.5-4.5.356-12.889,2.524-16.336-1.56-2.883-3.417,3.111-3.482,5.468-3.713,2.428-.238,4.857-.458,7.283-.714,2.671-.281,6.207.1,8.721-.742,4.222-1.406,3.921-7.146,4.2-10.869.543-7.273,2.179-14.457,3.38-21.644" fill-rule="evenodd"/><path d="M467,307.995c-.341,4.2-.8,8.907-2.152,12.9-1.026,3.017-3.1,3.933-3.8.093-.448-2.435,2.527-16.153,5.955-12.99" fill-rule="evenodd"/><path d="M200.428,280.346c-1.684-1.209-9.659-7.568-3.895-7.82,2.943-.128,9.284,4.713,9.466,7.4.046.678-1.4,1.029-1.325,1.685.15,1.248,2,1.84,2.6,2.833,1.313,2.19.768,6.517-.928,8.6-3.868,4.748-8.163-3.29-5.169-4.867-.667.351-9.621-4.2-9.957-5.228-1.842-5.633,8.76-.326,9.213-2.6" fill-rule="evenodd"/><path d="M214.484,302.512c-2.045.064-6.153-.078-7.685-1.539-2.848-2.714,2.707-3.074,4.332-4.339,2.278-1.771,2.725-7.534,6.3-3.968,3.547,3.537.428,7.651-2.948,9.846" fill-rule="evenodd"/><path d="M185,287.55c3.7-.542,11.925,7.429,7.932,7.96-2.642.35-7.355-5.83-7.932-7.96" fill-rule="evenodd"/></g></g></svg>