<svg xmlns="http://www.w3.org/2000/svg" width="594.391" height="688.377" viewBox="0 0 594.391 688.377"><g transform="translate(-215 -39.623)"><path d="M372.117,194.471q-1.059,17.3-2.117,34.594c4.539-1.307,33.411-9.8,31.628-1.189-1.28,6.178-9.4,12.861-13.533,17.162q-5.709,5.94-11.745,11.561,11.08-4.242,22.338-8.011c5.677-1.9,11.4-3.746,17.213-5.167,2.159-.528,7.989-2.681,10.029-1.213,5.36,3.858-23.723,32.271-27.707,36.276a186.142,186.142,0,0,1,17.268-7.042c4.236-1.474,17.322-7.109,21.07-2.3,4.012,5.148-5.927,16.969-8.684,20.717a190.674,190.674,0,0,1-12.72,15.45c18.665,16.764,40.6,31.686,63.942,40.96,17.115,6.8,33.928,8.532,51.988,4.8,18.554-3.834,36.348-11.187,53.263-19.594A303.9,303.9,0,0,0,613.426,315.2q-5.775-7.025-11.22-14.317c-5.183-6.931-11.554-14.5-14.509-22.753-2.893-8.074,7.959-6.5,13.164-6.059A174.373,174.373,0,0,1,623.3,275.66q-7.835-5.449-15.377-11.312c-6.55-5.084-15.287-10.832-19.574-18.146-3.77-6.432,4.5-4.807,8.33-3.965,9.122,2.01,18,5.434,26.7,8.774q9.557,3.669,18.974,7.706-5.838-5.076-11.269-10.606c-4.861-4.941-11.414-10.976-13.593-17.78-4.437-13.858,25.411-3.4,30.507-1.266q-1.413-21.532-2.823-43.065L526.61,217.551c-4.271,1.137-9.616,3.612-14.071,3.744-4.034.121-8.907-1.7-12.841-2.447l-71.52-13.665-56.061-10.712" fill="#fb0" fill-rule="evenodd"/><g transform="translate(215 39.623)"><path d="M581.9,648.592a60.034,60.034,0,0,1-14.005,5.591c-2.784.744-7.384,3.039-9.83.935-1.174-1.01-1.443-3.3-2.136-4.633a38.406,38.406,0,0,0-4.115-5.782c-3.539-4.507-7.221-8.855-11.074-13.1-1.826-2.01-5.161-6.7-8.378-6.392-4.01.384-3.914,5.935-2.909,8.771,3.2,9.027,12.885,16.9,19.212,23.7-1.609,2.476-10.443,2.18-12.9,1.6-3.746-.885-4.125-3.551-5.834-6.6-4-7.129-12.109-11.117-18.776-15.308-2.431-1.53-7.6-5.766-10.765-4.7-3,1.011-2.872,4.845-1.916,7.35,1.444,3.785,5.553,6.41,8.592,8.8A79.956,79.956,0,0,1,518.2,659.389c-4.867.4-9.716,1.083-14.57,1.483-5.871.485-10.764-2.737-16.169-4.563-5.022-1.7-10.026-3.131-14.964-5.087-5.544-2.2-11.352-2.959-16.945-4.886-21.949-7.559-43.455-17.067-64.606-26.651-10.078-4.567-19.949-9.137-30.451-12.71-7.653-2.606-19.679-7.8-21.509-16.914-.966-4.816,2.553-10,3.072-14.809a43.486,43.486,0,0,0-1.6-17.322c-1.521-4.786-4.04-9.217-6.025-13.811-2.313-5.355-.242-5.268,4.251-5.877,5.378-.73,11.654-3.757,16.709-5.728a109.514,109.514,0,0,0,16.929-8.712,61.879,61.879,0,0,0,12.861-10.891c3.907-4.205,6.436-9.187,10.213-13.494,13.939,17.143,27.188,34.546,42,50.948a127.454,127.454,0,0,0,23.207,20.03c3.6,2.46,7.166,5.267,11.085,7.21,4.9,2.433,10.38,3.942,15.417,6.162a471.22,471.22,0,0,1,55.765,28.793c8.717,5.312,16.033,11.4,23.708,18.065,2.39,2.074,21.96,14.163,15.314,17.967M355.329,508.151c-3.121,1.415-6.1,3.251-9.426,4.158.944-5.744,6.3-14.407,13.176-13.454,2.626.363,4.606,2.4,3.453,5.213-1.049,2.555-4.979,3.077-7.2,4.083M138.076,352.358c-3.538,1.954-6.835,3.092-8.91-1.1,1.537-.309,8.518-1.239,8.91,1.1M132.185,340.5c-2.735-.829-.548-1.7.393-2.7a33.746,33.746,0,0,1,4.009-3.961c3.751-1.987,6.65,5.406,8.444,7.8-4.246-.377-8.713.111-12.846-1.142m29.237,25.6c-5.183.878-4.608-5.607-4.453-8.892,1.093,1.335,8.494,8.207,4.453,8.892M178.6,354.9c-6.319,1.067-10.494-9.85-9.361-14.626,1-4.206,5.893-6.555,9.792-7.175,3.778-.6,9.039.219,10.161,4.576.992,3.852-6.381,16.514-10.592,17.225M328.171,519.7c-4.541,1.4-8.99,1.572-13.554,2.941-5.178,1.555-9.971,1.417-15.16,2.475-2.111.429-7.8,3.505-9.864,2.818-2.04-.681-4.992-7.011-6.164-8.657,9.18-3.816,17.012-8.743,23.063-16.783,4.811-6.394,9.971-15.974,6.944-24.226-3.414-9.3-15.182-11.325-23.028-7.438a45.291,45.291,0,0,0-10.452,6.923c-3.5,3.2-4.875,6.7-7.142,10.647-2.292,3.995-3.9,1.773-6.192-1.619-1.957-2.9-1.7-5.827-4.148-8.688-1.248-1.459-3.181-2.867-3.832-4.752-.413-1.2.457-3.314-.326-4.256-1.1-1.322-2.441.232-3.364-.948-.67-.858-.451-2.813-1.143-3.885a9.619,9.619,0,0,0-2.007-1.563q-1.344-.664-.491-1.662c-.712-1.319-.026-1.763-1.551-3.368a41.17,41.17,0,0,1-6.239-7.848c-.773-1.351-.7-3.355-1.658-4.524-1.319-1.6-3.516-1.364-4.65-3.351-1.01-1.771-.334-4.868-2-6.476q-1.317-.375-2.636-.739a3.8,3.8,0,0,1-1.157-2.34c-.925-1.425-1.109-3.1-2.277-4.6-2.236-2.878-5.243-5.537-7.218-8.572-2.076-3.189-.975-3.727,2.631-4.868a43.7,43.7,0,0,0,9.237-3.741c13.937-8.111,27.15-29.626,5.028-36.2-8.209-2.439-14.953-9-24.056-6.42a26.153,26.153,0,0,0-10.633,6.322c-2.034,1.952-3.918,7.173-6.415,8.174-4.49,1.8-2.592-2.7-3.866-4.759-.609-.985-3.058-2.12-3.966-3.016a17.634,17.634,0,0,1-2.835-3.678,22.381,22.381,0,0,0-4.193-5.723c-.746-.742-4.473-4.575-1.112-4.074-1.361-4.148.625-4.772,3.371-7.8,3.224-3.56,6.553-8.505,6.572-13.492.037-9.576-11.309-13.866-18.435-8.182-1.45,1.156-10.026,12.321-8.271,5.2.946-3.84,9.706-13.864,13.767-11.27-4.551-6.634-15.006,9.472-17.446,12.768-2.078-3.826-2.225-6.819-5.663-9.781-2.8,4.49-1.321-.416-1.938-1.414-1.333-2.153-.6.31-1.324-.455-.9-.953-2.317-1.7-3.275-2.966-1.641,2.226-.985-.169-1.488-1-1.175-1.944-.721-3.071-2.735-4.761-1.466-1.23-4.354-3.139-6.327-3.313-2.275-.2-2.9.67-5.223.024-2.949-.819-6.66-2.079-5.233,2.853,1.037,3.584,5.251,5.621,6.174,9.283.929,3.687-2.716,7.4-4.484,10.424-2.271,3.877-4.128,3.56-8.242,4.434-2.629.559-6.138,1.754-3.883,4.944,1.61,2.279,5.384,1.8,7.509,3.148,2.98,1.893,2.939,6.559,6.744,7.371,4.19.893,6.59-3.772,10.123-4.9,2.512-.8,10.294-.712,12.271,1.174,2.694,2.57.366,7.48,1.044,10.673,1.009,4.734,4.212,5.023,8.263,5.175,4.987.186,6.74,4.975,9.422,8.773,6.282,8.9,11.742,18.381,18.177,27.159,2.849,3.887,7.016,7.344,9.348,11.562,2.88,5.21-1.118,8.214-4.569,11.953-4.509,4.887-7.875,10.447-11.786,15.787-3.475,4.746-7.794,3.565-13.347,3.565,1.237-2.552,2.726-4.143,5.771-3.833-3.184-3.888-5.73.559-7.795,3.022-2.988,3.562-6.883,4.422-10.721,6.764-1.358.829-8.753,6.2-6.506,8.035.255.207,12.5-7.846,13.891-8.584,0,2.973-.65,6.061-.233,9.018.3,2.168,1.829,4.429,1.5,6.683-.615,4.255-6.114,7.606-8.474,10.921-1.777,2.495-1.348,4.464-2.252,7.142-.825,2.443-.392,1.7-2.447,2.458-4.184,1.537-11.227.708-15.016-1.477-2.352-1.356-4.155-3.5-6.066-5.39-1.439-1.424-5.059-3.857-5.459-5.85-.686-3.432,6.127-9.809,7.475-13.348,3.808-9.99-2.722-17.755-12.884-18.323,3.132-2.416,7.014-.6,10.315.327-5.643-7.82-15.282-1.385-20.069,3.929-3.271-8.268-4.848-16.99-6.846-25.614-1.361-5.87-6.542-16.349-4.231-22.4,1.117-2.922,4.271-4.551,6.452-6.578a40.213,40.213,0,0,0,6.414-7.906c4.269-6.715,6.735-15.19.856-21.807l5.359-.881c-2.9-2.73-7.489-1.4-11.259-2.21-2.392-.513-9.276-.181-10.873-1.535-1.921-1.627-.689-9.118-.621-11.334.158-5.181.591-10.162,1.163-15.311.542-4.865.433-10.12,1.438-14.9.816-3.879,3.424-5.06,6.433-7.346,7.192-5.465,13.053-12.112,10.6-21.529l2.61-.415c-2.814-2.034-6.455-1.294-9.585-2.37,2.874-8.09,9.231-22.312,19.553-23.078.355,3.617.112,7.918,2.552,10.912,2.778,3.407,7.654,3.751,11.417,1.948a18.647,18.647,0,0,0,8.194-8.536c1.065-2.32.873-6.244,2.742-8.084,2.506-2.467,19.787-.979,19.258,3.185-.312,2.449-4.933,6.564-6.224,8.734a39.847,39.847,0,0,0-5.124,12.827c-1.317,6.925-.554,16.068,6.479,19.71,8,4.142,17.747-1.125,24.307-5.674a115.277,115.277,0,0,0,10.381-8.151,55.514,55.514,0,0,0,5.059-4.88c1.141-1.294,2.052-3.38,3.456-4.348,3.317-2.289,6.568,1.594,9.375,3.555a145.24,145.24,0,0,0,14.029,8.886c9.958,5.395,19.063,12.541,27.868,19.635,8.856,7.138,17.988,14.48,25.162,23.371-4.345,2.673-3.57,3.367-5.5,8.135-1.372,3.384-3.262,6.264-3.48,10.023a12.825,12.825,0,0,0,10.11,13.454,15.929,15.929,0,0,0,10.179-1.285c2.546-1.124,5.083-3.889,7.743-4.576,4.944-1.275,8.9,8.064,11.671,11.354,12.308,14.612,25.318,28.645,36.908,43.853,1.283,1.685,5.1,4.975,5.406,7.205.445,3.2-4.593,6.254-6.682,8.09-1.1.964-12.734,11.91-8.827,13.649,1.114.5,4.374-6.219,5.189-6.794,3.052-2.15.744,2.065.562,4.195-.455,5.3,3.183,8.182,8.3,7.511,5.457-.716,10.314-5.024,13.691-9.092,4.231,4.9,10.846,12.309,12.069,18.856.782,4.183-2.837,14.419,3.919,15.273,1.031.129,4.763-2.639,5.459-1.068.58,1.313-3.454,3.555-4.036,3.99a39.623,39.623,0,0,0-5.995,6.092c-2.356,2.638-5.576,4.861-8.227,7.39-2.793,2.663-8.318,9.9-12,6.4-1.852-1.756-1.365-4.053-4.332-5.084-2.7-.938-6.125.252-8.635,1.293-2.827,1.171-12.136,5.448-13.169,8.969-1.425,4.855,6.27-.982,7.637-1.836-1.56,3.961-2.422,9.694-6.395,12-3.3,1.92-8.049,3.048-11.67,4.161M275.4,489.751c2.642-8.491,18.222-23.632,28.069-18.9-11.476,2.4-20.583,10.259-28.069,18.9m5.826,24.317c-3.84-2.14-3.633-8.357-4.973-11.993-.77-2.087-2.309-3.611-1.856-5.927.529-2.714,3.992-5.732,5.835-7.69,5.8-6.162,16.008-14.583,25.344-13.171,11.883,1.8,3.827,17.753-.219,23.246-3.449,4.684-16.738,19.655-24.131,15.535m-27.722-10.385a328.847,328.847,0,0,1-38.334-4.366c-4.494-.837-8.259-.713-5.688-5.88.849-1.705,5.968-12.394,7.124-12.087.685.182.529,7.528.73,8.37.908,3.782,3.456,7.306,7.752,7.065,7.029-.391,11.559-9.479,15.26-14.357,2.965,3.986,5.111,8.414,8.091,12.334,1.425,1.874,6.384,6.232,5.065,8.921m-75.342-50.446c-2.156,4.948-6.492,9.653-9.508,14.136-1.705-3.61-2.9-11.895,1.14-14.564,1.531-1.009,9.731-2.7,8.368.428m44.571,14.733c.593-1.9,1.25-3.794,1.983-5.649,1.257,3.957,1.9,4.075-1.983,5.649m11,4.053c1.56,2.644,4.16,5.244,3.752,8.564-.309,2.516-2.583,5.094-4.207,6.848-2.688,2.9-8.642,8.467-12.536,4.616-3.253-3.218-2.12-12.063-.607-15.683,2.16-5.172,9.88-10.644,13.6-4.345m-7.632-5.418c.894-.356-.984-6.127.759-6.7,1.52,3.467,2.953,4.4-.759,6.7m-24.556-77.663c-.579-2.129-1.907-2.04-1.429-4.672.314-1.727,1.684-3.569,2.723-4.937a26.068,26.068,0,0,1,7.757-6.674c6.236-3.589,14.8-5.08,20.385.54-5.22.824-21.223,5.976-21.325,13.117,5.8-1.118,10.37-6.949,16.192-8.787a23.853,23.853,0,0,1,14.715.19c13.013,4.359,7.6,15.606.257,22.912a44.48,44.48,0,0,1-15.3,9.81,10.558,10.558,0,0,1-6.868.629c-.487-.1-1.056-1-1.64-1.194-1.451-.481-1.03,1.147-2.225.416-1.043-.638-3.267-4.753-3.976-5.931-1.129-1.875-1.655-3.7-3.041-5.41s-2.062-4.009-3.345-5.558c-.616-.746-2.3-.716-2.758-1.444-.681-1.093.186-1.889-.119-3.007m-19.985,83.881c2.958-5.139,8.018-9.5,11.933-13.993.24,7.383-5.053,12.438-11.933,13.993m4,2.374c6.108-2.149,9.473-7.291,10.1-13.526.791-7.9,5.749-12.041,8.734-19.136,1.145-2.718,2.479-11.665,6.916-9.1,1.522.878,2.425,4.182,3.218,5.674,1.919,3.61,4.1,7.11,6.136,10.655,1.657,2.887,4.141,5.788,3.41,9.263-.638,3.03-2.689,6.258-3.891,9.114-2.837,6.748-6.564,12.963-9.678,19.562-1.256,2.662-2.743,8.965-6.579,8.933-3.036-.026-2.7-3.346-4.7-4.484-2.523-1.436-5.392,1.3-7.465,2.43a10.87,10.87,0,0,1,11.25-5.553c-5.616-5.593-9.411,1.953-14.231,3.634-4.567,1.593-12.669-5.919-16.514-8.047,1.471-2.491,2.8-5.538,5.33-7.177,2.4-1.555,5.344-1.316,7.964-2.238M135.9,526.31c.669-3.221,2.559-5.125,3.757-8.049,1.389,3.546-1.864,5.638-3.757,8.049m97.042,19.761c-.328,10.846-1.214,21.662-1.534,32.51-.147,5-1.033,9.775-1.621,14.72-.5,4.181-.244,8.288-2.876,11.861-4.15,5.633-12.219,7.252-18.483,9.339-4.6,1.531-9.253,2.922-13.8,4.624-4.088,1.532-7.382,3.852-11.269,5.673-3.477,1.63-7.23,2.6-10.691,4.331-3.58,1.795-6.409,3.983-10.086,5.581-4.4,1.913-8.029,5.318-11.944,8.02-3.446,2.379-7.092,4.216-10.057,7.207-2.78,2.807-6.3,4.037-9.449,6.53-3.331,2.637-6.818,4.35-10.5,6.417-7.539,4.237-17.71,11.472-26.783,7.357,2.595-3.314,7.906-6.5,8.31-11.066.525-5.948-4.652-3.758-7.65-1.859-4.541,2.877-7.053,6.35-10.51,10.185-4.041,4.482-9.146,1.466-14.091.205,3.381-3.044,6.735-6.115,10.11-9.165,2.849-2.573,7.208-5.356,8.944-8.914,1.24-2.545,1.18-6.033-1.813-7.353-3.348-1.477-7.134,1.637-9.613,3.492-6.582,4.925-10.918,11.171-15.239,18.025-2.3,3.644-3.358,3.365-7.588,2.636-4.482-.772-8.964-1.6-13.484-2.137,5.986-6.148,12.677-12.808,17.4-20,1.532-2.331,3.529-8.474-1.137-9.039-1.923-.233-5.752,3.7-7.236,4.759-6.483,4.634-12.715,10.479-17.012,17.244-1.418,2.233-1.864,4.717-4.61,4.9-3.591.243-10.264-3.184-13.728-4.243,6.621-8.346,13.195-16.752,20.93-24.112,7.107-6.763,14.2-11.677,22.507-16.864a264.613,264.613,0,0,0,25.385-18.53c7.828-6.288,16.007-12.219,23.213-19.24a252.809,252.809,0,0,0,37.833-47.207,125.423,125.423,0,0,0,6.844-12.332c1.9-3.987,2.774-8.756,5.337-12.383.885-1.253,2.133-2.184,2.922-3.492.744-1.231.492-2.719,1.627-3.809,2.625-2.521,7.4-1,9.858.765,3.946,2.841,7.138,6.289,11.475,8.667a56.984,56.984,0,0,0,13.91,5.3c11.288,2.744,22.479,5,33.979,6.664-1.183,4.389,1.723,5.08,2.686,9.029,1.169,4.792-.329,10.818-.476,15.7M124.249,472.889c-2.559-3.8-4.843-7.779-7.359-11.606-1.532-2.331-3.431-4.835-2.121-7.685,2.205-4.807,9.986-5.662,14.208-3.567,9.6,4.764.682,18.384-4.728,22.858M98.842,385.921c-.884-7.433,1.958-12.706,8.682-16.6,4.792-2.777,8.651,1.019,8,6.082-.995,7.714-9.238,16.294-15.529,20.319-.411-3.262-.76-6.533-1.15-9.8m-1.025-21.266c1.983-1.574,7.3.435,9.593.572l-9.482,8.284c-.207-1.895-1.941-7.4-.111-8.856m10.664-71.777c15.992-2.08-2.417,15.083-7.052,17.772.754-3.651,2.607-17.193,7.052-17.772m42.574-30.047c-2.147,8.8-18.841,18.392-19.016,3.983-.064-5.368,2.951-4.934,7.353-5.449,2.511-.293,12.891-3.563,11.663,1.466M93.392,276.453c-1.874,4.919-3.377,9.965-5.214,14.89a16.148,16.148,0,0,1-3.288,5.407c-1.269,1.444-2.779,1.809-2.729,4.092a10.753,10.753,0,0,0,4.118-2.167c-.311,4.526-1.912,9.4-2.686,13.911A139.4,139.4,0,0,0,81.606,328.9c-.622,11.931-.627,23.82-.366,35.758.134,6.084.194,12.171.522,18.247.164,3.023.349,6.059.723,9.063.152,1.213,1.032,3.8.488,4.932-2.136,4.462-11.6-7.8-15.707-6,.591-3.4-.773-2.653-3.05-4.323-1.1-.81-1.82-2.187-2.971-2.908a7.225,7.225,0,0,0-1.148-1q-.713-.972-1.5.207c-4.629-2.767-5.825-8.665-8.31-12.633-1.278-2.04-2.513-2.358-2.731-5.178-.189-2.458.181-4.962.081-7.431a36.854,36.854,0,0,0-1.057-8.549c-.906-3.13-2.154-2.875-4.582-4.543a2.546,2.546,0,0,0,1.481-1.649c-.776.138-3.133,1.1-3.718.409-1.152-1.358,1.566-1.538,2.28-2.08-3.048-1.353-2.391-2.465-1.292-4.944.312-.7.609-1.751.873-2.342.578-1.293.911-.474,1.1-2.079.182-1.531-1.175-4.542-1.575-6.172a16.787,16.787,0,0,1-.439-7.951c.488-2.308,1.8-4.4,1.892-6.772.026-.666-.99-.887-1-1.531-.02-.94.858-1.354,1.086-2.222.583-2.224.32-4.576,1.317-6.687a38.208,38.208,0,0,1,3.992-6c.889-1.147,3.069-2.438,3.308-3.951.158-1-1.4-.888-1.333-1.643.094-1.023.952-1.354,1.188-2.114.649-2.086.812-4.09,2.489-5.689,2.112-2.012,3.03-1.169,3.117-4.487.043-1.619-1.252-1.869-.559-3.735.377-1.013,1.489-1.612,2.2-2.33a29.619,29.619,0,0,0,5.039-6.655c1.33-2.326,3.452-3.679,4.814-5.688,1.775-2.618-.879-3.916,2.723-4.654-.512-1.626-1.056-2.939.291-4.315.849-.868,3.005-.337,3.757-1.341.862-1.152-.412-3.883.887-4.632,1.056-.606,2.638,1.266,4.3.339,1.265-.706,3.174-4.609,2.767-6.043,3.27,1.84,2.455.573,4.02-1.787.351-.529,1.414-.647,1.716-1.181.6-1.067.466-2.155,1.336-3.023,1.451-1.444,3.823-1.073,5.419-2.1,1.319-.853,1.249-1.771,2.3-2.576.9-.686,2.376-.818,3.25-1.53,1.712-1.4,1.729-2.868,3.871-4.069a45.847,45.847,0,0,0,7.091-4.516c1.505-1.229,2.933-3.407,4.693-4.217,2.434-1.122,4.33-1.2,6.711-2.8,1.721-1.157,3.348-3.065,5.037-4.039,1.275-.734,2.169-.576,3.775-1.031,2.891-.82,3.595-3.544,5.953-4.653,1.619-.762,3.976-.064,5.754-.464,5.532-1.242,11-3.921,16.549-5.4,6.776-1.811,13.6-3.4,20.429-5-6.275,8.5-14.267,16.179-22.373,22.933-2.661,2.218-17.241,12.327-9.382,16.643,3.155,1.733,10.008-3.863,12.555-5.231a173.416,173.416,0,0,1,15.813-7.188c8.686-3.6,20-10.011,29.651-9.5-5.876,7.21-13.211,13-19.932,19.365-6.176,5.853-15.482,11.342-12.57,20.922-8.675-2.208-16.467-4.816-25.487-4.238-4.04.259-8.083-.228-12.1.339-4.373.618-8.491,2.081-12.694,3.366-3.325,1.015-7,1.1-10.058,2.784a41.023,41.023,0,0,0-4.634,3c-1.771,1.351-2.173,2.245-3.564,4.026-4.96,6.351-9.76,12.306-12.708,20.044M66.259,396.672c-.271-1.1-.517-2.1-.828-3.358,2.761,1.7,2.761,1.7.828,3.358M45.393,361.658a1.99,1.99,0,0,1-2.186.215c-.517-.5.842-2.471,1.06-2.889.539.414,1.779,1.768,1.126,2.674m-5.912-12.743q.548-2.013,1.1-4.027c.449,1.244,2.472,2.62,2.517,3.806.028.786-3.215.395-3.615.221m1.173,1.842c3.168,2.086,3.5,4.546,3.594,8.146-3.791-1.255-3.247-4.926-3.594-8.146m55.1-142.06c-.32.866-1.677,3.563-2.672,1.676-.318-.6,2.01-1.427,2.672-1.676m-.91-2.94c.783-.705,2.361.173,3.247-.4.621-.4.415-.8.707-1.042.058-.048.9-1.756,1.248-2.144.611-.682,1.943-1.107,2.685-1.722,2.075-1.72,3.246-3.981,4.552-6.281,1.557-2.747,2.054-3.065,4.566-4.322a15.691,15.691,0,0,0,4.483-3.4c1.624-1.7,1.5-2.912,2.838-4.767.659-.916,1.607-1.029,2.374-1.767.92-.883,1.387-2.119,2.238-3.011.367-.385,1.547-.384,1.769-.715.284-.417.505-2.088.771-2.4l1.523,2.058c2-3.521,3.463-6.43,6.811-8.773,3.516-2.461,6.551-6.061,10.185-8.264.817-.495,2.481-.7,3.1-1.433,1.055-1.235.141-2.333.911-3.382.873-1.189,2.565-.227,3.675-.739,1.4-.648,1.807-2.543,3.615-2.334-5.947,7.037-5.873,17.985-6.188,26.773-.137,3.787,2.248,5.7-1.273,8.475-3,2.364-7.218,1.663-10.759,3.219-4.447,1.953-9.2,2.993-13.739,4.7-4.693,1.76-8.466,4.844-12.982,6.884-3.983,1.8-6.7,4.354-10.345,6.574-1.354.825-3.451,2.023-5.066,1.037-1.011-.618-2.271-1.634-.951-2.825m67.175-59c.258-1,5.335-3.627,6.584-4.484,1.874-1.289,4.649-4.436,6.741-3.186.725-2.9,3.554-6.134,6.053-6.749A34.894,34.894,0,0,0,191.65,127.2c.8-.606,1.059-1.492,2-2.061,1.632-.99,3.252-.45,4.825-1.8.24-.206,2.416-3.8,2.5-3.764.111.386.213.775.3,1.167a15.067,15.067,0,0,0,4.151-2.812c.233-.265-1.28-.954-.8-1.479.585-.642,1.89.076,2.481-.534-1.838,9.124-.47,20.869,8.787,25.494-11.008,1.19-21.76-2.12-32.9-.087a57.909,57.909,0,0,0-15.609,5.024c-2.973,1.5-6.775,6.889-9.734,4.275,1.174-1.566,2.966-2.539,4.37-3.867m53.412-26.25a15.492,15.492,0,0,1,16.649-5.224c7.362,2.112,4.257,7.256,3.145,12.968-2.124-3.115-6.726-6.205-10.645-6.3-5.556-.132-3.456,4.5-.12,6.155,3.033,1.507,8.235,1.927,10.406,4.667,2.113,2.667,1.3,7.027,1.644,10.172l-4.929-.733c1.379-7.338-4.69-7.694-10.348-9.763-5.718-2.09-10.486-6.213-5.8-11.944m18.439-18.072v6.811q-3.432-1.958-6.868-3.914l6.868-2.9m18.4,54.423a222.827,222.827,0,0,1,22.582,7.121c2.668,1.038,5.591,1.4,8.206,2.577,2.49,1.115,2.864,1,1.978,3.181-2.481,6.114-8.358,5.058-13.507,4.123-8.06-1.465-15.953-3.494-23.912-5.4-7.78-1.866-15.724-3.089-23.386-5.427a235.413,235.413,0,0,0-23.613-6.254c-2.36-.463-21.032-2.175-20.89-4.127,11.759-1.527,23.866-.023,35.678.136,12.275.166,24.957.846,36.864,4.074M241.891,133.21c.146-4.2.2-8.421.727-12.6,3.5,4.318,6.656,5.611,11.066,1.563,4.222-3.874,5.164-5.894,10.517-2.252,4.64,3.159,9.031,3.014,13.959.249,3.006-1.687,7.837-8.579,11-7.161,1.5.677,2.609,3.4,4.129,4.406a22.928,22.928,0,0,0,7.064,2.615c5.252,1.151,8.38-2.227,11.676-5.839,4.78-5.239,4.64-2.2,9.072,1.436,4.942,4.052,9.075,2.072,13.551-1.385,2.726,7.988,3.746,16.712,4.517,25.088.259,2.827,1.23,6.843-1.31,8.842-1.79,1.41-5.589,1.466-7.746,2.245a77.882,77.882,0,0,0-21.553,11.8c-2.511,1.972-4.7,4.386-8.131,3.937-3.27-.428-6.447-3.166-9.077-4.973-2.854-1.96-5.742-4.186-9.077-5.278-1.953-.64-5.082-.409-6.791-1.582-3.178-2.181.562-7.9-.23-11.744-.6-2.916-2.277-9-6.293-7.287-5.977,2.543-2.5,12.471.788,15.57a144.249,144.249,0,0,1-20.653-5.154c-5.009-1.711-7.382-7.367-7.2-12.494m112.766,20.474c13.8-3.875,26.718-6.489,41.082-7.194,6.359-.313,12.514-.116,18.8-.058,3.619.033,6.377-2.886,3.486-6.244-4-4.65-16.21-2.88-21.619-3.089a109.667,109.667,0,0,0-41.522,5.868c1.452-2.675,4.94-3.022,7.331-4.4a15.017,15.017,0,0,0,6.179-7.6c3.26-8.073-.021-15.68-3.431-23.054,6.7,1.8,13.627,5.748,20.361,6.75a13.312,13.312,0,0,1,3.567.589c.767.315,1.009,1.4,1.959,1.643.459.115,1.561-.922,2.081-.775,2.051.579.429.733,1.726,1.573,1.029.666.945,1.523,2.833,1.209.837-.139,1.745-1.434,2.186-1.469.562-.046.432-.729,1.292-.53,1.564.364,1.426,2.379,1.947,3.37.556,1.056-.234,2.46,1.454,3.038,1.261.432,1.578-.9,2.651-.8a6.415,6.415,0,0,1,2.578,1.568,27.341,27.341,0,0,0,6.883,5.073c-.245-.246,1.175-.839.835-.979a12.33,12.33,0,0,1,1.24.262c1.439.327,2.2,2.537,2.926,3.342a14.267,14.267,0,0,0,5.29,3.687c3.241,1.128,3.142-.22,4.325,3.631,2.3-3.622,3.188,2.445,6.045,3.113,1.48.346,1.308-.288,2.652.486.924.531,1.539,2.158,2.235,2.942q.448-1.7.895-3.4c2.058,3.9,6.5,10.083,11.373,8.964,0,1.065-.439,2.337.385,3.245.575.635,1.507-.086,1.957.282.393.323,1.333,1.6,1.634,1.816.593.416,1.669.719,2.184,1.134.454.365.679,2.107,1.182,2.737.946,1.184,2.582,1.419,3.355,2.838q.266-2.1.529-4.2c1.535,1.185,1.666,2.106,2.043,3.841.537,2.47-.175,1.891,1.529,2.933,1.674,1.026,2.547.911,4.082,2.69,1.5,1.744,1.518,2.818,3.689,1,.4,1.343.534,3.082,1.612,4.112.814.778,4.186.811,4.507,2.65-6.334-5.345-2.166,2.772,0,.013.457,2.954,2.619,3.908,5.088,6.011,2.3,1.96,2.679,1.818,3.465,5.111a5.679,5.679,0,0,1,1.242.8c-2.243.32,1.234,2.827,1.822,3.285.429.335.988-.464,1.7.077a16.585,16.585,0,0,1,2.142,2.877,61.086,61.086,0,0,0,5.02,6.151c2.041,2.02,3.034,4.573,4.994,6.934,2.175,2.622,3.351,5.637,5.17,8.484,1.728,2.707,4.024,4.88,6.026,7.358,3.191,3.945,4.277,12.633,10.225,12.862-.348.36.137,3.053.194,3.55.281,2.445.094,4.8,1.541,7.012.331-2.526,1.653-1.552,2.8-.225,1.91,2.208.233,1.652.334,3.889.122,2.713.43.615,1.464,2.983a23.113,23.113,0,0,1,1.686,5.117c-3.36.266-4.9-2.48-6.141-5.14-.519-1.113-.7-2.942-1.618-3.812-.978-.926-2.322-1-3.327-2.031-1.929-1.985-2.765-5.08-5.039-7.012-2.569-2.182-3.138-3.213-5.262-5.823-2.349-2.886-5.593-4.912-8.057-7.7s-2.268-1.27-5.368-2.283c-3.3-1.077-8.628-11.443-12.782-7.451.164-2.611-3.747-5.068-5.724-6.015-.855-.408-1.85-.038-2.705-.651-.928-.665-.994-1.948-1.93-2.746a5.544,5.544,0,0,1-1.725.2c-.592-.3-.6-1.363-1.12-1.712-1.448-.967-3.173-1.982-4.709-2.806-3.734-2-7.034-4.468-10.637-6.879-3.087-2.066-6.823-5.8-10.391-6.886-3.116-.951-5.075-.467-7.627-2.372-1.39-1.037-.981-1.385-3.214-2.03-2.127-.614-3.321-.3-4.448-2.554-1.971-3.946-.727-11.647-1.108-16.072a81.58,81.58,0,0,0-2.11-14.075c-1.448-5.4-3.361-8.218-9.15-6.947-11.47,2.521-22.8,4.919-34.323,7.133-22.96,4.41-45.526,11.608-67.981,18-1.71.487-11.252,2.672-9.3-2.262.9-2.276,6.938-3.124,8.959-3.839,11.1-3.929,22.248-7.931,33.592-11.115M350.8,143.641q-2.516.958-5.03,1.919V140.9l5.03,2.744m-6.969-24.655c1.457,1.191,4.42-1.675,5.658-2.256a15.018,15.018,0,0,1,7.176-1.639,7.719,7.719,0,0,1,6.75,9.022c-1.352,7.364-11.844,10.847-17.629,13.725-.185-2.609-1.03-5.747.8-8,1.589-1.96,4.67-1.817,6.136-3.9,3.689-5.24-6.309-5.715-8.544-1.548l-2.645-7.988c2.128-.352,1.193,1.688,2.3,2.59m10.32-14.414-6.245,4.037c-1.032-4.659,2.485-5.272,6.245-4.037M543.839,266.723c-2.726,1.3-3.408-1.806-5.368-1.94,2.316-1.424,2.316-1.424,5.368,1.94m11.087,67.844c.34,4.466.074,8.983.669,13.431.453,3.384,1.824,6.532,1.97,9.954a28.668,28.668,0,0,1-7.322,20.622,46.535,46.535,0,0,1-18.279,11.855c-2.94.983-6.01,3.164-8.867,3.971-3.159.893-6.161-1.05-8.768,2.434-1.738-14.942-.468-30.555-.6-45.592-.137-15.068.025-30.142-2.524-45.049-2.27-13.276-6.746-28.208-15-39.069a62.976,62.976,0,0,0-11.827-11.4,55.443,55.443,0,0,0-7.03-5.016c-3.87-2.132-7.166-1.837-11.375-2.445-6.023-.87-11.622-1.6-17.668.092-5.628,1.579-11.826,3.378-16.868,6.122-5.021,2.734-10.853,3.86-16.066,6.309-3.546,1.666-10.912,7.231-14.847,6.229-3.808-.971-9.446-7.435-11.878-10.33-3.108-3.7-5.679-7.99-8.436-11.971-.968-1.4-2.942-3.558-3.193-5.353-.437-3.115.811-2.1,3.787-1.749a111.336,111.336,0,0,1,22.184,4.727c3.65,1.2,10.787,6.047,14.437,3.141,5.573-4.436-2.895-12.061-6-14.623-5.285-4.364-11.429-7.606-17.062-11.484-5.985-4.122-13.9-8.509-17.75-14.856,11.247,3.321,22.483,7.123,33.4,11.4a120.466,120.466,0,0,1,14.625,6.631c2.636,1.462,7.961,5.417,11.134,3.523,6.9-4.119-8.946-16.079-11.232-18.523-3.553-3.8-7.034-7.56-10.938-11.007-2.634-2.324-6.772-3.959-8-7.388,4.372,1.582,7.907,4.682,12,6.789a19.419,19.419,0,0,0,6.466,2.076c2.524.362,2.825.764,4.813,1.767a31.81,31.81,0,0,0,4.878,2.36c1.238.379,3.4.445,4.485,1.147q.831,1.185,1.716,2.329.99.291,1.951.672c.96.857,1.53,2.037,2.464,2.921,6.781,6.412,15.85,11,23.452,16.373,7.192,5.081,14.824,9.679,21.732,15.225,7.949,6.384,16.2,13.245,22.96,20.9A131.073,131.073,0,0,1,522.7,275.727c2.324,3.463,5.7,6.337,7.712,9.909,4.38,7.786,8.015,16.2,12.73,23.865,4.8,7.807,11.063,15.563,11.784,25.066m-64.615,45.181c1.31-5.4,8.7-11.714,13.423-14.1-2.38,5.888-8.722,9.9-13.423,14.1M502.5,398.6c-4.028,8.358-21.74,9.314-19.337-3.054,1.177-6.06,6.175-9.778,10.465-13.744,1.983-1.832,6.84-8.387,9.91-7.331-.144,4.713-.421,9.446-.411,14.16.006,3.147.8,7.012-.627,9.969m-5.119-96.325c1.634,3.671,3.262,6.727.23,10.011-1.368,1.482-5.826,4.724-7.843,4-6.474-2.309,5.869-12.363,7.613-14.015m-39.159-32.658c1.559-.085,3.073.147,4.614.052a11.531,11.531,0,0,1,3.12-.174l.45.655q.291,2.2,2.307.478a15.217,15.217,0,0,1,4.869,1.7c-4.821,3.477-10.689,7.518-16.6,8.685-9.342,1.844-6.761-10.957,1.239-11.4M315.008,347.788c-.968,1.948-3.754-2.92-4.444-3.828,1.286,0,5.424,1.862,4.444,3.828m75.06-51.295a188.964,188.964,0,0,1,23.673-11.107c1.371,6.6-5.314,15.13-9.432,19.649-3.329,3.654-7.343,7.444-11.857,9.548-4.881,2.274-10.215,1.275-9.978-5.106a26.534,26.534,0,0,1,1.567-8.215c1.224-2.747,3.538-3.318,6.027-4.769M291.957,176.364c1.08-.063,12.815-1.581,12.753-.12-.185,4.388-11.575.942-12.753.12M208.975,261.1c6.2-7.648,16.2-15.9,16.35-26.591.216-15.727-17.238-7.88-26.013-7.226,4.64-4.559,27.957-23.686,14.165-30.48-3.964-1.952-9.6-.044-13.577.978-7.058,1.816-13.62,4.959-20.554,7.147,4.955-5.274,13.515-11.268,13.235-19.256-.343-9.722-8.324-7.372-15.225-5.945-2.652.549-14.5,5.262-16.725,2.062-.815-1.172.5-2.662.783-3.705a13.522,13.522,0,0,0,.358-4.377c.034-3.806,2.562-8.692.5-12.232a17.316,17.316,0,0,0-1.211,2.511c-.68-2.06-.223-4.244-.9-6.3,17.229,4.406,34.756,6.818,52.093,10.579,8.777,1.9,17.037,5.183,25.934,6.659,8.973,1.487,17.79,3.764,26.779,5.182,8.2,1.294,16.06,3.448,24.182,5.1,7.918,1.61,16.038-1.92,23.766-3.707,17.309-4,34.612-8.1,51.944-11.989,20-4.484,40.805-8.317,59.949-15.8q.557,14.95,2.386,29.814c-8.454-4-21-9.208-29.548-2.056a11.273,11.273,0,0,0-3.123,12c1.472,4.573,5.979,6.7,8.953,10.14-9.051-2.32-32.4-18.681-36.558-2.144-2.936,11.68,11.384,19.225,18.385,25.8-6.953-1.361-16.264-6.92-20.347,2.014-3.528,7.723.722,16.128,5.075,22.5,2.359,3.451,5.012,6.7,7.52,10.044,1.326,1.769,2.621,3.562,4.014,5.279s4.034,3.525,5.014,5.378c1.972,3.737-2.008,3.966-5.1,5.316-3.864,1.685-7.182,4.516-10.715,6.772-8.091,5.166-15.163,9.964-24.724,11.616-9.844,1.7-19.323,3.474-29.037,5.844-9.684,2.363-17.589,4.634-27.488,1.58-4.513-1.393-8.189-2.63-12.976-2.369-5.028.276-7.968.015-12.1-3.1-17.788-13.4-37.1-24.391-55.457-37.039M176.9,247.651c6.875-3.449,13.8-6.916,20.9-9.88,5.878-2.454,14.8-5.313,21.239-4.238-1.814,4.66-5.124,8.484-8.675,11.915-3.14,3.035-7.063,7.614-10.862,9.732-3.451,1.923-7.465-1.122-10.868-2.4-3.739-1.4-8.885-2.055-11.732-5.131m1.728,17.4c3.426-1.424,10.789,3.353,13.9,4.6,6.124,2.442,12.281,4.993,17.678,8.845-6.59,7.615-14.053,14.578-22.921,19.47-5.834,3.218-15.668,6.909-21.172,1.066-6.914-7.343,1.4-22.306,6.293-28.6q.243,1.614.488,3.229c1.562-2.5,2.754-7.37,5.729-8.607m125.776,65.179c-4.275.9-5.727.088-8.549-3.19a78.268,78.268,0,0,0-5.932-6.509c-2.2-2.032-7.615-6.934-.709-4.112,6.3,2.572,11.687,3.859,18.613,2.851,7.919-1.152,15.3-4.5,23.11-6.2-4.281,3.745-8.53,7.528-12.818,11.263-4.531,3.946-7.959,4.68-13.715,5.892m.977,30.123c-9.367,7.049-28.224,6.286-21.877-9.223a28.228,28.228,0,0,1,3.874-6.579,11.9,11.9,0,0,1,2.188-2.509c2.072-1.256,1.5-1.408,3.489.687,1.718,1.807,15.148,16.574,12.326,17.624m-2.777-26.949c.858-.278,4.473-2.374,5.3-1.215.834,1.175-6.254,5.237-5.3,1.215m68.189,107.5c-2.106,5.039-18.961,12.334-15.821,2.176,1.391-4.5,2.7-7.906,7.949-8.248,3.028-.2,9.727,1.635,7.872,6.072m30.235-68.29c2.775-4.04,11.938-9.5,15.85-3.478,1.885,2.9-2.689,4.389-5.455,3.643-1.485-.4-2.7-1.289-4.315-1.356-2.076-.085-4.105,1.543-6.08,1.191m7.356,4.01c-1.887,1.91-13.266,11.486-15.109,10.009,3.716-5.312,7.983-11.245,15.109-10.009m-18.585,96.9c-3.951.223-1.978-5.731-1.6-8.112.956,1.658,5.986,7.863,1.6,8.112m10.04-10.673c-1.278-2.275-4.722-5.661-3.944-8.587.6-2.237,5.972-5.246,8.223-3.962,2.99,1.706-1.344,12.926-4.279,12.549M493.606,439c-1.69,5.824-3.442,4.321-8.742,5.45-5.318,1.131-8.994,5.647-13.675,8.068,1.626-3.438,2.635-7.627,5.357-10.416.63-.644,4.488-1.916,2.29-3.409-1.922-1.3-4.685,2.929-5.51,4.082-4.055,5.678-6.891,12.61-9.232,19.143a55.2,55.2,0,0,0-2.619,9.845c-.486,3,.038,6.144-.457,9.069-.8,4.709-7.194,4.733-11.041,5.948a76.69,76.69,0,0,1-10.565,2.883c-3.134.513-6.386-.422-9.423.2-3.289.668-4.766,2.62-8.505,2.178-3.047-.358-5.9-1.76-8.988-1.9-2.891-.13-5.774.869-8.648.056-2.9-.822-2.76-1.14-2.1-3.99q.618,1.154,1.238,2.306c1.156-.906,1.956-3.669,2.664-4.967,1.1-2.01,1.994-2.705,1.587-5.209-.6-3.7-3.934-6.328-4.69-9.844-.789-3.67,1.924-6.67,3.528-9.734,2.192-4.193,2.163-7.3.326-11.639l4.156,1.1c-1.9-4.123-8.339-2.452-11.568-1.231-1.623.613-4.2,3.025-5.942,2.964-2.4-.084-3.651-3.239-4.682-4.977a160.155,160.155,0,0,0-9.922-14.658c-.971-1.283-2.243-2.108-1.908-3.572.286-1.24,3.069-3,3.972-3.766,3.386-2.863,7.7-4.45,10.876-7.463,4.807-4.554,10.35-7.817,15.264-12.282,5.12-4.65,10.395-8.922,15.73-13.316,5.4-4.451,10.085-9.7,15.45-14.193,1.39,2.519,4.083,11.539,7.162,12.237,3.591.813,3.484-3.436,3.306-5.992-.255-3.644-2.278-7.183-2.5-10.661-.242-3.719,3.337-5.382,6.037-7.533,4.172-3.323,13.4-10.893,8.441-17.123-4.275-5.366-18.177,4.923-22.008,8.017-3.257,2.629-5.773,5.006-9.439,7.081-2.579,1.457-6.9,7.062-9.96,6.545-3.635-.615-5.055-4.585-9.5-4.454-4.346.126-8.037,3.257-10.732,6.4-6.092,7.1-8.185,16.608-13.737,24.012-2.737,3.651-6.287,6.665-9.256,10.119-3.26,3.791-3.953,8.159-7.168,11.869-9.2-12.257-19.224-23.861-28.925-35.716-4.846-5.919-9.59-11.909-14.331-17.912-1.777-2.25-3.781-4.36-5.408-6.723-2.229-3.237-1.828-5.836-2.7-9.445-.387-1.6-2.2-3.515-1.718-5.044.655-2.055,5.247-3.668,6.9-4.507,6.763-3.434,12.9-7.725,19.2-11.919,11.678-7.766,23.492-15.049,35.913-21.682-.214,2.858-2.074,5.819-.825,8.687.582-1.65,1.5-9,3.7-9.314-.422.06-.075,9.424.266,10.76,1.016,3.99,3.965,6.718,8.186,6.691,8.036-.052,15.239-8.794,19.7-14.586,3.02-3.921,5.921-8.481,6.984-13.388.957-4.406-.1-7.471,4.485-9.708a141.564,141.564,0,0,1,28.923-10.765c-.45,4.332-1.706,9.664,2.231,12.78,4.346,3.439,10.032.374,14.123-1.9,4.053-2.253,10.3-8.443,15.062-6.645,4.682,1.769,7.941,7.641,10.562,11.54,2.309,3.436,4.823,5.915,2.148,9.745-3,4.293-4.949,8.484-7.351,13.147-.923,1.792-1.8,2.961-1.151,4.8a26.178,26.178,0,0,0,3.272,4.653c4.17,3.246,9.8-2.927,12.778-5.271,1.05,10.091,1.285,20.137,1.708,30.259.311,7.414,3.181,14.712-2.9,20.132s-11.159,10.979-14.866,18.315c-1.98,3.919-3.756,7.941-5.9,11.778-1.431,2.564-4.449,6.324-2.6,9.342,1.949-1.85,2.529-4.662,4.153-6.748.973,4.329,1.953,9.131,6.531,10.965,5.268,2.111,10.5-1.541,15.169-3.574-1.673,11.572-4.936,22.816-8.188,34.02m-5.385,13.3c-3.615,7.726-6.88,17.043-13.556,22.733-1.467,1.249-7.7,6.126-10.065,5.309-2.012-.694-.9-4.759-.554-6.5,1.779-8.843,4.856-14.407,12.026-20.048,2.967-2.335,6.777-5.319,10.6-5.895,4.119-.621,2.933,1.433,1.545,4.4M590.2,635.711c-9.373-12.746-22.621-22.652-35.141-32.227-5.671-4.338-11.92-7.591-17.65-11.929-6.477-4.9-13.056-9.637-20.312-13.334-13.756-7.009-28.763-11.9-41.745-20.184-6.331-4.043-13.257-7.949-19.209-12.487a86.975,86.975,0,0,1-7.287-6.827c-2.2-2.122-6.908-5.2-7.781-8.307,3.653-.6,5.73-4.143,8.991-4.5,1.074-.12,7.8,1.66,6.884-1.6a14.884,14.884,0,0,0,4.771-.632c.847-.221,1.851.125,2.708-.179,1.311-.462,2.2-1.8,3.526-2.311.941-.363,4.435.043,4.965-.41,1.447-1.236-.09-1.127-.953-2.67,2.811-.072,4.741,1.349,7.559-.161.858-.46,1.584-1.52,2.416-2.069,1.474-.975,2.007.536,3.017-1.487.945,2.791.919,2.019,3.2,1.2a22.353,22.353,0,0,1,6.492-1.613c6.174-.488,12.37.261,18.515-.178,2.248-.161,4.169-.671,6.4-.377,1.966.259,1.374,1.627,3.009-.216.38-.428-.848-1.6-.26-2.216.26-.272,1.106-.081,1.427-.22,2.873-1.254,2.886.5,3.4,2.781A14.176,14.176,0,0,0,532,511.807c-.74-.66-1.977-1.388-1.263-2.594,2.43.921,4.019.5,2.8,3.164,2.445.807,2.9-.245,5.1-.476,1.3-.136,3.112.67,4.194-.367,1.182-1.133-.682-2.363,1.488-3.337a2.149,2.149,0,0,1,.991,1.025q1.758.531-.632,1.384c4.268,2.212,3.265-.261,5.058-2.878.414-.6,2.268-2.476,3.113-1.571,1.281,1.372-1.335,1.808-.774,3.173.972,2.365,4.363-.666,5.4-1.865.788-.9,1.109-2.64,1.958-3.317,1.179-.939,2.876.513,4.352.253,6.745-1.183,13.114-10.251,8.033-16.321-1.365-1.632-2.521-1.307-4.148-2.337-1.609-1.018-2.511-2.778-3.8-4.232a27.293,27.293,0,0,0-10.675-7.393,181.281,181.281,0,0,0-29.892-8.355c-4.648-.917-9.6-2.319-14.354-2.308-2.8.005-7.026,2.185-9.647,1.141-5.1-2.031,2.385-12.425,3.62-15.783a178.04,178.04,0,0,0,8.156-30.735c.351-2.026.216-4.651.946-6.582.838-2.22,1.018-1.906,2.811-2.087,3.24-.327,6.783,1.372,10.157.785,3.739-.651,7.78-.348,11.555-1.505a8.279,8.279,0,0,0,4.486-2.573c.36-.459-.041-.859.187-1.181.07-.1,1.361-1.493,1.4-1.573a10.148,10.148,0,0,1,.188-2.143c1.308,1.086.663,3.364,2.868,3.417.393-2.429.4-2.918,1.991-4.285-.121.1,1.2-1.018,1.031-.9a3.4,3.4,0,0,1,.476-1.211,5.722,5.722,0,0,1,2.361-.573c1.723-1.772,1.008-2.716,1.008-5.1l4.171,2.166c.336-7.065,4.638-10.934,7.5-16.66,1.218-2.44,2.459-4.347,2.75-7.29.168-1.7-.27-3.2.433-4.8.637-1.452,2.064-2.235,2.66-3.816,1.173-3.113.3-7.086.362-10.318.09-4.482.537-8.949.684-13.429A147.083,147.083,0,0,0,569.2,311.9c-.629-4.158-1.682-8.193-2.509-12.307-.68-3.381-2.307-6.553-2.889-9.7-.242-1.307.132-2.48-.262-3.926-.52-1.9-1.388-3.769-2.034-5.636-1.507-4.359-3-8.712-4.694-13-3.287-8.318-7.134-16.387-10.789-24.545-3.516-7.845-6.428-15.933-10.982-23.258-4.486-7.216-9.316-14.309-14.259-21.216-5.15-7.192-11.66-13.372-16.654-20.631-9.377-13.63-22.455-24.861-36.138-34.134-28.235-19.139-58.747-38.247-92.6-44.808a93.547,93.547,0,0,0-15.471-1.8c-3.227-.08-8.573,1.48-11.628.388-3.422-1.223-3.109-5.066-3.965-8.081-1.1-3.875-3.586-6.414-6.408-9.153-2.97-2.884-5.665-6.252-9.369-8.213-3.754-1.986-8.182-2.729-12.341-3.33-3.713-.537-9.261-.035-12.653-1.653-3.09-1.475-1.564-3.01,1.329-1.747a5.583,5.583,0,0,1,1.2-3.086c.41-.5,2.35-1.191,2.4-1.653.055-.541-1.572-2.084-1.8-2.782a7.833,7.833,0,0,1,.378-5c2.917,2.593,3.762,3.741,7.019,1.263a9.465,9.465,0,0,1,3.39-2.036c.432-.143,1.4.3,1.778.051,1.439-.948.115-.724.8-1.845-.172.283,1.037-2.695.979-2.072.147-1.586.616-1.1-.341-3.047-1.876-3.812-6.651-3.968-4.217-8.318.957-1.712,1.8-1.541,2.07-4.023a39.427,39.427,0,0,0-.041-4.221c-.012-2.776.511-4.719-2.09-6.132-2.5-1.359-4.806.132-5.821-3.239-1.063-3.537.008-8.073-3.824-10.5-2.8-1.77-6.844-.257-9.938-1.122s-5.953-4.039-9.1-1.6c-2.236,1.731-3.422,5.988-7.635,3.686-1.9-1.038-2.948-4.524-4.148-6.478-1.91-3.116-3.442-4.241-6.382-1.207-1.812,1.872-5.633,6.428-5.867,9.018-.256,2.86,2.239,4.055-.894,5.747-3.116,1.684-4.864.449-7.394,3.866-2.509,3.39-.567,5.263-3.473,8.506-3.634,4.054-5.567,5.8-5.516,11.266.035,3.746-3.275,6.982-1.344,10.537,2.164,3.983,8.48,5.64,12.309,7.261-1.278,2.362-3.032,3.876-1.54,6.308,1.352,2.2,5.173,2.659,7.542,2.259,1.593-.268,1.65-.027,2.9-1.147.822-.734-.3-1.649,1.387-2.056,1.8-.434,4.676,3.095,5.845,3.977-2.613,3.391-9.789,4.025-13.586,5.744-2.313,1.049-4.44,2.6-6.8,3.536-2.137.85-4.738.653-6.676,1.968-3.346,2.272-4.739,7.9-6.79,11.209-2.322,3.745-4.573,5.485-9.028,6.262-5.557.97-10.032,1.359-15.215,3.78-6.329,2.955-12.568,6.076-18.784,9.262a283.6,283.6,0,0,0-28.65,16.63c-9.74,6.5-19.214,13.291-28.612,20.087-9.3,6.72-17.1,14.989-25.175,23.116-6.527,6.57-12.255,13.662-18.757,20.23C87.758,196.906,82.112,206.7,75,214.922c-3.894,4.5-7.62,8.927-10.063,14.229-1.98,4.3-5.424,8.515-7.722,13.025-2.938,5.765-5.717,11.438-9.015,17.013-1.353,2.287-2.962,4.25-4.389,6.433-1.83,2.8-1.722,5.5-2.214,8.721l-1.541-2.359c-.931,2.035-2.058,4.037-2.865,6.12-.515,1.329-.434,3.217-.951,4.38-.649,1.46-1.439,1.265-2.248,2.481-.865,1.3-1.143,3.047-2.055,4.442-3.941,6.027-5.457,13.676-7.482,20.553-2.717,9.228-2.288,19.833-2.14,29.347a222.968,222.968,0,0,0,2.217,30.042A72.329,72.329,0,0,0,33.4,394.886c3.992,6.88,9.5,10.889,16.547,14.413,3.238,1.618,6.243,1.118,9.642,1.377,3.723.283,6.261,1.294,10.2.4,1.89-.427,2.784-1.8,4.285-2.261.929-.284,1.43.18,2.322.072,1.276-.155,3.93-.781,5.314-.63,4.306.47,3.583,6.98,4.007,10.3.652,5.121,1.13,10.3,2.009,15.384,1.849,10.7,5.842,20.7,8.2,31.216a114.95,114.95,0,0,0-30.567,7.515c-10.283,4.151-20.68,5.561-31.5,7.625C23.737,482.235,14,485.844,5.9,492.38c-3.8,3.063-7.744,6.647-4.955,11.69,1.784,3.226,5,4.046,7.774,5.921.561-.71-1.061-2.214-1.358-2.63,2.333.479,2.262,1.568,3.966,2.515,1.489.829,2.708.8,4.338,1.385,3.98,1.43,5.936,5,9.87,6,1.238.315,2.857,1.068,4.122,1.282,1.52.257,2.658-.408,4.2-.126a8.553,8.553,0,0,0,2.7,1.174q.95-.441,1.876-.932c2.214.23,3.581,1.622,5.38,2.766.12-1.441-.053-2.939,1.311-3.879.533,1.4-.328,2.289,1.126,3.254,1.842,1.223,4.262-.3,5.91-1.077.466,4.659,11.253,4.384,14.673,4.318,4.735-.092,9.465-1.97,14.242-.922,2.437.534,5.038,1.092,7.464,1.787,2.921.834,6.453,1.58,9.328,2.633,1.143.419,2.544,1.76,3.761,1.67.969-.073,1.229-1.5,2.357-1.461,1.276.047,1.705,1.468,2.809,1.9,1.654.639,3.174-.576,4.745.038.565.22,1.33,1.167,2.053,1.475,1.1.468,3.269.474,4.49.7a37.174,37.174,0,0,0,4.764.211c1.2.086,1.17.89,1.742.942.657.06,1.8-2.2,2.682-2.528,1.284-.482,3.615.666,4.925.868a185.4,185.4,0,0,1-33.332,34.184c-13.378,10.738-27.076,21.462-41.422,30.88C44.409,604.965,31.8,612.361,21.7,624.432,13.188,634.611-.366,645.5,1.723,660.256S19.818,681,32.644,683.811c16.131,3.54,32.737,2.115,48.913,4.105,6.9.849,14.563.4,21.506-.327,8.2-.855,15.23-6.207,22.281-10.077,12.682-6.961,23.524-16.276,36.016-23.455,15.641-8.989,31.117-18.513,48.264-24.534,7.977-2.8,16.189-6,22.624-11.757.958-.858,1.671-2.151,2.753-2.858,1.839-1.2,2.332.016,3.4-.347.821-.28,1.617-1.167,2.327-1.433,1.8-.675,2.6-.4,4.617-.4-1.729-1-3.312-3.567-1.517-5.661,3.072-3.587,3.6,2.145,4.756,3.473.979-1.257.6-2.376.354-3.8l2.481,1.637a10.343,10.343,0,0,1,1.437-7.722c1.351-2.221,1.685-1.908,2.057-4.986,4.2,3.83,5.017-5.467,5.4-8.857.365-3.287,0-5.647,2.166-8.522,2.321-3.086,5.85-5.037,8.8-7.435,4.654-3.788,9.775-8.573,16.211-4.94,5.08,2.869,7.845,9.9,12.612,13.515,2.891,2.193,5.943,2.414,7.786,5.813,1.49,2.748,1.974,6.037,3.381,8.859,3.408,6.839,8.314,14.665,13.911,19.911,5.21,4.883,11.9,4.858,17.995,7.887,6.035,3,12.306,6.247,18.7,8.42,6.977,2.374,14.5,3.383,21.294,6.259,3.494,1.479,6.619,3.706,10.144,5.123,3.8,1.527,7.807,2.6,11.659,4,15.264,5.544,30.2,12.343,46.236,15.416,7.112,1.362,13.7,5.065,20.86,5.844a57.88,57.88,0,0,1,8.587,1.527c4.717,1.205,3.718,1.847,5.456,5.78,2.859,6.475,9.841,2.641,15.223,2.8,8.615.26,17.1-1.133,25.7-1.2,15.042-.115,29.525-1.81,44.076-6.748,14.608-4.958,31.24-16.906,19.1-33.414" fill-rule="evenodd"/><path d="M416.321,129.775c.206.206.689.331,0,0" fill-rule="evenodd"/><path d="M151.363,405.572c3.267-3.31,17.167-2.641,18.218,3.281,1.171,6.611-11.249,16.6-15.795,19.395-5.849,3.6-12.989,4.277-11.952-4.768.784-6.832,4.877-13.194,9.529-17.908m11.479-6.815c.424,1.831-2.7,1.209-3.56.774-.406-.833,3.136-2.612,3.56-.774m-23.97,12.123c2.772.249,5.949-4.2,8.041-5.714.924,1.429-5.172,9.284-5.843,11.076-1.675,4.478-2.607,10.136-.324,14.6,6.675,13.053,23.755-5.586,28.027-12.1,2.989-4.554,5.058-10.2.836-14.663-1.5-1.589-3.986-2.03-5.382-3.541-1.838-1.987-.392-4.552-4.087-4.118-2.55.3-5.611,2.6-8.09,3.432a30.04,30.04,0,0,0-8.282,3.9c-.588.419-8.321,6.814-4.9,7.122" fill-rule="evenodd"/><path d="M334.82,415.261c-1.743,8.968-10.629,18.167-19.98,18.525-9.312.355-12.327-9.4-10.683-17.177,1.4-6.632,7.134-18.154,15.312-16.885,6.429,1,16.844,7.85,15.351,15.537m-5.93-14.989c-5.9-4.568-14.061-6.682-20.9-3.058-2.244,1.189-11.2,6.431-8.475,9.979,3.675-2.847,6.847-6.8,11.622-7.747-.8,3.7-5.389,7.032-7.005,10.637a29.235,29.235,0,0,0-2.613,13.659c.551,8.237,6.068,14.637,14.609,13.5,7.82-1.036,14.656-7.03,18.386-13.767,4.981-9,2.175-17.176-5.62-23.207" fill-rule="evenodd"/><path d="M274.062,435.646c-4.2,6.225-10.614,12.08-18.025,14-9.595,2.488-6.9-5.44-4.032-11.13,2.535-5.031,6.884-13.685,13.507-13.639a21,21,0,0,1,8.4,2.3c3.883,2.37,2.359,5.188.146,8.463m-8.955-13.679c1.509-1.68,8.189-8.885,9.084-3.269,1.918-2.224.4-4.069-2.051-4.3-2.962-.284-6.2,3.015-8.339,4.654A41.519,41.519,0,0,0,253.1,430.6c-3.215,5.212-11.412,16.992-4.238,22.164,7.754,5.59,19.04-4.734,23.9-10.058,3.106-3.406,7.219-8.407,6.038-13.4-1.45-6.134-8.585-6.778-13.686-7.338" fill-rule="evenodd"/><path d="M232.021,321.655c-4.339,4.951-13.153,12.165-20.416,11.315-6.624-.775-4.038-8.21-1.694-11.808,3.522-5.408,8.24-10.485,15.057-10.781,2.943-.127,6.757-.068,9.036,2.161,3.113,3.044.31,6.5-1.983,9.113M231.56,307.9c-5.083-1.756-7.08-2.426-12.02.366a33.913,33.913,0,0,0-10.207,9.009c-4.074,5.386-8.183,17.5,2.278,19.017,11.475,1.663,38.77-21.885,19.949-28.392" fill-rule="evenodd"/><path d="M247.2,338.811a23.9,23.9,0,0,1-12.126,7.062c1.99-4.44,6.433-14.14,11.7-15.492,2.427-.623,5.194.193,4.994,2.959-.144,2-3.267,4.14-4.569,5.471m4.249-11.736c-2.733-1.37-1.871-2.306-5.051-1.231a27.028,27.028,0,0,0-7.754,4.007c-1.138.924-4.683,4.2-4.249,5.864.786,3.027,3.43-1.612,4.125-2.5,1.191.97-4.9,9.686-5.262,11.12-1.351,5.342,2.842,5.907,6.951,4.159,5.541-2.356,21.95-16.049,11.24-21.415" fill-rule="evenodd"/><path d="M332.693,470.8c.409-3.541.99-7.285,4.24-9.273,2.928-1.793,5.961-1.533,6.394,2.142.4,3.414-2.941,9.478-5.647,11.34-3.767,2.594-4.493-.64-4.987-4.209m4.84,8.057c7.735-4.526,12.61-25.283-1.648-19.465-8.1,3.306-5.122,23.427,1.648,19.465" fill-rule="evenodd"/><path d="M271.473,392.788c1.22-2.5,2.615-3.33,5.089-4.424-1.649,1.557-3.334,2.995-5.089,4.424m1.785-6.161c-1.752,1.757-5.767,4.437-5.2,7.457.514,2.756,2.619,2.6,4.528,1.738,4-1.8,6.231-9.678,10.419-10.417-4.645-2.943-5.729-2.807-9.742,1.222" fill-rule="evenodd"/><path d="M273.873,230.145q.335,12.586.6,25.173c.065,2.949-.639,7.153.246,9.977.391,1.244,3.925,6.638,5.179,6.987,4.387,1.222,2.819-9.777,2.85-12.485.107-9.137-.027-18.284-.064-27.422-.021-4.708,1.309-44.191-4.8-44-1.052.034-3.645,4.548-4.035,5.452-1.228,2.843-.776,7.056-.748,10.085.083,8.74.537,17.493.769,26.231" fill-rule="evenodd"/><path d="M310.866,254.6c.344,2.32.163,6.189,2.775,7.392,2.272,1.046,3.143-.2,3.993-2.143,1.954-4.472,1.249-11.309,1.213-15.932-.072-9.164-1.1-18.289-1.817-27.419-.314-4.005.337-8.029-.163-12.22-.22-1.84-.439-9.239-3.849-8.9-3.083.311-2.8,8.067-2.973,10.065-1.4,16.633-1.641,32.548.821,49.152" fill-rule="evenodd"/><path d="M456.386,445.615c-1.307,6.681-22.626,29.944-27.994,16.933-3.185-7.719,3.719-16.122,9.1-20.591,3.332-2.766,7.494-5.479,12.035-4.641,3.855.711,7.686,4.056,6.857,8.3m-11.009-11.982c-1.506.356-14.092,9.194-14.208,9.078-1.093-1.1,6.846-12.93,7.663-13.965,6.73-8.528,11.2-2.07,15.406,4.632-.9-4-3.363-9.815-7.483-11.508-5.2-2.137-9.261,3.138-11.764,6.931-3.538,5.361-5.488,11.182-7.454,17.231a37.073,37.073,0,0,1-3.593,8.1c-1.567,2.567-4.309,5.4-3.9,8.645,2.228-1.239,3.411-3.663,4.814-5.66,1.566.634,1.028,5.627,1.346,6.9a7.859,7.859,0,0,0,6.355,6.241c6.289,1.023,13.078-4.8,17.283-8.747,4.431-4.164,9.2-9.873,9.162-16.282-.041-6.7-6.626-13.252-13.623-11.6" fill-rule="evenodd"/><path d="M462.427,326.29c-3.568,5.46-9.829,12.007-16.454,13.276-4.863.931-8.071-2.673-6.118-7.539,1.651-4.112,7.273-6.708,10.958-8.517,2.923-1.436,16.552-4.778,11.614,2.78m-2.625-8.933c-7.309-.276-13.205,5.009-18.655,9.226,1.231-4.844,4.015-10.115,7.936-13.269,5.335-4.291,10.393-1.627,16.01.52-1.386-4.373-7.606-5.946-11.569-5.328-5.01.781-8.613,5.058-11.146,9.2-3.022,4.936-4.056,10.754-7.613,15.384-1.629,2.119-11.714,10.049-9.43,13.291q5.649-6,11.3-12c.977,4.726,2.053,10.107,8.087,9.648,4.819-.368,10.315-4.464,13.839-7.6,4.55-4.044,13.506-18.613,1.24-19.077" fill-rule="evenodd"/><path d="M357.414,363.987c-3.1,1.424-9.912,3.359-11.643-.919-2.4-5.94,5.333-16.361,9.016-20.319,2.266-2.436,3.8-3.7,6.962-2.12,2.522,1.259,6.228,4.836,7.2,7.586,2.077,5.9-6.687,13.545-11.53,15.772m7.1-28.532c2.521.568,2.83,3.77-.323,2.541-2.362-.921-2.911-3.27.323-2.541m3.165,4.51c-.941-2.873.974-7.377-3.663-7.585-2.627-.117-7.44,2.554-9.734,3.64a16.479,16.479,0,0,0-7.832,7.037c-1.538,3-.44,3.787,1.9,1.3.287.2-5.3,14.609-5.351,16.054-.218,6.6,4.454,10.947,11.016,9.776,6.031-1.075,11.466-6.007,14.785-10.984a16.88,16.88,0,0,0,3.183-8.49c.194-4.734-2.962-6.637-4.308-10.747" fill-rule="evenodd"/><path d="M396.611,337.544c-2.545-4.9,3.351-13.147,8.63-10.735C416.233,331.832,399.949,343.969,396.611,337.544Zm9.874-6.4c-1.18.047-8.637,2.928-7.539,4.88C400.452,338.706,405.895,332.224,406.485,331.147Z" fill-rule="evenodd"/><path d="M45.946,322.089c-.295-2.087-4.973.943-4.946,2.288.774-1.548,5.56,2.062,4.946-2.288" fill-rule="evenodd"/><path d="M301.806,164.372c5.956-.438-1.633-30.486-5.973-27.829-4.706,2.88.507,28.23,5.973,27.829" fill-rule="evenodd"/><path d="M312.929,150.341c5.58.8,4.693-12.014,1.692-14.307-5.54-4.234-8.467,13.336-1.692,14.307" fill-rule="evenodd"/></g></g></svg>